<svg xmlns="http://www.w3.org/2000/svg" viewBox="0 0 358.296 138" role="img" aria-labelledby="title desc">
	<title id="title">M-shaped Mimo IMIC wordmark 600</title>
	<desc id="desc">M-shaped Mimo mascot replacing the first M in the MIMIC wordmark.</desc>
	<g transform="translate(8 8) scale(0.238)">
<g transform="scale(0.25)">
		<path fill="#10212B" d="M 496 169.089 C 484.175 169.487, 470.900 170.273, 466.500 170.836 C 458.079 171.914, 445.108 174.365, 438.688 176.092 C 436.591 176.656, 430.684 177.747, 425.562 178.516 C 420.440 179.285, 414.730 180.564, 412.874 181.360 C 407.729 183.565, 385.202 190.942, 379 192.454 C 373.844 193.710, 369.167 195.537, 359.434 200.096 C 357.198 201.143, 354.719 202, 353.925 202 C 353.132 202, 348.514 204.025, 343.664 206.500 C 338.815 208.975, 334.319 211.018, 333.673 211.039 C 333.028 211.060, 330.025 212.635, 327 214.538 C 323.975 216.441, 320.150 218.676, 318.500 219.504 C 316.850 220.332, 311.450 223.465, 306.500 226.467 C 301.550 229.468, 295.475 233.021, 293 234.361 C 290.525 235.702, 286.842 238.081, 284.815 239.649 C 282.788 241.217, 277.849 244.750, 273.838 247.500 C 269.827 250.250, 264.735 254.124, 262.523 256.108 C 260.310 258.092, 257.375 260.301, 256 261.017 C 254.625 261.732, 252.905 263.156, 252.178 264.180 C 251.451 265.205, 248.483 267.796, 245.582 269.940 C 240.101 273.988, 222.642 290.174, 215.313 298 C 207.016 306.860, 192.374 323.624, 186.927 330.500 C 176.365 343.834, 171.287 350.596, 170 353.042 C 169.289 354.394, 167.358 357.052, 165.709 358.949 C 164.060 360.846, 161.863 364.315, 160.827 366.658 C 159.791 369, 158.543 371.164, 158.054 371.466 C 156.281 372.563, 142.921 395.920, 134.013 413.500 C 128.996 423.400, 123.297 435.550, 121.348 440.500 C 119.399 445.450, 117.438 449.950, 116.989 450.500 C 116.540 451.050, 114.324 457.091, 112.065 463.924 C 109.805 470.757, 107.568 476.832, 107.094 477.424 C 106.619 478.016, 105.751 480.525, 105.164 483 C 102.074 496.037, 98.920 507.728, 98.014 509.500 C 97.452 510.600, 96.546 513.916, 95.999 516.870 C 95.453 519.823, 94.105 525.158, 93.003 528.725 C 91.901 532.292, 91 536.457, 91 537.980 C 91 539.503, 90.351 542.587, 89.558 544.834 C 88.766 547.082, 87.637 553.551, 87.050 559.210 C 86.463 564.870, 85.296 573.775, 84.455 579 C 83.614 584.225, 82.517 593.450, 82.017 599.500 C 81.517 605.550, 80.688 611.883, 80.174 613.573 C 79.661 615.263, 78.931 621.338, 78.553 627.073 C 77.585 641.735, 75.109 666.483, 73.964 672.934 C 73.434 675.922, 72.985 681.772, 72.967 685.934 C 72.949 690.095, 72.529 696.425, 72.033 700 C 70.082 714.061, 69.090 723.070, 68.012 736.500 C 67.395 744.200, 66.239 756.176, 65.445 763.112 C 64.650 770.049, 63.980 780.399, 63.956 786.112 C 63.914 795.954, 63.531 800.332, 61.163 818 C 60.610 822.125, 59.649 831.800, 59.026 839.500 C 58.403 847.200, 57.264 858.675, 56.496 865 C 55.727 871.325, 54.864 882.350, 54.578 889.500 C 54.292 896.650, 53.627 904.975, 53.101 908 C 52.575 911.025, 51.418 921.375, 50.530 931 C 49.641 940.625, 48.257 953, 47.454 958.500 C 46.651 964, 45.995 971.496, 45.997 975.158 C 45.999 978.820, 45.343 987.145, 44.541 993.658 C 43.738 1000.171, 42.388 1011.144, 41.541 1018.043 C 40.693 1024.941, 40 1033.317, 40 1036.656 C 40 1039.995, 39.521 1045.151, 38.936 1048.114 C 38.350 1051.076, 37.234 1059.800, 36.456 1067.500 C 35.677 1075.200, 34.376 1087.350, 33.565 1094.500 C 32.754 1101.650, 31.830 1112.675, 31.513 1119 C 31.196 1125.325, 30.282 1135.450, 29.482 1141.500 C 28.681 1147.550, 27.560 1157.225, 26.991 1163 C 26.421 1168.775, 25.301 1179.711, 24.502 1187.302 C 23.704 1194.893, 22.783 1206.593, 22.456 1213.302 C 22.129 1220.011, 21.412 1227.750, 20.863 1230.500 C 19.892 1235.360, 18.034 1251.600, 16 1273 C 15.451 1278.775, 14.555 1287.325, 14.009 1292 C 13.462 1296.675, 13.001 1303.875, 12.984 1308 C 12.966 1312.125, 12.513 1317.300, 11.976 1319.500 C 11.439 1321.700, 10.567 1327.775, 10.038 1333 C 5.971 1373.196, 4.933 1384.321, 4.020 1397.500 C 3.449 1405.750, 2.476 1414.525, 1.859 1417 C 1.242 1419.475, 0.544 1428.025, 0.308 1436 C -0.023 1447.181, 0.244 1451.873, 1.473 1456.500 C 2.350 1459.800, 3.513 1468.800, 4.058 1476.500 C 5.609 1498.398, 8.638 1520.146, 11.510 1530 C 12.231 1532.475, 13.087 1537.200, 13.412 1540.500 C 13.737 1543.800, 15.604 1551.900, 17.561 1558.500 C 19.519 1565.100, 21.552 1572.750, 22.081 1575.500 C 23.041 1580.498, 27.096 1592.283, 29.479 1597 C 30.174 1598.375, 31.042 1601.171, 31.409 1603.213 C 32.098 1607.045, 33.595 1610.693, 42.810 1631 C 44.433 1634.575, 46.078 1638.542, 46.468 1639.815 C 46.857 1641.088, 48.936 1645.183, 51.088 1648.915 C 53.240 1652.647, 55.003 1656.330, 55.007 1657.100 C 55.010 1657.870, 57.035 1661.636, 59.507 1665.470 C 61.978 1669.303, 64 1672.870, 64 1673.396 C 64 1673.923, 65.951 1677.311, 68.335 1680.927 C 77.241 1694.433, 75.525 1691.869, 85.527 1706.615 C 92.477 1716.859, 100.728 1727.261, 115.877 1744.875 C 121.458 1751.364, 146.118 1775.900, 152.746 1781.559 C 161.881 1789.358, 185.546 1807.601, 191 1811.048 C 194.025 1812.960, 197.208 1814.968, 198.073 1815.512 C 198.938 1816.055, 201.863 1817.928, 204.573 1819.673 C 216.891 1827.605, 231.184 1835.820, 234.956 1837.134 C 236.851 1837.795, 240.967 1839.786, 244.102 1841.558 C 247.237 1843.330, 251.534 1845.310, 253.651 1845.957 C 257.258 1847.061, 266.044 1850.862, 270.458 1853.228 C 271.536 1853.805, 274.686 1854.872, 277.458 1855.599 C 283.795 1857.261, 306.396 1864.722, 310.813 1866.611 C 312.636 1867.390, 317.361 1868.493, 321.313 1869.062 C 325.266 1869.631, 331.425 1870.719, 335 1871.480 C 338.575 1872.240, 343.750 1873.146, 346.500 1873.491 C 349.250 1873.837, 355.100 1874.880, 359.500 1875.809 C 366.266 1877.238, 373.748 1877.495, 408 1877.477 C 445.316 1877.457, 449.561 1877.278, 462 1875.199 C 487.405 1870.954, 502.136 1867.954, 509.500 1865.525 C 512.250 1864.618, 518.550 1862.524, 523.500 1860.872 C 528.450 1859.220, 535.200 1857.053, 538.500 1856.057 C 541.800 1855.061, 548.609 1852.390, 553.632 1850.123 C 558.655 1847.855, 563.286 1846, 563.924 1846 C 565.552 1846, 577.749 1840.215, 578.424 1839.122 C 578.731 1838.627, 580.218 1837.911, 581.730 1837.532 C 583.243 1837.152, 588.875 1834.290, 594.248 1831.171 C 599.620 1828.052, 605.399 1824.751, 607.090 1823.836 C 608.781 1822.921, 612.940 1820.394, 616.333 1818.221 C 619.725 1816.048, 623.625 1813.699, 625 1813.001 C 626.375 1812.303, 630.650 1809.206, 634.500 1806.119 C 638.350 1803.033, 643.358 1799.156, 645.629 1797.504 C 658.826 1787.904, 666.188 1781.499, 681 1766.735 C 698.644 1749.147, 716.151 1729.491, 725.742 1716.500 C 728.991 1712.100, 732.440 1707.851, 733.408 1707.058 C 735.728 1705.157, 737.449 1706.291, 741.958 1712.693 C 746.966 1719.803, 757.196 1733.069, 766.165 1744.085 C 776.266 1756.492, 800.018 1779.605, 812.322 1789 C 817.725 1793.125, 824.475 1798.319, 827.322 1800.542 C 836.862 1807.988, 855.933 1819.850, 868 1825.843 C 872.675 1828.164, 879.351 1831.624, 882.835 1833.532 C 886.319 1835.439, 889.834 1837, 890.646 1837 C 891.458 1837, 895.987 1838.819, 900.711 1841.043 C 905.435 1843.266, 911.595 1845.541, 914.400 1846.097 C 917.205 1846.654, 921.075 1847.767, 923 1848.570 C 928.492 1850.862, 939.796 1853.995, 948 1855.499 C 952.125 1856.255, 959.775 1857.768, 965 1858.862 C 970.225 1859.955, 980.575 1861.607, 988 1862.533 C 998.663 1863.863, 1006.963 1864.121, 1027.500 1863.759 C 1053.978 1863.293, 1072.859 1861.509, 1084.455 1858.379 C 1087.780 1857.481, 1093.875 1856.168, 1098 1855.460 C 1107.049 1853.908, 1120.416 1850.347, 1123.938 1848.550 C 1125.347 1847.831, 1128.929 1846.729, 1131.898 1846.100 C 1134.866 1845.472, 1141.116 1843.167, 1145.786 1840.979 C 1150.456 1838.790, 1154.904 1837, 1155.670 1837 C 1157.306 1837, 1178.781 1826.163, 1179.523 1824.963 C 1179.801 1824.514, 1181.709 1823.595, 1183.764 1822.921 C 1185.819 1822.247, 1190.249 1819.964, 1193.608 1817.848 C 1196.967 1815.731, 1199.975 1814, 1200.292 1814 C 1201.509 1814, 1226.725 1795.990, 1233.104 1790.565 C 1235.086 1788.879, 1238.415 1786.150, 1240.502 1784.500 C 1248.423 1778.237, 1251.859 1775.025, 1264.089 1762.447 C 1275.387 1750.829, 1284.849 1739.940, 1293.513 1728.586 C 1295.156 1726.434, 1298.075 1722.608, 1300 1720.086 C 1301.925 1717.563, 1304.759 1713.564, 1306.297 1711.200 C 1307.835 1708.836, 1309.753 1706.648, 1310.560 1706.339 C 1311.366 1706.029, 1312.766 1706.389, 1313.672 1707.138 C 1314.577 1707.887, 1318.190 1712.325, 1321.700 1717 C 1325.210 1721.675, 1330.726 1728.425, 1333.957 1732 C 1337.189 1735.575, 1344.687 1743.900, 1350.621 1750.500 C 1356.554 1757.100, 1363.279 1764.075, 1365.565 1766 C 1367.851 1767.925, 1374.240 1773.550, 1379.762 1778.500 C 1392.228 1789.673, 1397.124 1793.696, 1403.500 1798.005 C 1406.250 1799.864, 1409.088 1802.198, 1409.807 1803.192 C 1410.525 1804.186, 1411.575 1805, 1412.138 1805 C 1412.702 1805, 1415.039 1806.519, 1417.332 1808.375 C 1419.624 1810.232, 1423.042 1812.535, 1424.927 1813.493 C 1426.812 1814.451, 1430.412 1816.666, 1432.927 1818.415 C 1435.442 1820.164, 1442.450 1824.406, 1448.500 1827.841 C 1454.550 1831.276, 1460.175 1834.479, 1461 1834.959 C 1464.696 1837.110, 1483.748 1845.942, 1486 1846.547 C 1487.375 1846.917, 1492.550 1848.926, 1497.500 1851.011 C 1502.450 1853.096, 1509.200 1855.683, 1512.500 1856.761 C 1515.800 1857.838, 1522.325 1859.960, 1527 1861.475 C 1531.675 1862.991, 1537.525 1864.898, 1540 1865.714 C 1542.475 1866.530, 1547.875 1867.859, 1552 1868.667 C 1556.125 1869.475, 1562.650 1870.769, 1566.500 1871.543 C 1570.350 1872.316, 1575.750 1873.213, 1578.500 1873.534 C 1581.250 1873.856, 1587.100 1874.880, 1591.500 1875.810 C 1598.281 1877.243, 1605.746 1877.495, 1640.500 1877.470 C 1674.705 1877.444, 1682.826 1877.165, 1689.500 1875.782 C 1693.900 1874.870, 1700.200 1873.811, 1703.500 1873.428 C 1706.800 1873.045, 1710.470 1872.370, 1711.656 1871.927 C 1712.841 1871.484, 1717.550 1870.609, 1722.120 1869.984 C 1726.689 1869.358, 1733.594 1867.805, 1737.464 1866.532 C 1741.334 1865.259, 1747.650 1863.244, 1751.500 1862.055 C 1755.350 1860.866, 1761.277 1858.792, 1764.671 1857.446 C 1768.064 1856.101, 1771.795 1855, 1772.962 1855 C 1774.128 1855, 1778.696 1853.229, 1783.113 1851.064 C 1787.530 1848.899, 1792.441 1846.842, 1794.025 1846.494 C 1797.210 1845.795, 1820.091 1834.305, 1829.500 1828.680 C 1832.800 1826.707, 1837.281 1824.115, 1839.458 1822.920 C 1843.315 1820.803, 1846.855 1818.513, 1859.802 1809.760 C 1865.797 1805.708, 1875.322 1798.222, 1892.376 1784.159 C 1908.147 1771.154, 1931.193 1746.622, 1950.301 1722.500 C 1958.478 1712.178, 1972.742 1691.235, 1977.231 1682.962 C 1982.149 1673.897, 1985.148 1668.748, 1986.527 1667 C 1990.064 1662.516, 2004.335 1631.777, 2013.918 1608 C 2017.296 1599.620, 2023.283 1581.532, 2024.676 1575.500 C 2026.781 1566.382, 2027.550 1563.414, 2030.834 1551.710 C 2032.500 1545.775, 2034.351 1536.895, 2034.949 1531.977 C 2035.548 1527.058, 2036.479 1521.872, 2037.018 1520.452 C 2037.558 1519.032, 2039.222 1508.787, 2040.716 1497.685 C 2043.310 1478.412, 2043.432 1475.602, 2043.422 1435.500 C 2043.412 1395.239, 2043.278 1392.221, 2040.180 1362.612 C 2038.402 1345.624, 2036.704 1331.330, 2036.406 1330.848 C 2036.108 1330.366, 2035.452 1323.115, 2034.949 1314.736 C 2034.046 1299.699, 2028.445 1246.779, 2027.477 1244.141 C 2027.203 1243.393, 2026.527 1235.068, 2025.974 1225.641 C 2024.819 1205.948, 2020.694 1164.739, 2018.553 1151.500 C 2017.753 1146.550, 2016.826 1137.550, 2016.495 1131.500 C 2015.691 1116.818, 2011.791 1076.878, 2009.074 1055.500 C 2006.703 1036.837, 2003.703 1006.440, 2002.857 992.500 C 2002.356 984.250, 2001.293 972.550, 2000.493 966.500 C 1999.694 960.450, 1998.323 947.625, 1997.447 938 C 1996.571 928.375, 1995.215 916.225, 1994.433 911 C 1993.651 905.775, 1993.017 898.125, 1993.023 894 C 1993.029 889.875, 1992.359 880.425, 1991.534 873 C 1990.708 865.575, 1989.105 850.050, 1987.969 838.500 C 1986.834 826.950, 1985.500 814.350, 1985.004 810.500 C 1984.508 806.650, 1984.069 799.900, 1984.027 795.500 C 1983.986 791.100, 1983.515 785.700, 1982.980 783.500 C 1981.956 779.283, 1979.613 752.728, 1978.482 732.500 C 1978.113 725.900, 1977.380 718.492, 1976.854 716.038 C 1976.327 713.584, 1975.482 705.259, 1974.976 697.538 C 1974.470 689.817, 1973.408 679.450, 1972.618 674.500 C 1971.827 669.550, 1970.667 660.100, 1970.040 653.500 C 1969.412 646.900, 1968.247 637.963, 1967.450 633.640 C 1966.652 629.316, 1966 623.373, 1966 620.433 C 1966 617.493, 1964.915 608.205, 1963.588 599.794 C 1962.261 591.382, 1960.878 581.350, 1960.515 577.500 C 1960.152 573.650, 1959.212 567.960, 1958.427 564.856 C 1957.642 561.751, 1956.999 557.701, 1956.999 555.856 C 1956.998 554.010, 1955.924 548, 1954.613 542.500 C 1953.301 537, 1951.908 530.250, 1951.515 527.500 C 1951.123 524.750, 1950.350 521.654, 1949.797 520.621 C 1948.841 518.834, 1944.933 503.109, 1942.835 492.606 C 1942.297 489.914, 1941.265 486.764, 1940.541 485.606 C 1939.817 484.448, 1938.664 481.025, 1937.978 478 C 1937.293 474.975, 1936.117 471.285, 1935.366 469.800 C 1934.615 468.314, 1934 466.272, 1934 465.261 C 1934 464.250, 1933.100 461.658, 1932 459.500 C 1930.900 457.342, 1930 455.213, 1930 454.767 C 1930 453.350, 1922.959 435.876, 1918.823 427.030 C 1907.050 401.847, 1897.311 383.606, 1889.865 372.790 C 1888.839 371.300, 1888 369.694, 1888 369.220 C 1888 368.333, 1879.479 355.144, 1874.925 348.984 C 1873.509 347.068, 1869.705 341.900, 1866.471 337.500 C 1855.568 322.661, 1840.692 305.585, 1825.053 289.957 C 1816.499 281.409, 1806.965 272.546, 1803.867 270.262 C 1800.769 267.978, 1796.944 264.913, 1795.367 263.451 C 1792.038 260.363, 1782.713 253.231, 1774.512 247.500 C 1771.364 245.300, 1766.249 241.686, 1763.144 239.468 C 1760.040 237.251, 1755.700 234.377, 1753.500 233.082 C 1745.758 228.526, 1742.466 226.644, 1739 224.794 C 1737.075 223.766, 1733.475 221.613, 1731 220.009 C 1728.525 218.405, 1723.575 215.672, 1720 213.936 C 1716.425 212.200, 1709.623 208.805, 1704.885 206.390 C 1700.147 203.976, 1695.422 201.997, 1694.385 201.994 C 1693.348 201.990, 1691.150 201.260, 1689.500 200.370 C 1684.828 197.851, 1675.007 193.962, 1669.500 192.450 C 1666.750 191.694, 1656.625 188.416, 1647 185.163 C 1637.375 181.911, 1627.475 178.958, 1625 178.602 C 1620.564 177.963, 1606.180 175.229, 1592.500 172.423 C 1579.556 169.768, 1565.114 169, 1528.211 169.002 C 1502.644 169.003, 1487.197 169.458, 1477.325 170.498 C 1469.528 171.320, 1461.961 172.444, 1460.510 172.996 C 1459.058 173.548, 1456.709 174, 1455.289 174 C 1453.870 174, 1448.837 174.876, 1444.104 175.947 C 1439.372 177.018, 1431.900 178.555, 1427.500 179.363 C 1423.100 180.171, 1417.475 181.515, 1415 182.351 C 1400.819 187.137, 1387.820 191.222, 1383 192.408 C 1377.734 193.704, 1370.327 196.596, 1365 199.436 C 1363.625 200.169, 1360.925 201.106, 1359 201.517 C 1355.639 202.236, 1343.138 207.861, 1330.500 214.343 C 1323.658 217.853, 1320.667 219.510, 1308.566 226.500 C 1303.805 229.250, 1298.243 232.400, 1296.205 233.500 C 1292.542 235.478, 1291.345 236.267, 1278.877 244.932 C 1268.572 252.095, 1255.695 261.723, 1253 264.281 C 1251.625 265.586, 1248.250 268.406, 1245.500 270.547 C 1238.465 276.024, 1232.933 280.955, 1222 291.497 C 1209.478 303.570, 1193.675 320.128, 1186.017 329.200 C 1182.628 333.215, 1179.042 337.407, 1178.048 338.516 C 1175.424 341.443, 1162.080 358.169, 1158.050 363.582 C 1156.153 366.131, 1153.437 369.461, 1152.016 370.983 C 1150.594 372.505, 1148.225 375.493, 1146.750 377.625 C 1142.772 383.373, 1135.222 392.894, 1129 400.007 C 1120.346 409.900, 1103.301 424.666, 1094 430.327 C 1085.201 435.682, 1074.468 440.923, 1072.200 440.972 C 1071.486 440.987, 1069.542 441.703, 1067.881 442.562 C 1063.176 444.994, 1042.919 448.839, 1031.151 449.533 C 1025.263 449.880, 1016.922 449.688, 1012.500 449.102 C 1001.272 447.617, 987.096 444.293, 984.370 442.507 C 983.105 441.678, 981.548 441, 980.910 441 C 979.162 441, 967.824 435.854, 965.194 433.867 C 963.926 432.908, 961.001 431.210, 958.694 430.093 C 953.557 427.606, 939.655 416.582, 932.092 409 C 924.231 401.118, 911.493 386.500, 905 377.909 C 896.646 366.855, 886.667 354.073, 882.040 348.500 C 879.757 345.750, 873.494 338.100, 868.123 331.500 C 844.664 302.677, 806.637 267.031, 781 249.833 C 777.975 247.804, 772.350 243.863, 768.500 241.075 C 764.650 238.287, 759.637 235.142, 757.360 234.086 C 755.083 233.030, 752.920 231.680, 752.553 231.086 C 752.186 230.491, 748.874 228.558, 745.193 226.789 C 741.512 225.020, 737.094 222.625, 735.376 221.467 C 732.365 219.437, 722.926 214.691, 705 206.193 C 700.325 203.977, 694.925 201.850, 693 201.467 C 691.075 201.083, 689.023 200.387, 688.440 199.920 C 687.070 198.822, 672.811 193.006, 671.500 193.010 C 670.126 193.015, 639.285 183.147, 635.187 181.391 C 633.364 180.611, 628.639 179.488, 624.687 178.898 C 620.734 178.307, 614.575 177.199, 611 176.435 C 607.425 175.672, 602.475 174.765, 600 174.420 C 597.525 174.075, 593.025 173.201, 590 172.478 C 577.121 169.402, 533.482 167.829, 496 169.089"/>
		<path fill="#65E6B8" d="M 496 217.072 C 484.175 217.451, 471.125 218.258, 467 218.865 C 458.465 220.120, 435.219 225.092, 427 227.421 C 423.975 228.278, 417.675 230.362, 413 232.053 C 408.325 233.744, 401.989 235.765, 398.919 236.544 C 395.850 237.324, 389.264 239.770, 384.284 241.981 C 379.304 244.191, 374.796 246, 374.266 246 C 372.282 246, 346.042 259.349, 334 266.483 C 327.125 270.557, 319.475 275.043, 317 276.453 C 311.554 279.556, 297.643 289.365, 292.825 293.500 C 290.903 295.150, 286.248 298.975, 282.481 302 C 258.230 321.474, 226.992 354.877, 211.115 378.311 C 208.577 382.058, 205.629 386.558, 204.565 388.311 C 203.500 390.065, 199.591 396.140, 195.877 401.810 C 188.401 413.225, 171.096 446.700, 164.244 463 C 159.611 474.022, 151.877 495.004, 149.315 503.500 C 147.623 509.113, 143.418 524.780, 138.981 542 C 137.351 548.325, 135.572 557.100, 135.028 561.500 C 134.483 565.900, 133.328 573.775, 132.462 579 C 131.595 584.225, 130.509 593.225, 130.048 599 C 129.588 604.775, 128.751 611.525, 128.187 614 C 127.624 616.475, 126.878 622.550, 126.530 627.500 C 125.480 642.411, 122.995 667.147, 121.966 672.934 C 121.435 675.922, 120.985 681.772, 120.967 685.934 C 120.949 690.095, 120.529 696.425, 120.033 700 C 118.082 714.061, 117.090 723.070, 116.012 736.500 C 115.395 744.200, 114.239 756.176, 113.445 763.112 C 112.650 770.049, 111.980 780.399, 111.956 786.112 C 111.914 795.954, 111.531 800.332, 109.163 818 C 108.610 822.125, 107.649 831.800, 107.026 839.500 C 106.403 847.200, 105.264 858.675, 104.496 865 C 103.727 871.325, 102.864 882.350, 102.578 889.500 C 102.292 896.650, 101.627 904.975, 101.101 908 C 100.575 911.025, 99.418 921.375, 98.530 931 C 97.641 940.625, 96.257 953, 95.454 958.500 C 94.651 964, 93.995 971.496, 93.997 975.158 C 93.999 978.820, 93.343 987.145, 92.541 993.658 C 91.738 1000.171, 90.388 1011.144, 89.541 1018.043 C 88.693 1024.941, 88 1033.317, 88 1036.656 C 88 1039.995, 87.521 1045.151, 86.936 1048.114 C 86.350 1051.076, 85.234 1059.800, 84.456 1067.500 C 83.677 1075.200, 82.376 1087.350, 81.565 1094.500 C 80.754 1101.650, 79.830 1112.675, 79.513 1119 C 79.196 1125.325, 78.282 1135.450, 77.482 1141.500 C 76.681 1147.550, 75.560 1157.225, 74.991 1163 C 74.421 1168.775, 73.301 1179.711, 72.502 1187.302 C 71.704 1194.893, 70.783 1206.593, 70.456 1213.302 C 70.129 1220.011, 69.412 1227.750, 68.863 1230.500 C 67.892 1235.360, 66.034 1251.600, 64 1273 C 63.451 1278.775, 62.555 1287.325, 62.009 1292 C 61.462 1296.675, 61.001 1303.875, 60.984 1308 C 60.966 1312.125, 60.513 1317.300, 59.976 1319.500 C 59.439 1321.700, 58.567 1327.775, 58.038 1333 C 53.910 1373.805, 52.941 1384.252, 52.106 1397 C 51.583 1404.975, 49.979 1417.463, 48.541 1424.752 L 45.927 1438.003 48.858 1453.252 C 50.470 1461.638, 52.075 1473.675, 52.426 1480 C 52.776 1486.325, 53.518 1494.650, 54.073 1498.500 C 55.827 1510.642, 62.077 1541.271, 63.970 1547 C 64.970 1550.025, 66.298 1554.975, 66.921 1558 C 67.544 1561.025, 69.575 1567.325, 71.433 1572 C 73.292 1576.675, 75.095 1581.850, 75.442 1583.500 C 76.009 1586.206, 80.988 1598.172, 87.716 1613 C 91.657 1621.685, 101.838 1641.837, 106.123 1649.433 C 111.274 1658.564, 125.811 1680.337, 133.876 1691 C 137.412 1695.675, 143.274 1702.805, 146.903 1706.845 C 150.531 1710.884, 154.625 1715.625, 156 1717.381 C 157.375 1719.136, 164.593 1726.416, 172.040 1733.560 C 186.095 1747.043, 208.830 1765.514, 217.502 1770.496 C 220.251 1772.076, 224.075 1774.575, 226 1776.051 C 227.925 1777.526, 231.300 1779.713, 233.500 1780.910 C 235.700 1782.107, 240.425 1784.877, 244 1787.066 C 247.575 1789.255, 252.075 1791.725, 254 1792.555 C 255.925 1793.385, 261.461 1796.075, 266.302 1798.532 C 271.144 1800.990, 275.693 1803, 276.412 1803 C 277.130 1803, 281.269 1804.643, 285.609 1806.651 C 289.949 1808.660, 295.525 1810.890, 298 1811.607 C 300.475 1812.324, 306.325 1814.289, 311 1815.973 C 328.706 1822.351, 352.717 1827.374, 374 1829.152 C 381.211 1829.755, 399.827 1829.982, 418 1829.689 C 445.942 1829.239, 451.251 1828.885, 465 1826.554 C 481.029 1823.837, 488.133 1822.054, 503.500 1816.892 C 508.450 1815.228, 515.200 1813.053, 518.500 1812.057 C 521.800 1811.061, 528.609 1808.390, 533.632 1806.123 C 538.655 1803.855, 543.341 1802, 544.047 1802 C 544.752 1802, 548.518 1800.259, 552.415 1798.131 C 556.312 1796.002, 560.545 1793.937, 561.821 1793.540 C 563.098 1793.144, 567.823 1790.644, 572.321 1787.983 C 576.820 1785.323, 583.650 1781.308, 587.500 1779.060 C 591.350 1776.812, 597.052 1773.291, 600.172 1771.236 C 612.167 1763.335, 630.975 1748.204, 642 1737.586 C 656.330 1723.785, 678.503 1699.200, 688.364 1686.180 C 692.472 1680.755, 697.867 1674.527, 700.352 1672.339 C 709.484 1664.301, 712.384 1662.858, 724.245 1660.450 L 735.500 1658.166 746.704 1660.438 C 752.867 1661.688, 758.942 1663.390, 760.204 1664.221 C 768.182 1669.471, 774.098 1675.530, 783.672 1688.255 C 800.161 1710.172, 806.306 1717.515, 818.886 1730.339 C 832.201 1743.911, 858.355 1764.529, 874 1773.786 C 881.865 1778.439, 910.160 1793, 911.338 1793 C 912.035 1793, 916.372 1794.821, 920.976 1797.048 C 925.579 1799.274, 931.630 1801.553, 934.423 1802.113 C 937.215 1802.672, 941.525 1803.959, 944 1804.971 C 949.935 1807.400, 968.243 1811.423, 984.896 1813.960 C 995.677 1815.602, 1003.095 1815.996, 1022.896 1815.979 C 1041.861 1815.963, 1050.479 1815.519, 1060.500 1814.043 C 1077.705 1811.508, 1097.414 1807.286, 1103 1804.940 C 1105.475 1803.900, 1109.734 1802.565, 1112.464 1801.972 C 1115.194 1801.380, 1121.219 1799.119, 1125.852 1796.948 C 1130.486 1794.777, 1134.972 1793, 1135.821 1793 C 1136.671 1793, 1143.082 1789.850, 1150.069 1786 C 1157.055 1782.150, 1163.122 1779, 1163.549 1779 C 1165.039 1779, 1183.556 1767.546, 1191.189 1761.903 C 1205.276 1751.489, 1213.393 1744.604, 1225.854 1732.500 C 1237.894 1720.804, 1254.516 1701.040, 1266.543 1684.119 C 1269.819 1679.510, 1274.383 1674.078, 1276.686 1672.050 C 1285.444 1664.332, 1288.475 1662.839, 1300.245 1660.450 L 1311.500 1658.166 1322.751 1660.447 C 1334.616 1662.854, 1337.508 1664.294, 1346.677 1672.364 C 1349.178 1674.566, 1354.123 1680.222, 1357.667 1684.934 C 1361.210 1689.645, 1366.898 1696.456, 1370.305 1700.068 C 1373.712 1703.681, 1379.644 1710.382, 1383.487 1714.960 C 1393.238 1726.576, 1415.792 1746.901, 1433.737 1760.242 C 1449.695 1772.106, 1456.138 1776.388, 1470 1784.343 C 1480.380 1790.299, 1502.577 1801.488, 1506 1802.489 C 1507.375 1802.891, 1512.550 1804.926, 1517.500 1807.011 C 1522.450 1809.096, 1529.200 1811.683, 1532.500 1812.761 C 1547.667 1817.713, 1554.888 1820.022, 1559.685 1821.452 C 1566.892 1823.601, 1591.404 1827.856, 1604 1829.145 C 1610.496 1829.809, 1627.465 1830.019, 1648.500 1829.694 C 1672.766 1829.320, 1684.647 1828.743, 1690 1827.677 C 1694.125 1826.856, 1700.875 1825.638, 1705 1824.969 C 1714.814 1823.379, 1732.776 1818.161, 1744.671 1813.446 C 1748.064 1812.101, 1751.688 1811, 1752.723 1811 C 1753.759 1811, 1758.182 1809.274, 1762.553 1807.165 C 1766.924 1805.055, 1771.850 1802.995, 1773.500 1802.586 C 1778.134 1801.439, 1802.634 1788.915, 1812.720 1782.536 C 1814.492 1781.416, 1818.894 1778.700, 1822.503 1776.500 C 1850.948 1759.161, 1884.002 1728.551, 1911.107 1694.445 C 1918.534 1685.100, 1931.191 1666.526, 1934.306 1660.400 C 1935.677 1657.705, 1938.623 1652.575, 1940.854 1649 C 1948.027 1637.502, 1960.613 1611.087, 1969.918 1588 C 1973.971 1577.945, 1979.346 1560.984, 1981.100 1552.718 C 1982.125 1547.888, 1983.397 1543.128, 1983.925 1542.140 C 1985.427 1539.334, 1990.819 1511.173, 1993.238 1493.500 C 1995.204 1479.136, 1995.427 1473.206, 1995.420 1435.500 C 1995.412 1395.231, 1995.279 1392.227, 1992.180 1362.612 C 1990.402 1345.624, 1988.704 1331.330, 1988.406 1330.848 C 1988.108 1330.366, 1987.452 1323.115, 1986.949 1314.736 C 1986.046 1299.699, 1980.445 1246.779, 1979.477 1244.141 C 1979.203 1243.393, 1978.527 1235.068, 1977.974 1225.641 C 1976.819 1205.948, 1972.694 1164.739, 1970.553 1151.500 C 1969.753 1146.550, 1968.826 1137.550, 1968.495 1131.500 C 1967.691 1116.818, 1963.791 1076.878, 1961.074 1055.500 C 1958.703 1036.837, 1955.703 1006.440, 1954.857 992.500 C 1954.356 984.250, 1953.293 972.550, 1952.493 966.500 C 1951.694 960.450, 1950.323 947.625, 1949.447 938 C 1948.571 928.375, 1947.215 916.225, 1946.433 911 C 1945.651 905.775, 1945.017 898.125, 1945.023 894 C 1945.029 889.875, 1944.359 880.425, 1943.534 873 C 1942.708 865.575, 1941.105 850.050, 1939.969 838.500 C 1938.834 826.950, 1937.500 814.350, 1937.004 810.500 C 1936.508 806.650, 1936.069 799.900, 1936.027 795.500 C 1935.986 791.100, 1935.515 785.700, 1934.980 783.500 C 1933.956 779.283, 1931.613 752.728, 1930.482 732.500 C 1930.113 725.900, 1929.380 718.492, 1928.854 716.038 C 1928.327 713.584, 1927.482 705.259, 1926.976 697.538 C 1926.470 689.817, 1925.408 679.450, 1924.618 674.500 C 1923.827 669.550, 1922.667 660.100, 1922.040 653.500 C 1921.412 646.900, 1920.247 637.963, 1919.450 633.640 C 1918.652 629.316, 1918 623.386, 1918 620.461 C 1918 617.536, 1916.915 608.023, 1915.589 599.321 C 1914.263 590.620, 1912.694 580.125, 1912.101 576 C 1910.266 563.220, 1907.021 545.737, 1905.513 540.500 C 1904.721 537.750, 1902.693 529.650, 1901.008 522.500 C 1899.322 515.350, 1897.295 507.925, 1896.504 506 C 1895.713 504.075, 1894.415 500.025, 1893.619 497 C 1891.847 490.260, 1890.323 485.811, 1887.874 480.223 C 1886.843 477.871, 1886 475.499, 1886 474.952 C 1886 474.405, 1884.461 470.020, 1882.581 465.207 C 1876.678 450.101, 1859.570 414.942, 1853.528 405.500 C 1851.768 402.750, 1848.905 398.285, 1847.164 395.579 C 1845.424 392.872, 1844 390.282, 1844 389.824 C 1844 387.830, 1826.475 363.853, 1814.162 349 C 1803.090 335.645, 1780.899 313.326, 1771.799 306.394 C 1768.334 303.755, 1763.025 299.511, 1760 296.963 C 1751.076 289.448, 1733.663 277.450, 1722.188 270.911 C 1716.310 267.561, 1707.749 262.611, 1703.165 259.910 C 1698.581 257.210, 1694.352 255, 1693.767 255 C 1693.182 255, 1688.988 252.975, 1684.448 250.500 C 1679.907 248.025, 1675.337 246, 1674.292 246 C 1673.248 246, 1670.167 244.910, 1667.446 243.578 C 1659.903 239.884, 1654.991 237.927, 1649.500 236.429 C 1646.750 235.679, 1637.816 232.807, 1629.647 230.047 C 1614.652 224.982, 1591.684 219.979, 1574.500 218.035 C 1569.550 217.475, 1548.625 217.017, 1528 217.017 C 1486.838 217.017, 1476.738 217.798, 1452 222.888 C 1436.936 225.987, 1414.546 232.160, 1410.076 234.446 C 1408.659 235.171, 1405.522 236.092, 1403.105 236.494 C 1400.688 236.896, 1395.014 238.925, 1390.495 241.002 C 1385.977 243.080, 1380.849 245.094, 1379.098 245.478 C 1372.762 246.870, 1342.193 262.388, 1323.154 273.877 C 1311.662 280.812, 1295.139 292.434, 1282 302.823 C 1272.647 310.218, 1260.085 321.761, 1246.613 335.340 C 1235.125 346.918, 1222.300 360.587, 1218.113 365.716 C 1204.989 381.790, 1195.333 393.931, 1181.698 411.500 C 1167.235 430.136, 1147.463 450.714, 1134 461.140 C 1129.325 464.761, 1121.450 470.205, 1116.500 473.240 C 1108.160 478.351, 1094.428 485, 1092.210 485 C 1091.684 485, 1089.285 485.861, 1086.877 486.913 C 1084.470 487.965, 1073.050 490.746, 1061.500 493.093 C 1041.848 497.086, 1039.473 497.357, 1024.500 497.319 C 1007.983 497.276, 1005.556 496.913, 976 490.066 C 964.445 487.389, 949.243 480.980, 936.500 473.414 C 923.127 465.473, 901.149 447.493, 892.268 437.227 C 889.096 433.560, 883.983 427.846, 880.908 424.530 C 877.832 421.213, 871.244 413.100, 866.269 406.500 C 861.294 399.900, 854.462 391.125, 851.087 387 C 847.712 382.875, 841.406 374.961, 837.073 369.414 C 832.740 363.867, 824.482 354.167, 818.722 347.860 C 806.157 334.099, 782.511 311.570, 771.625 302.987 C 761.328 294.867, 738.455 278.784, 734 276.530 C 732.075 275.556, 729.823 274.168, 728.995 273.446 C 728.168 272.725, 724.343 270.509, 720.495 268.523 C 716.648 266.537, 710.125 262.922, 706 260.488 C 701.875 258.055, 696.925 255.537, 695 254.893 C 693.075 254.249, 688.125 252.041, 684 249.987 C 679.875 247.932, 674.925 245.915, 673 245.505 C 671.075 245.095, 668.150 244.045, 666.500 243.173 C 662.073 240.832, 652.676 237.010, 651.334 237.005 C 650.692 237.002, 644.167 235.024, 636.834 232.610 C 629.500 230.195, 621.250 227.527, 618.500 226.682 C 609.967 224.058, 582.065 219.106, 570 218.073 C 553.912 216.696, 521.405 216.256, 496 217.072"/>
	</g>
	<g fill="#10212B">
		<circle cx="174" cy="241.5" r="38"/>
		<circle cx="338" cy="241.5" r="38"/>
	</g>
	<path d="M 218 285.5 Q 256 311.5 294 285.5" fill="none" stroke="#10212B" stroke-width="24" stroke-linecap="round"/>
	</g>
	<path fill="#5B7680" d="M 13.34 1.044 Q 9.164 1.044 7.308 -0.174 Q 5.452 -1.392 5.046 -3.48 Q 4.64 -5.568 4.64 -7.772 L 4.64 -71.224 Q 4.64 -73.544 5.046 -75.516 Q 5.452 -77.488 7.308 -78.764 Q 9.164 -80.04 13.456 -80.04 Q 17.864 -80.04 19.662 -78.764 Q 21.46 -77.488 21.866 -75.516 Q 22.272 -73.544 22.272 -71.108 L 22.272 -7.656 Q 22.272 -5.452 21.808 -3.422 Q 21.344 -1.392 19.546 -0.174 Q 17.748 1.044 13.34 1.044 Z M 41.484 1.044 Q 37.308 1.044 35.51 -0.232 Q 33.712 -1.508 33.248 -3.538 Q 32.784 -5.568 32.784 -7.888 L 32.784 -71.34 Q 32.784 -73.544 33.248 -75.458 Q 33.712 -77.372 35.568 -78.648 Q 37.424 -79.924 41.716 -79.924 Q 44.616 -79.924 46.124 -79.576 Q 47.632 -79.228 48.328 -78.59 Q 49.024 -77.952 49.836 -77.14 L 75.936 -41.876 L 74.196 -41.876 L 100.412 -77.14 Q 101.34 -78.3 102.268 -78.88 Q 103.196 -79.46 104.646 -79.692 Q 106.096 -79.924 108.764 -79.924 Q 112.94 -79.924 114.796 -78.648 Q 116.652 -77.372 117.116 -75.342 Q 117.58 -73.312 117.58 -71.108 L 117.58 -7.656 Q 117.58 -5.452 117.116 -3.48 Q 116.652 -1.508 114.796 -0.232 Q 112.94 1.044 108.648 1.044 Q 104.472 1.044 102.616 -0.232 Q 100.76 -1.508 100.296 -3.596 Q 99.832 -5.684 99.832 -7.888 L 99.832 -49.3 L 82.548 -24.824 Q 82.084 -24.244 81.272 -23.258 Q 80.46 -22.272 79.01 -21.576 Q 77.56 -20.88 75.124 -20.88 Q 72.572 -20.88 71.122 -21.576 Q 69.672 -22.272 68.86 -23.2 Q 68.048 -24.128 67.468 -24.824 L 50.3 -49.184 L 50.3 -7.656 Q 50.3 -5.452 49.836 -3.48 Q 49.372 -1.508 47.574 -0.232 Q 45.776 1.044 41.484 1.044 Z M 136.676 1.044 Q 132.5 1.044 130.644 -0.174 Q 128.788 -1.392 128.382 -3.48 Q 127.976 -5.568 127.976 -7.772 L 127.976 -71.224 Q 127.976 -73.544 128.382 -75.516 Q 128.788 -77.488 130.644 -78.764 Q 132.5 -80.04 136.792 -80.04 Q 141.2 -80.04 142.998 -78.764 Q 144.796 -77.488 145.202 -75.516 Q 145.608 -73.544 145.608 -71.108 L 145.608 -7.656 Q 145.608 -5.452 145.144 -3.422 Q 144.68 -1.392 142.882 -0.174 Q 141.084 1.044 136.676 1.044 Z M 195.792 1.972 Q 190.688 1.972 185.004 0.348 Q 179.32 -1.276 173.868 -4.524 Q 168.416 -7.772 163.95 -12.818 Q 159.484 -17.864 156.874 -24.65 Q 154.264 -31.436 154.264 -40.136 Q 154.264 -48.488 156.874 -55.042 Q 159.484 -61.596 163.892 -66.468 Q 168.3 -71.34 173.752 -74.53 Q 179.204 -77.72 185.004 -79.286 Q 190.804 -80.852 196.024 -80.852 Q 201.94 -80.852 206.348 -79.46 Q 210.756 -78.068 213.54 -76.618 Q 216.324 -75.168 217.02 -74.588 Q 219.108 -73.312 220.964 -71.688 Q 222.82 -70.064 222.936 -67.396 Q 222.936 -66.004 222.414 -64.67 Q 221.892 -63.336 220.848 -61.828 Q 218.992 -59.16 217.31 -57.942 Q 215.628 -56.724 213.888 -56.724 Q 212.496 -56.724 211.278 -57.42 Q 210.06 -58.116 208.204 -59.276 Q 207.392 -59.856 205.884 -60.726 Q 204.376 -61.596 201.824 -62.35 Q 199.272 -63.104 195.328 -63.104 Q 191.268 -63.104 187.15 -61.654 Q 183.032 -60.204 179.552 -57.304 Q 176.072 -54.404 173.984 -49.938 Q 171.896 -45.472 171.896 -39.556 Q 171.896 -33.408 174.042 -29 Q 176.188 -24.592 179.668 -21.692 Q 183.148 -18.792 187.266 -17.342 Q 191.384 -15.892 195.328 -15.892 Q 198.808 -15.892 201.302 -16.588 Q 203.796 -17.284 205.594 -18.27 Q 207.392 -19.256 208.668 -20.068 Q 209.944 -20.88 211.278 -21.576 Q 212.612 -22.272 214.004 -22.272 Q 215.628 -22.272 217.31 -20.996 Q 218.992 -19.72 220.732 -16.936 Q 221.776 -15.428 222.356 -13.978 Q 222.936 -12.528 222.82 -11.136 Q 222.82 -8.7 220.964 -7.134 Q 219.108 -5.568 217.02 -4.292 Q 216.092 -3.828 213.424 -2.262 Q 210.756 -0.696 206.348 0.638 Q 201.94 1.972 195.792 1.972 Z" transform="translate(127.36 108.44)"/>
</svg>
