<svg xmlns="http://www.w3.org/2000/svg" viewBox="0 0 472.832 144" role="img" aria-labelledby="title desc">
	<title id="title">Network Mimo MIMIC stroked mint</title>
	<desc id="desc">Network Mimo with a mint wordmark outlined in Midnight Ink.</desc>
	<g transform="translate(8 8) scale(0.25)">
<g transform="scale(0.25)">
		<path fill="#10212B" d="M 1008 99.566 C 1006.625 99.794, 1001.900 100.439, 997.500 100.998 C 977.022 103.603, 973.012 104.303, 966 106.499 C 961.875 107.791, 954.225 110.052, 949 111.525 C 943.775 112.997, 937.925 114.971, 936 115.911 C 934.075 116.850, 927.775 119.958, 922 122.816 C 916.225 125.675, 911.050 128.013, 910.500 128.013 C 909.450 128.012, 894.726 136.808, 884.498 143.546 C 876.288 148.954, 871.468 152.696, 865.881 158 C 863.274 160.475, 857.486 165.650, 853.020 169.500 C 845.930 175.613, 834.352 188.218, 829.954 194.615 C 829.154 195.778, 826.025 199.791, 823 203.533 C 819.975 207.275, 815.401 213.973, 812.835 218.418 C 806.870 228.751, 796 250.014, 796 251.347 C 796 251.909, 795.126 254.198, 794.058 256.434 C 791.932 260.883, 789.598 267.023, 787.379 274 C 786.592 276.475, 785.244 280.525, 784.384 283 C 781.978 289.922, 779.334 302.407, 777.489 315.563 C 776.299 324.042, 775.802 334.741, 775.773 352.500 C 775.749 367.014, 776.233 380.855, 776.928 385.500 C 779.366 401.800, 782.267 415.619, 784.107 419.695 C 785.148 422.002, 786 424.642, 786 425.560 C 786 426.478, 787.841 431.340, 790.091 436.365 C 792.340 441.389, 794.746 447.327, 795.436 449.560 C 796.125 451.793, 798.510 456.743, 800.735 460.560 C 802.959 464.377, 805.510 469.075, 806.403 471 C 807.297 472.925, 810.271 477.650, 813.013 481.500 C 815.754 485.350, 819.069 490.075, 820.379 492 C 821.689 493.925, 823.984 496.625, 825.480 498 C 826.976 499.375, 829.711 502.768, 831.558 505.540 C 833.405 508.313, 838.423 513.848, 842.708 517.842 C 846.994 521.836, 852.525 527.039, 855 529.403 C 857.475 531.767, 862.650 536.282, 866.500 539.437 C 874.592 546.067, 890 561.819, 890 563.461 C 890 564.075, 890.893 566.329, 891.984 568.469 C 893.076 570.610, 894.702 576.667, 895.599 581.930 C 897.171 591.160, 897.120 594.050, 895.167 606.500 C 894.309 611.971, 890.376 622.373, 886.756 628.746 C 884.646 632.462, 873.734 644.537, 867.913 649.598 C 866.586 650.752, 862.125 653.584, 858 655.892 C 853.875 658.199, 849.825 660.476, 849 660.952 C 848.175 661.427, 843.675 663.258, 839 665.021 C 834.325 666.784, 828.830 669.076, 826.790 670.113 C 824.749 671.151, 822.148 672, 821.010 672 C 818.884 672, 809.441 675.654, 802.710 679.080 C 800.626 680.141, 796.904 681.461, 794.439 682.014 C 791.974 682.566, 783.443 686.164, 775.481 690.009 C 767.519 693.854, 760.760 697, 760.461 697 C 759.378 697, 746.463 703.252, 745 704.484 C 744.175 705.179, 741.798 706.294, 739.719 706.961 C 735.760 708.233, 727.568 712.452, 725 714.542 C 724.175 715.214, 722.375 716.086, 721 716.481 C 718.863 717.095, 708.650 723.171, 700 728.976 C 698.625 729.899, 694.350 732.396, 690.500 734.526 C 686.650 736.657, 683.345 738.773, 683.156 739.230 C 682.968 739.687, 680.718 741.166, 678.156 742.516 C 675.595 743.865, 671.700 746.270, 669.500 747.859 C 667.300 749.449, 661.450 753.606, 656.500 757.098 C 651.550 760.591, 646.628 764.247, 645.561 765.224 C 644.495 766.201, 643.298 767, 642.901 767 C 642.504 767, 639.791 768.913, 636.872 771.250 C 631.462 775.582, 618.519 784.039, 614 786.194 C 612.625 786.850, 610.792 787.972, 609.927 788.688 C 605.768 792.129, 586.768 795.906, 573.322 795.965 C 568.825 795.984, 561.625 795.529, 557.322 794.953 C 548.126 793.723, 537.481 790.465, 534.115 787.852 C 532.803 786.833, 531.150 786, 530.442 786 C 529.733 786, 527.881 784.976, 526.327 783.725 C 524.772 782.474, 522.220 780.800, 520.655 780.005 C 516.889 778.092, 502.621 764.041, 496.789 756.500 C 491.255 749.345, 480 727.766, 480 724.311 C 480 721.788, 477.606 715.185, 473.544 706.500 C 472.257 703.750, 470.744 700.150, 470.181 698.500 C 468.676 694.089, 462.613 680.057, 460.410 675.885 C 459.359 673.897, 456.838 668.947, 454.806 664.885 C 450.135 655.546, 442.071 643.109, 436.078 636 C 433.528 632.975, 429.459 627.875, 427.035 624.667 C 422.899 619.191, 400.971 598.179, 392.383 591.463 C 387.953 587.998, 378.431 581.456, 373.516 578.500 C 363.635 572.558, 341.589 560.698, 338.765 559.805 C 336.969 559.237, 333.250 557.886, 330.500 556.803 C 322.563 553.675, 307.904 549.274, 303.063 548.566 C 300.622 548.209, 294.097 546.851, 288.563 545.548 C 282.204 544.052, 271.822 542.715, 260.359 541.918 C 245.639 540.893, 239.134 540.899, 225.859 541.948 C 216.330 542.701, 203.971 544.443, 196.257 546.120 C 188.974 547.704, 181.999 549.004, 180.757 549.009 C 179.516 549.014, 174 550.621, 168.500 552.579 C 163 554.538, 156.025 556.969, 153 557.981 C 146.239 560.244, 140.340 562.975, 132.500 567.474 C 129.200 569.367, 124.925 571.711, 123 572.682 C 117.416 575.498, 96.963 589.008, 91.567 593.444 C 77.580 604.944, 58.067 625.520, 49.267 638.050 C 39.607 651.805, 34.799 659.453, 31.068 667 C 29.029 671.125, 25.894 677.200, 24.102 680.500 C 20.539 687.061, 18.899 691.283, 12.052 711.519 C 10.373 716.480, 9 721.711, 9 723.144 C 9 724.576, 8.387 727.493, 7.638 729.624 C 6.889 731.756, 5.972 736.650, 5.600 740.500 C 5.228 744.350, 4.526 750.650, 4.041 754.500 C 3.556 758.350, 2.626 767.350, 1.975 774.500 C 0.969 785.548, 1.035 789.527, 2.419 801 C 3.314 808.425, 4.502 819.225, 5.060 825 C 5.617 830.775, 6.701 837.750, 7.469 840.500 C 8.238 843.250, 9.537 847.975, 10.357 851 C 12.346 858.339, 16.442 871.433, 18.492 877 C 20.365 882.089, 33.281 907.012, 36.285 911.332 C 37.367 912.890, 39.209 915.949, 40.377 918.130 C 46.049 928.722, 67.460 954.767, 78.125 964.048 C 81.631 967.099, 86.638 971.113, 89.250 972.967 C 91.862 974.822, 94 976.653, 94 977.037 C 94 977.420, 95.687 978.904, 97.750 980.335 C 99.812 981.765, 104.650 985.189, 108.500 987.944 C 112.350 990.699, 117.402 993.843, 119.727 994.931 C 122.052 996.019, 126.327 998.399, 129.227 1000.220 C 134.700 1003.657, 140.596 1006.454, 150 1010.077 C 153.025 1011.242, 159.550 1013.770, 164.500 1015.694 C 177.442 1020.725, 187.368 1023.059, 207 1025.691 C 224.978 1028.100, 261.645 1028.091, 277.424 1025.674 C 283.432 1024.753, 289.769 1024, 291.506 1024 C 294.777 1024, 302.474 1021.948, 316.870 1017.238 C 324.630 1014.699, 326.449 1014.500, 341.870 1014.500 C 360.071 1014.500, 358.686 1014.172, 377 1022.813 C 383.884 1026.061, 392.263 1032.708, 397.584 1039.142 C 402.181 1044.702, 411 1060.005, 411 1062.424 C 411 1063.295, 411.900 1065.686, 413 1067.739 C 414.751 1071.005, 415 1073.381, 415 1086.800 C 415 1099.629, 414.687 1102.893, 413.078 1106.815 C 412.021 1109.392, 410.604 1114.650, 409.928 1118.500 C 409.252 1122.350, 407.867 1127.933, 406.849 1130.907 C 405.832 1133.880, 405 1138.186, 405 1140.475 C 405 1142.764, 404.357 1146.856, 403.572 1149.568 C 402.787 1152.281, 401.433 1160.800, 400.564 1168.500 C 399.695 1176.200, 398.211 1186.775, 397.267 1192 C 395.857 1199.805, 395.546 1207.922, 395.525 1237.500 C 395.508 1262.740, 395.873 1275.144, 396.747 1279 C 397.434 1282.025, 398.907 1291.700, 400.021 1300.500 C 401.136 1309.300, 402.512 1317.850, 403.079 1319.500 C 403.646 1321.150, 404.546 1326.262, 405.078 1330.859 C 405.611 1335.456, 406.493 1340.052, 407.038 1341.071 C 407.583 1342.090, 408.900 1347.152, 409.963 1352.319 C 411.026 1357.486, 412.545 1363.241, 413.339 1365.107 C 415.922 1371.178, 418.120 1385.745, 418.120 1396.788 C 418.120 1404.487, 417.541 1409.730, 416.104 1415.044 C 414.995 1419.145, 412.830 1424.812, 411.294 1427.638 C 409.757 1430.464, 407.304 1434.980, 405.842 1437.673 C 400.805 1446.954, 383.157 1461.478, 374.338 1463.601 C 372.777 1463.976, 369.840 1465.115, 367.812 1466.131 C 361.523 1469.280, 347.182 1470.246, 323.654 1469.106 C 300.043 1467.962, 269.152 1469.082, 260 1471.414 C 256.975 1472.185, 252.250 1473.116, 249.500 1473.482 C 246.750 1473.848, 242.250 1474.999, 239.500 1476.040 C 236.750 1477.081, 231.800 1478.590, 228.500 1479.393 C 218.388 1481.855, 212.070 1484.433, 196.483 1492.457 C 178.838 1501.541, 167.822 1508.235, 160.677 1514.214 C 157.830 1516.597, 153.700 1519.869, 151.500 1521.485 C 145.896 1525.603, 122.464 1549.342, 119.330 1554.078 C 117.902 1556.235, 116.415 1558, 116.025 1558 C 115.236 1558, 100.168 1580.795, 97.847 1585.500 C 97.034 1587.150, 95.866 1589.400, 95.251 1590.500 C 94.637 1591.600, 91.572 1597.900, 88.439 1604.500 C 85.306 1611.100, 82.183 1617.625, 81.499 1619 C 79.964 1622.088, 74.445 1641.070, 73.513 1646.465 C 73.137 1648.646, 72.202 1651.642, 71.436 1653.123 C 70.671 1654.604, 69.316 1661.594, 68.425 1668.658 C 66.155 1686.671, 66.156 1729.867, 68.428 1747.408 C 69.347 1754.508, 70.555 1761.169, 71.113 1762.211 C 71.670 1763.252, 72.726 1766.894, 73.458 1770.302 C 75.587 1780.206, 79.689 1793.428, 81.932 1797.611 C 83.069 1799.734, 84 1802.006, 84 1802.660 C 84 1803.315, 86.025 1807.919, 88.500 1812.893 C 90.975 1817.866, 93 1822.298, 93 1822.743 C 93 1823.188, 95.057 1826.857, 97.570 1830.896 C 100.084 1834.935, 102.520 1839.239, 102.985 1840.460 C 104.221 1843.712, 118.111 1862.573, 125 1870.354 C 137.702 1884.701, 161.080 1905.489, 169 1909.478 C 170.925 1910.448, 173.323 1911.974, 174.329 1912.871 C 178.566 1916.646, 212.100 1933.695, 217.102 1934.617 C 218.971 1934.962, 221.400 1935.794, 222.500 1936.467 C 226.379 1938.840, 243.580 1943.926, 250 1944.599 C 253.575 1944.973, 257.625 1945.703, 259 1946.221 C 265.778 1948.773, 278.940 1950.249, 299 1950.708 C 315.279 1951.080, 323.438 1950.814, 332.598 1949.609 C 339.251 1948.735, 346.451 1947.407, 348.598 1946.658 C 350.744 1945.910, 355.562 1944.991, 359.304 1944.616 C 366.663 1943.878, 380.267 1939.933, 385.942 1936.891 C 387.882 1935.851, 390.211 1935, 391.117 1935 C 392.023 1935, 397.283 1932.750, 402.806 1930 C 408.329 1927.250, 413.137 1925, 413.491 1925 C 413.844 1925, 415.608 1923.875, 417.411 1922.500 C 419.214 1921.125, 421.096 1919.997, 421.594 1919.994 C 422.092 1919.990, 427 1917.318, 432.500 1914.056 C 442.225 1908.287, 454.450 1898.671, 469.923 1884.619 C 477.798 1877.467, 480.088 1874.836, 492.218 1859 C 502.982 1844.948, 503.849 1843.731, 505.037 1841 C 505.635 1839.625, 508.121 1835.289, 510.562 1831.364 C 513.003 1827.439, 515 1823.788, 515 1823.250 C 515 1822.712, 517.007 1818.232, 519.460 1813.296 C 521.913 1808.360, 524.365 1802.336, 524.910 1799.910 C 525.454 1797.485, 526.564 1794.150, 527.375 1792.500 C 528.186 1790.850, 530.264 1784.325, 531.993 1778 C 533.721 1771.675, 535.794 1764.377, 536.598 1761.782 C 537.402 1759.187, 538.728 1751.537, 539.544 1744.782 C 541.037 1732.430, 544.223 1719.786, 546.546 1717 C 547.233 1716.175, 548.750 1713.450, 549.916 1710.945 C 552.790 1704.771, 561.860 1694.032, 567.163 1690.523 C 587.606 1676.997, 593.875 1674.752, 612.672 1674.228 C 623.558 1673.924, 625.723 1674.163, 633.172 1676.497 C 637.752 1677.932, 643.975 1680.393, 647 1681.965 C 650.025 1683.538, 654.750 1685.961, 657.500 1687.349 C 660.250 1688.737, 664.975 1691.695, 668 1693.922 C 671.025 1696.149, 674.850 1698.715, 676.500 1699.624 C 678.150 1700.533, 680.978 1702.565, 682.785 1704.139 C 684.591 1705.712, 686.509 1707, 687.046 1707 C 687.583 1707, 690.605 1708.747, 693.761 1710.882 C 696.918 1713.017, 701.300 1715.722, 703.500 1716.893 C 705.700 1718.064, 709.750 1720.351, 712.500 1721.976 C 715.250 1723.601, 719.300 1725.863, 721.500 1727.002 C 723.700 1728.141, 729.550 1731.295, 734.500 1734.011 C 739.450 1736.728, 745.525 1739.920, 748 1741.106 C 750.475 1742.292, 755.504 1745.003, 759.174 1747.131 C 762.845 1749.259, 766.385 1751, 767.039 1751 C 767.694 1751, 772.791 1753.194, 778.365 1755.876 C 783.939 1758.558, 790.075 1761.082, 792 1761.484 C 793.925 1761.886, 796.850 1763.032, 798.500 1764.030 C 800.150 1765.028, 803.300 1766.510, 805.500 1767.324 C 807.700 1768.137, 813.100 1770.230, 817.500 1771.975 C 821.900 1773.719, 827.750 1775.763, 830.500 1776.516 C 833.250 1777.268, 840.612 1779.711, 846.860 1781.942 C 853.109 1784.174, 859.268 1786, 860.549 1786 C 861.829 1786, 866.392 1787.094, 870.688 1788.431 C 883.305 1792.357, 896.954 1795.718, 905 1796.878 C 909.125 1797.474, 915.425 1798.648, 919 1799.489 C 926.524 1801.259, 941.585 1803.624, 954.500 1805.064 C 959.450 1805.616, 968.450 1806.840, 974.500 1807.784 C 983.568 1809.199, 992.699 1809.500, 1026.500 1809.499 C 1061.881 1809.499, 1068.577 1809.259, 1075.357 1807.749 C 1079.678 1806.787, 1085.141 1806, 1087.496 1806 C 1089.852 1806, 1095.316 1805.371, 1099.640 1804.602 C 1103.963 1803.833, 1112.675 1802.419, 1119 1801.461 C 1125.325 1800.502, 1132.178 1799.129, 1134.228 1798.411 C 1136.278 1797.692, 1140.778 1796.828, 1144.228 1796.490 C 1150.766 1795.850, 1165.548 1792.245, 1175 1788.986 C 1178.025 1787.943, 1182.525 1786.785, 1185 1786.412 C 1190.133 1785.638, 1205.495 1780.878, 1209.095 1778.945 C 1210.418 1778.235, 1213.975 1777.103, 1217 1776.430 C 1220.025 1775.756, 1224.975 1774.195, 1228 1772.961 C 1231.025 1771.727, 1236.200 1769.630, 1239.500 1768.302 C 1242.800 1766.973, 1246.733 1765.214, 1248.241 1764.392 C 1249.749 1763.570, 1253.124 1762.259, 1255.741 1761.478 C 1258.358 1760.697, 1264.550 1758.022, 1269.500 1755.532 C 1274.450 1753.042, 1279.052 1751.004, 1279.727 1751.002 C 1280.403 1751.001, 1283.328 1749.705, 1286.227 1748.123 C 1289.127 1746.540, 1292.850 1744.577, 1294.500 1743.759 C 1296.150 1742.942, 1298.850 1741.570, 1300.500 1740.711 C 1302.150 1739.851, 1307.775 1736.946, 1313 1734.256 C 1329.290 1725.868, 1338.423 1720.808, 1340.500 1719.020 C 1341.600 1718.073, 1343.271 1717.026, 1344.213 1716.695 C 1345.689 1716.174, 1356.296 1709.582, 1362.500 1705.329 C 1363.600 1704.575, 1367.425 1701.964, 1371 1699.526 C 1374.575 1697.088, 1379.519 1693.661, 1381.986 1691.910 C 1384.453 1690.159, 1388.278 1687.885, 1390.486 1686.857 C 1392.694 1685.828, 1397.346 1683.462, 1400.824 1681.598 C 1411.326 1675.970, 1417.668 1674.602, 1433.500 1674.551 C 1444.207 1674.517, 1449.029 1674.941, 1454 1676.354 C 1457.575 1677.370, 1462.075 1679.126, 1464 1680.257 C 1474.938 1686.683, 1482.148 1691.989, 1487.298 1697.404 C 1493.419 1703.839, 1501.513 1717.121, 1504.421 1725.500 C 1505.375 1728.250, 1506.970 1736.846, 1507.964 1744.603 C 1508.959 1752.360, 1510.280 1759.654, 1510.899 1760.812 C 1511.519 1761.970, 1512.732 1766.635, 1513.594 1771.180 C 1514.456 1775.724, 1516.734 1783.280, 1518.658 1787.971 C 1520.581 1792.662, 1522.557 1798.417, 1523.049 1800.759 C 1523.541 1803.102, 1525.981 1809.083, 1528.471 1814.050 C 1530.962 1819.018, 1533 1823.526, 1533 1824.068 C 1533 1825.099, 1542.278 1841.078, 1546.218 1846.833 C 1547.473 1848.666, 1550.534 1852.716, 1553.020 1855.833 C 1555.506 1858.950, 1558.380 1862.850, 1559.407 1864.500 C 1561.531 1867.915, 1565.292 1871.971, 1576 1882.392 C 1583.587 1889.775, 1600.038 1903.862, 1605.517 1907.667 C 1610.751 1911.302, 1622.397 1918.602, 1625.500 1920.194 C 1627.150 1921.040, 1632.550 1924, 1637.500 1926.771 C 1642.450 1929.543, 1648.975 1932.590, 1652 1933.543 C 1655.025 1934.496, 1659.975 1936.342, 1663 1937.645 C 1670.571 1940.905, 1680.435 1943.760, 1687 1944.589 C 1690.025 1944.972, 1693.625 1945.706, 1695 1946.222 C 1696.375 1946.738, 1702.675 1948.023, 1709 1949.077 C 1717.845 1950.552, 1725.464 1950.994, 1742 1950.991 C 1763.524 1950.988, 1777.027 1949.706, 1788.275 1946.597 C 1791.149 1945.803, 1796.200 1944.860, 1799.500 1944.502 C 1806.146 1943.780, 1820.572 1939.708, 1826 1937.021 C 1827.925 1936.068, 1830.967 1935.009, 1832.760 1934.667 C 1834.552 1934.326, 1838.602 1932.736, 1841.760 1931.135 C 1844.917 1929.533, 1849.075 1927.434, 1851 1926.469 C 1858.528 1922.696, 1874.587 1913.637, 1876.181 1912.263 C 1877.105 1911.467, 1879.228 1910.069, 1880.897 1909.157 C 1891.657 1903.280, 1920.424 1876.172, 1931.542 1861.433 C 1943.118 1846.085, 1951.254 1832.529, 1959.109 1815.500 C 1962.407 1808.350, 1965.806 1801.150, 1966.662 1799.500 C 1968.340 1796.265, 1974 1776.955, 1974 1774.464 C 1974 1773.632, 1974.896 1770.399, 1975.992 1767.282 C 1977.088 1764.164, 1978.765 1756.188, 1979.719 1749.557 C 1981.052 1740.292, 1981.445 1730.900, 1981.418 1709 C 1981.392 1688.162, 1980.932 1677.140, 1979.707 1668 C 1978.786 1661.125, 1977.125 1652.924, 1976.016 1649.775 C 1974.907 1646.626, 1974 1643.092, 1974 1641.921 C 1974 1638.760, 1969.180 1623.237, 1966.413 1617.486 C 1965.086 1614.728, 1963.993 1612.028, 1963.986 1611.486 C 1963.966 1610.151, 1951.138 1584.970, 1946.671 1577.500 C 1941.686 1569.161, 1936.522 1562.053, 1929.500 1553.864 C 1926.200 1550.016, 1922.375 1545.435, 1921 1543.684 C 1916.869 1538.423, 1899.899 1522.750, 1891.484 1516.424 C 1878.240 1506.468, 1867.715 1499.667, 1859.928 1496.034 C 1855.843 1494.128, 1851.825 1492.077, 1851 1491.477 C 1848.535 1489.683, 1836.861 1484.314, 1831.500 1482.508 C 1828.750 1481.581, 1823.512 1480.019, 1819.860 1479.036 C 1816.208 1478.054, 1811.258 1476.546, 1808.860 1475.685 C 1806.462 1474.825, 1802.250 1473.838, 1799.500 1473.492 C 1796.750 1473.146, 1792.025 1472.239, 1789 1471.477 C 1785.975 1470.715, 1774.553 1469.633, 1763.619 1469.073 C 1750.008 1468.376, 1737.027 1468.382, 1722.462 1469.093 C 1699.707 1470.204, 1684.656 1469.315, 1680.541 1466.619 C 1679.319 1465.818, 1676.543 1464.685, 1674.371 1464.100 C 1667.146 1462.154, 1659.375 1457.091, 1650.816 1448.753 C 1638.491 1436.745, 1631.549 1424.006, 1628.913 1408.563 C 1628.241 1404.620, 1627.979 1398.087, 1628.308 1393.431 C 1628.885 1385.257, 1632.894 1366.911, 1635.451 1360.750 C 1636.192 1358.962, 1637.539 1352.821, 1638.444 1347.101 C 1639.349 1341.382, 1640.461 1335.982, 1640.917 1335.101 C 1641.372 1334.221, 1642.062 1331.250, 1642.451 1328.500 C 1642.840 1325.750, 1643.991 1320.125, 1645.011 1316 C 1646.030 1311.875, 1647.361 1303.775, 1647.968 1298 C 1648.576 1292.225, 1649.814 1283.900, 1650.721 1279.500 C 1652.086 1272.874, 1652.365 1264.974, 1652.343 1233.500 C 1652.325 1208.422, 1651.928 1193.970, 1651.175 1191 C 1650.547 1188.525, 1649.113 1178.908, 1647.988 1169.629 C 1646.862 1160.351, 1645.517 1151.965, 1644.998 1150.996 C 1644.479 1150.026, 1643.575 1145.918, 1642.989 1141.866 C 1642.403 1137.815, 1641.299 1131.800, 1640.535 1128.500 C 1639.772 1125.200, 1638.619 1118.675, 1637.974 1114 C 1637.329 1109.325, 1636.171 1103.281, 1635.401 1100.568 C 1633.373 1093.431, 1633.635 1081.291, 1636 1072.757 C 1637.100 1068.788, 1638.013 1064.631, 1638.028 1063.520 C 1638.067 1060.734, 1642.966 1050.086, 1646 1046.193 C 1653.321 1036.799, 1655.211 1034.738, 1660.683 1030.184 C 1667.213 1024.750, 1670.492 1022.907, 1682.500 1017.919 C 1690.373 1014.649, 1690.748 1014.595, 1706.127 1014.548 C 1720.499 1014.504, 1722.425 1014.719, 1730.127 1017.226 C 1745.210 1022.137, 1749.121 1023.104, 1757.865 1024.084 C 1762.614 1024.617, 1767.197 1025.267, 1768.049 1025.530 C 1768.901 1025.792, 1777.186 1026.645, 1786.459 1027.423 C 1798.978 1028.475, 1806.690 1028.598, 1816.410 1027.902 C 1823.609 1027.387, 1834.126 1026.298, 1839.780 1025.483 C 1845.434 1024.667, 1851.620 1024, 1853.526 1024 C 1855.432 1024, 1859.581 1023.165, 1862.746 1022.144 C 1865.911 1021.123, 1870.300 1019.800, 1872.500 1019.205 C 1877.435 1017.868, 1889.566 1013.548, 1892.402 1012.116 C 1893.556 1011.534, 1897.650 1009.900, 1901.500 1008.486 C 1907.415 1006.312, 1914.985 1002.484, 1930.164 993.991 C 1937.228 990.038, 1950.304 980.470, 1956.500 974.721 C 1958.700 972.680, 1960.823 971.007, 1961.218 971.005 C 1961.613 971.002, 1965.369 968.006, 1969.564 964.347 C 1979.821 955.402, 1999.581 931.892, 2006.181 920.782 C 2007.907 917.877, 2010.068 914.375, 2010.984 913 C 2013.235 909.620, 2023.106 889.926, 2026.271 882.500 C 2031.216 870.898, 2032.834 866.463, 2033.567 862.500 C 2033.974 860.300, 2035.363 855.471, 2036.653 851.769 C 2037.944 848.067, 2039.005 843.567, 2039.012 841.769 C 2039.018 839.971, 2039.695 836.025, 2040.515 833 C 2042.814 824.527, 2045.301 788.504, 2044.555 774.500 C 2043.157 748.256, 2041.651 736.048, 2037.956 721 C 2036.882 716.628, 2031.688 700.007, 2029.518 694 C 2027.367 688.044, 2013.224 659.579, 2009.893 654.500 C 2003.961 645.456, 2001.806 642.306, 1998.941 638.500 C 1997.286 636.300, 1994.853 632.870, 1993.534 630.878 C 1990.243 625.906, 1964.219 599.169, 1961.059 597.513 C 1959.652 596.775, 1957.063 594.754, 1955.306 593.022 C 1951.071 588.845, 1931.502 575.734, 1924.500 572.382 C 1922.850 571.592, 1918.800 569.400, 1915.500 567.511 C 1904.176 561.029, 1902.479 560.206, 1897.994 559.022 C 1895.522 558.369, 1891.025 556.819, 1888 555.576 C 1879.632 552.140, 1869.755 549, 1867.314 549 C 1866.111 549, 1859.586 547.706, 1852.814 546.125 C 1837.753 542.610, 1811.763 540.413, 1796.282 541.348 C 1774.410 542.669, 1764.153 543.916, 1754.489 546.427 C 1749.045 547.842, 1743.646 549, 1742.492 549 C 1741.337 549, 1735.917 550.538, 1730.446 552.418 C 1724.976 554.298, 1718.250 556.607, 1715.500 557.549 C 1712.750 558.490, 1707.800 560.547, 1704.500 562.118 C 1696.871 565.750, 1679.413 575.235, 1678.326 576.338 C 1677.872 576.799, 1676.150 577.814, 1674.500 578.592 C 1671.558 579.981, 1662.974 586.059, 1651.329 595 C 1644.842 599.980, 1624.265 620.418, 1620.156 625.962 C 1618.713 627.908, 1615.432 631.975, 1612.864 635 C 1606.140 642.921, 1593.263 662.528, 1592.498 666.009 C 1592.139 667.642, 1591.407 669.249, 1590.870 669.581 C 1589.806 670.238, 1583.697 682.966, 1582.508 687 C 1582.103 688.375, 1580.923 690.903, 1579.886 692.618 C 1578.849 694.333, 1578 696.375, 1578 697.157 C 1578 697.938, 1577.070 700.360, 1575.934 702.539 C 1572.929 708.302, 1569.099 718.782, 1568.007 724.234 C 1567.485 726.837, 1565.020 732.559, 1562.529 736.949 C 1560.038 741.339, 1558 745.543, 1558 746.292 C 1558 748.610, 1547.183 762.127, 1539.148 769.852 C 1531.891 776.828, 1527.716 779.768, 1515.710 786.360 C 1507.403 790.921, 1501.108 793.109, 1492 794.601 C 1472.318 797.823, 1448.733 795.174, 1437.167 788.440 C 1432.356 785.640, 1418.014 776.527, 1414.500 774.039 C 1412.850 772.870, 1406.575 768.329, 1400.556 763.947 C 1385.558 753.030, 1373.660 744.827, 1369.918 742.824 C 1368.195 741.902, 1365.822 740.279, 1364.643 739.217 C 1363.464 738.155, 1361.150 736.630, 1359.500 735.827 C 1353.874 733.091, 1348.558 729.923, 1337.328 722.617 C 1333.384 720.050, 1328.659 717.448, 1326.828 716.834 C 1324.998 716.219, 1322.825 715.173, 1322 714.508 C 1320.501 713.299, 1311.602 708.645, 1305 705.618 C 1303.075 704.735, 1300.825 703.589, 1300 703.072 C 1299.175 702.554, 1296.025 701.027, 1293 699.678 C 1289.975 698.330, 1283.475 695.327, 1278.555 693.006 C 1263.672 685.984, 1254.264 682, 1252.568 682 C 1251.683 682, 1247.120 680.185, 1242.429 677.966 C 1237.737 675.748, 1231.219 673.246, 1227.944 672.407 C 1224.670 671.568, 1218.730 669.401, 1214.745 667.591 C 1210.760 665.781, 1205.700 663.726, 1203.500 663.024 C 1201.300 662.322, 1198.825 661.203, 1198 660.537 C 1197.175 659.871, 1193.350 657.631, 1189.500 655.559 C 1185.650 653.487, 1181.761 651.010, 1180.857 650.053 C 1179.954 649.097, 1178.154 647.456, 1176.857 646.407 C 1173.491 643.684, 1163 631.470, 1163 630.274 C 1163 629.722, 1162.144 628.181, 1161.097 626.851 C 1160.051 625.520, 1157.940 620.847, 1156.408 616.466 C 1153.996 609.572, 1153.568 606.616, 1153.223 594.500 C 1152.838 580.996, 1152.931 580.191, 1155.850 571.768 C 1157.515 566.966, 1160.367 561.160, 1162.188 558.866 C 1167.095 552.686, 1174.708 545.351, 1181.644 540.119 C 1191.341 532.805, 1212.684 512.209, 1218.865 504.200 C 1221.964 500.186, 1225.850 495.158, 1227.500 493.027 C 1238.579 478.721, 1244.827 468.698, 1250.894 455.500 C 1252.928 451.075, 1260.572 432.576, 1263.911 424 C 1267.073 415.877, 1271.732 389.957, 1273.642 369.855 C 1275.395 351.414, 1275.423 352.298, 1271.972 316.537 C 1270.776 304.134, 1266.438 282.944, 1263.905 277.123 C 1262.857 274.715, 1262 272.317, 1262 271.793 C 1262 270.582, 1257.468 259.065, 1254.370 252.404 C 1253.067 249.600, 1251.998 246.675, 1251.996 245.904 C 1251.994 245.132, 1251.032 242.925, 1249.858 241 C 1248.684 239.075, 1245.974 234.125, 1243.837 230 C 1238.684 220.057, 1232.464 210.191, 1229.444 207.171 C 1228.100 205.827, 1227 204.396, 1227 203.991 C 1227 202.565, 1210.501 181.957, 1204.500 175.887 C 1198.683 170.003, 1174.944 149.234, 1171.245 146.793 C 1169.185 145.433, 1166.211 143.461, 1164.635 142.410 C 1157.407 137.592, 1146.091 130.819, 1142 128.862 C 1139.525 127.678, 1131.200 123.675, 1123.500 119.966 C 1110.847 113.872, 1104.788 111.703, 1092.500 108.872 C 1090.300 108.365, 1086.475 107.117, 1084 106.098 C 1081.525 105.080, 1075 103.699, 1069.500 103.029 C 1064 102.360, 1057.475 101.373, 1055 100.837 C 1050.399 99.840, 1012.519 98.816, 1008 99.566"/>
		<path fill="#65E6B8" d="M 1008 147.627 C 1006.625 147.821, 1001.675 148.504, 997 149.144 C 983.696 150.964, 965.976 155.633, 957 159.682 C 953.975 161.047, 947.124 164.377, 941.775 167.082 C 936.427 169.787, 931.620 172, 931.093 172 C 930.034 172, 917.315 179.613, 909.500 184.925 C 906.750 186.794, 901.993 190.613, 898.929 193.412 C 895.866 196.210, 889.919 201.409, 885.714 204.965 C 881.510 208.522, 875.467 214.797, 872.285 218.910 C 869.103 223.024, 865.025 228.058, 863.221 230.098 C 861.418 232.137, 857.747 237.562, 855.063 242.153 C 849.267 252.067, 841.359 267.708, 838.961 274 C 838.017 276.475, 836.239 280.975, 835.009 284 C 833.779 287.025, 832.137 291.525, 831.361 294 C 830.584 296.475, 829.247 300.525, 828.391 303 C 825.155 312.350, 823.890 325.898, 823.815 352 C 823.738 379.079, 824.843 391.324, 828.074 399.185 C 829.133 401.762, 830.007 404.687, 830.016 405.685 C 830.025 406.683, 831.981 411.808, 834.363 417.073 C 836.745 422.337, 838.972 427.737, 839.312 429.073 C 840.024 431.872, 848.781 447.799, 854.271 456.279 C 856.329 459.457, 859.727 463.957, 861.824 466.279 C 863.920 468.601, 867.772 473.317, 870.384 476.760 C 872.996 480.204, 878.226 485.489, 882.006 488.504 C 885.786 491.520, 889.468 494.803, 890.189 495.798 C 890.910 496.794, 895.550 501.010, 900.500 505.167 C 916.915 518.954, 929.627 533.810, 934.833 545.292 C 937.680 551.571, 941.086 566.178, 944.139 585.205 C 945.135 591.417, 945.122 594.518, 944.068 601.205 C 941.418 618.021, 937.998 632.690, 935.080 639.750 C 929.674 652.833, 925.649 658.866, 913.024 672.812 C 904.120 682.648, 893.087 691.585, 881.728 698.162 C 871.358 704.167, 869.420 705.093, 859 709.022 C 854.325 710.784, 848.925 713.015, 847 713.978 C 845.075 714.941, 841.752 716.047, 839.615 716.435 C 837.479 716.824, 831.854 718.932, 827.115 721.122 C 822.377 723.311, 816.624 725.523, 814.331 726.038 C 812.038 726.552, 803.713 730.060, 795.831 733.835 C 787.949 737.609, 779.025 741.756, 776 743.050 C 772.975 744.344, 769.814 745.964, 768.977 746.651 C 768.139 747.338, 764.094 749.267, 759.989 750.937 C 755.884 752.608, 751.308 754.875, 749.821 755.974 C 748.334 757.074, 744.728 759.086, 741.808 760.445 C 738.889 761.805, 733.350 764.933, 729.500 767.397 C 725.650 769.860, 718.959 774.042, 714.630 776.688 C 694.237 789.157, 695.356 788.401, 672.083 805.464 C 648.789 822.543, 632.613 832.444, 622.500 835.813 C 616.101 837.945, 600.845 841.073, 587.121 843.067 C 575.900 844.698, 559.715 843.766, 543 840.527 C 520.881 836.241, 514.578 833.732, 497.433 822.395 C 475.487 807.883, 454.978 784.804, 443.193 761.357 C 439.836 754.679, 436.432 746.579, 435.629 743.357 C 433.816 736.091, 431.431 729.587, 429.494 726.631 C 428.682 725.393, 427.378 722.381, 426.595 719.940 C 422.684 707.742, 409.604 681.556, 402.590 671.884 C 391.848 657.070, 385.899 650.217, 375.555 640.742 C 369.388 635.093, 361.003 628.274, 356.921 625.589 C 352.840 622.903, 348.375 619.953, 347 619.033 C 340.755 614.853, 318.168 602.999, 316.433 602.990 C 315.370 602.985, 312.250 601.935, 309.500 600.658 C 303.358 597.805, 292.970 594.672, 282.949 592.650 C 278.796 591.812, 267.925 590.562, 258.791 589.873 C 245.332 588.856, 239.275 588.865, 226.842 589.916 C 204.955 591.767, 195.579 593.851, 173.500 601.773 C 165.649 604.590, 141.354 617.483, 131.500 624.063 C 121.530 630.720, 113.050 638.100, 102.937 648.923 C 97.264 654.994, 89.217 665.033, 85.055 671.231 C 78.016 681.714, 65.793 704.935, 61.225 716.500 C 55.051 732.134, 52.906 743.217, 50 774.500 C 48.963 785.663, 49.028 789.479, 50.458 801.500 C 51.375 809.200, 52.527 818.987, 53.018 823.249 C 53.842 830.393, 56.179 838.980, 61.114 853 C 63.441 859.613, 73.815 880.236, 78.867 888.295 C 87.163 901.527, 89.870 905.357, 97.288 914.356 C 104.777 923.440, 109.716 927.972, 126 940.699 C 134.828 947.599, 138.314 949.881, 150.902 956.999 C 159.990 962.138, 164.038 963.888, 185.500 971.962 C 200.531 977.616, 213.709 979.377, 241.500 979.444 C 258.827 979.486, 267.706 979.042, 277.500 977.642 C 284.650 976.620, 292.750 974.915, 295.500 973.851 C 298.250 972.788, 305.900 970.761, 312.500 969.347 C 320.886 967.551, 328.717 966.638, 338.500 966.318 C 351.207 965.903, 353.848 966.138, 367.093 968.867 C 381.394 971.813, 383.781 972.625, 399 979.726 C 407.737 983.802, 425.029 996.977, 431.347 1004.373 C 441.507 1016.265, 450.222 1030.495, 456.481 1045.412 C 457.383 1047.563, 459.219 1054.713, 460.561 1061.299 C 462.446 1070.556, 463 1076.392, 463 1087 C 463 1097.665, 462.448 1103.436, 460.524 1112.884 C 459.162 1119.572, 457.571 1125.932, 456.990 1127.019 C 455.428 1129.937, 449.410 1160.886, 448.049 1173 C 447.400 1178.775, 446.139 1187.325, 445.247 1192 C 443.944 1198.825, 443.612 1207.693, 443.562 1237 C 443.518 1262.738, 443.867 1275.122, 444.746 1279 C 445.432 1282.025, 446.661 1289.675, 447.479 1296 C 449.420 1311.022, 455.431 1340.694, 457.418 1345.067 C 458.276 1346.955, 460.585 1356.981, 462.549 1367.346 C 467.026 1390.974, 467.244 1401.922, 463.587 1419.500 C 462.214 1426.100, 460.401 1434.087, 459.558 1437.249 C 457.660 1444.371, 449.753 1459.607, 443.054 1469.051 C 438.734 1475.142, 425.727 1488.059, 417.835 1494.097 C 410.011 1500.082, 396.102 1508, 393.413 1508 C 392.592 1508, 390.251 1508.831, 388.210 1509.846 C 384.061 1511.911, 361.252 1516.539, 350.500 1517.497 C 346.650 1517.840, 334.275 1517.661, 323 1517.098 C 299.271 1515.915, 270.592 1517.056, 262 1519.525 C 258.975 1520.395, 253.350 1521.951, 249.500 1522.983 C 245.650 1524.015, 239.964 1525.751, 236.864 1526.841 C 230.453 1529.095, 208.713 1540.317, 199 1546.385 C 180.955 1557.661, 158.117 1580.244, 146.746 1598.059 C 142.171 1605.227, 130.538 1627.672, 126.822 1636.500 C 122.692 1646.312, 119.435 1657.299, 117.111 1669.257 C 113.382 1688.442, 113.597 1733.791, 117.495 1750.500 C 120.111 1761.714, 123.010 1771.231, 124.960 1775 C 125.956 1776.925, 127.097 1779.625, 127.497 1781 C 128.175 1783.332, 132.977 1793.976, 136.972 1802 C 140.177 1808.438, 147.409 1820.441, 151.595 1826.270 C 161.328 1839.825, 185.026 1863.265, 193.500 1867.720 C 195.150 1868.587, 197.850 1870.305, 199.500 1871.538 C 205.163 1875.769, 232.541 1889.700, 236.957 1890.598 C 238.859 1890.984, 242.802 1892.394, 245.721 1893.730 C 248.639 1895.066, 257.434 1897.572, 265.264 1899.300 C 279.136 1902.360, 280.139 1902.440, 304.500 1902.428 C 328.787 1902.416, 329.919 1902.325, 344.213 1899.247 C 352.306 1897.504, 360.633 1895.207, 362.719 1894.143 C 364.805 1893.079, 368.534 1891.667, 371.006 1891.005 C 373.478 1890.343, 379.775 1887.514, 385 1884.719 C 390.225 1881.924, 397.411 1878.093, 400.968 1876.206 C 404.526 1874.319, 409.969 1871.092, 413.065 1869.036 C 421.148 1863.667, 435.916 1851.001, 442.562 1843.737 C 450.256 1835.328, 460.768 1821.042, 465.547 1812.500 C 472.182 1800.640, 479.178 1785.793, 481.095 1779.500 C 482.101 1776.200, 484.458 1768.982, 486.332 1763.460 C 488.206 1757.938, 490.490 1748.938, 491.407 1743.460 C 496.463 1713.248, 500.157 1698.633, 503.970 1693.748 C 504.935 1692.512, 506.039 1690.497, 506.423 1689.270 C 507.358 1686.288, 516.911 1673.015, 523.754 1665.191 C 528.959 1659.241, 540.215 1649.991, 548 1645.267 C 565.487 1634.657, 569.674 1633.037, 591.388 1628.490 C 611.591 1624.258, 629.850 1625.458, 653.500 1632.571 C 662.480 1635.271, 681.905 1644.817, 690.100 1650.556 C 707.784 1662.941, 722.964 1672.383, 741 1682.217 C 750.625 1687.465, 760.525 1692.869, 763 1694.226 C 779.502 1703.272, 807.317 1716.477, 812 1717.488 C 813.925 1717.904, 817.300 1719.184, 819.500 1720.332 C 821.700 1721.480, 824.850 1722.956, 826.500 1723.611 C 828.150 1724.266, 833.100 1726.230, 837.500 1727.974 C 841.900 1729.719, 847.750 1731.757, 850.500 1732.502 C 853.250 1733.248, 859.325 1735.269, 864 1736.993 C 868.675 1738.718, 875.650 1740.786, 879.500 1741.589 C 883.350 1742.392, 888.975 1743.898, 892 1744.935 C 897.506 1746.824, 930.199 1753.560, 947.926 1756.459 C 953.111 1757.306, 959.473 1758, 962.066 1758 C 964.658 1758, 970.541 1758.782, 975.140 1759.739 C 982.305 1761.229, 989.505 1761.479, 1025.500 1761.489 C 1061.868 1761.498, 1068.554 1761.265, 1075.357 1759.750 C 1079.678 1758.787, 1085.078 1758.001, 1087.357 1758.002 C 1094.834 1758.006, 1141.314 1749.255, 1153.500 1745.550 C 1157.900 1744.212, 1166.201 1741.948, 1171.947 1740.518 C 1177.694 1739.089, 1184.444 1736.983, 1186.947 1735.840 C 1189.451 1734.697, 1193.975 1733.186, 1197 1732.483 C 1202.764 1731.144, 1207.026 1729.528, 1223.500 1722.435 C 1229 1720.067, 1234.625 1717.812, 1236 1717.424 C 1243.432 1715.328, 1308.483 1682.656, 1315.500 1677.495 C 1317.150 1676.282, 1320.300 1674.369, 1322.500 1673.246 C 1326.251 1671.330, 1345.177 1658.872, 1356.601 1650.800 C 1364.885 1644.946, 1384.956 1634.874, 1392.500 1632.785 C 1396.350 1631.719, 1404.450 1629.775, 1410.500 1628.465 C 1425.836 1625.145, 1440.679 1625.153, 1456.612 1628.490 C 1479.103 1633.200, 1482.658 1634.549, 1497 1643.815 C 1512.151 1653.603, 1522.057 1662.683, 1532.662 1676.500 C 1537.576 1682.903, 1545.911 1698.385, 1548.399 1705.732 C 1549.660 1709.454, 1551.700 1718.125, 1552.933 1725 C 1557.827 1752.297, 1560.007 1761.813, 1563.012 1769 C 1564.737 1773.125, 1566.722 1778.750, 1567.422 1781.500 C 1568.730 1786.639, 1578.146 1806.306, 1583.890 1815.898 C 1587.937 1822.656, 1597.882 1835.420, 1605.958 1844.222 C 1609.351 1847.920, 1616.716 1854.670, 1622.326 1859.222 C 1634.666 1869.238, 1636.498 1870.538, 1645.750 1875.843 C 1649.737 1878.129, 1656.037 1881.743, 1659.750 1883.873 C 1663.463 1886.003, 1668.975 1888.546, 1672 1889.525 C 1675.025 1890.503, 1680.425 1892.559, 1684 1894.094 C 1687.575 1895.628, 1697.157 1898.260, 1705.294 1899.942 C 1719.226 1902.822, 1721.380 1902.999, 1742.294 1902.982 C 1763.535 1902.965, 1765.252 1902.815, 1781.813 1899.527 C 1791.547 1897.594, 1801.559 1894.975, 1804.684 1893.544 C 1807.741 1892.145, 1811.061 1891, 1812.062 1891 C 1815.071 1891, 1842.723 1876.323, 1854.500 1868.476 C 1862.127 1863.394, 1869.295 1857.368, 1877.878 1848.823 C 1890.241 1836.514, 1897.292 1827.529, 1905.922 1813.084 C 1910.343 1805.686, 1918.040 1789.925, 1923.301 1777.500 C 1926.786 1769.271, 1931.765 1748.390, 1932.970 1736.956 C 1934.245 1724.840, 1934.264 1696.664, 1933.005 1682.500 C 1931.977 1670.931, 1929.338 1657.557, 1926.098 1647.500 C 1920.196 1629.176, 1906.079 1601.816, 1895.225 1587.663 C 1887.546 1577.650, 1866.943 1557.739, 1857 1550.721 C 1847.274 1543.857, 1821.849 1530.341, 1812 1526.799 C 1806.812 1524.933, 1801.420 1523.347, 1787.580 1519.616 C 1778.236 1517.098, 1747.088 1515.875, 1723.085 1517.084 C 1711.763 1517.654, 1699.350 1517.842, 1695.500 1517.501 C 1684.867 1516.560, 1662.968 1512.020, 1658.790 1509.891 C 1656.749 1508.851, 1654.425 1508, 1653.625 1508 C 1651.244 1508, 1636.953 1500.058, 1630.500 1495.148 C 1621.216 1488.084, 1610.335 1477.273, 1603.965 1468.781 C 1597.286 1459.878, 1591.031 1448.904, 1588.129 1441 C 1587.019 1437.975, 1584.693 1428.300, 1582.961 1419.500 C 1580.333 1406.145, 1579.901 1402.012, 1580.348 1394.500 C 1580.878 1385.613, 1585.051 1363.580, 1588.966 1349 C 1590.073 1344.875, 1592.089 1336.325, 1593.445 1330 C 1594.801 1323.675, 1596.788 1314.450, 1597.860 1309.500 C 1598.932 1304.550, 1600.116 1297.350, 1600.491 1293.500 C 1600.866 1289.650, 1601.871 1283.350, 1602.724 1279.500 C 1603.968 1273.883, 1604.286 1264.992, 1604.331 1234.500 C 1604.378 1203.179, 1604.102 1195.094, 1602.761 1188.500 C 1601.866 1184.100, 1600.849 1177.800, 1600.502 1174.500 C 1599.943 1169.185, 1596.398 1149.466, 1588.458 1107.500 C 1584.668 1087.468, 1585.008 1082.911, 1592.860 1048.480 C 1593.991 1043.519, 1596.321 1036.363, 1598.038 1032.577 C 1600.958 1026.136, 1611.494 1011.249, 1619.135 1002.765 C 1620.986 1000.710, 1626.775 995.611, 1632 991.434 C 1647.450 979.082, 1661.774 972.770, 1683.998 968.521 C 1696.548 966.122, 1700.108 965.820, 1710.498 966.280 C 1722.884 966.828, 1743.332 970.531, 1750.388 973.504 C 1755.989 975.864, 1768.131 977.837, 1786.910 979.439 C 1799.076 980.477, 1806.705 980.596, 1816.410 979.900 C 1830.482 978.890, 1849.091 976.453, 1853.676 975.020 C 1855.229 974.535, 1860.100 972.733, 1864.500 971.017 C 1868.900 969.300, 1875.650 966.743, 1879.500 965.335 C 1886.512 962.770, 1902.120 954.523, 1911.500 948.427 C 1914.250 946.640, 1922.561 940.300, 1929.969 934.339 C 1940.936 925.514, 1945.332 921.140, 1953.629 910.800 C 1959.234 903.815, 1965.198 895.715, 1966.884 892.800 C 1971.158 885.407, 1983.547 860.264, 1985.546 854.925 C 1987.707 849.155, 1991.628 835.211, 1993.398 827 C 1994.168 823.425, 1995.345 812.091, 1996.012 801.814 C 1996.950 787.370, 1996.959 779.196, 1996.055 765.814 C 1995.411 756.291, 1994.466 746.025, 1993.954 743 C 1993.040 737.590, 1988.725 722.804, 1985.500 714.026 C 1983.244 707.887, 1970.483 682.664, 1966.416 676.303 C 1954.825 658.178, 1940.147 642.149, 1923.763 629.726 C 1917.568 625.030, 1907.775 618.615, 1902 615.472 C 1896.225 612.329, 1889.475 608.510, 1887 606.985 C 1884.525 605.459, 1879.806 603.445, 1876.513 602.509 C 1873.220 601.573, 1869.229 600.136, 1867.643 599.316 C 1861.212 595.990, 1840.472 591.496, 1824.947 590.065 C 1809.355 588.628, 1798.088 588.727, 1782 590.445 C 1766.158 592.136, 1757.134 593.946, 1747.500 597.365 C 1743.650 598.731, 1738.250 600.607, 1735.500 601.535 C 1732.750 602.462, 1728.250 604.356, 1725.500 605.744 C 1715.478 610.801, 1705.413 616.247, 1701.750 618.596 C 1691.389 625.239, 1689.120 626.781, 1684.500 630.327 C 1681.750 632.437, 1675.327 638.214, 1670.227 643.164 C 1655.711 657.253, 1642.361 674.333, 1636.356 686.500 C 1634.456 690.350, 1632.041 695.075, 1630.991 697 C 1629.940 698.925, 1628.190 702.750, 1627.103 705.500 C 1626.015 708.250, 1623.479 714.325, 1621.468 719 C 1615.047 733.923, 1613.052 739.196, 1612.427 742.892 C 1612.092 744.876, 1608.851 752.575, 1605.225 760 C 1592.827 785.388, 1571.863 809.016, 1549.411 822.908 C 1541.430 827.846, 1527.874 834.599, 1522.500 836.314 C 1519.750 837.192, 1511.425 839.142, 1504 840.648 C 1492.694 842.941, 1487.900 843.391, 1474.500 843.417 C 1460.779 843.444, 1456.577 843.050, 1445 840.649 C 1427.566 837.034, 1419.666 834.604, 1414.371 831.229 C 1412.017 829.728, 1406.433 826.250, 1401.961 823.500 C 1397.490 820.750, 1386.332 813.093, 1377.166 806.484 C 1367.999 799.875, 1357.350 792.391, 1353.500 789.854 C 1340.166 781.064, 1332.484 776.240, 1329 774.469 C 1327.075 773.491, 1324.375 771.930, 1323 771.002 C 1310.991 762.890, 1311.345 763.084, 1282.773 748.939 C 1254.733 735.058, 1237.245 727.063, 1232.686 726.042 C 1230.201 725.485, 1225.017 723.448, 1221.165 721.515 C 1217.314 719.582, 1211.424 717.299, 1208.077 716.441 C 1204.729 715.584, 1198.730 713.402, 1194.745 711.593 C 1190.760 709.784, 1185.163 707.533, 1182.307 706.590 C 1179.450 705.648, 1176.075 704.087, 1174.807 703.121 C 1173.538 702.155, 1169.382 699.672, 1165.570 697.602 C 1152.566 690.542, 1140.878 680.202, 1128.707 664.990 C 1124.970 660.321, 1120.403 653.800, 1118.557 650.500 C 1114.075 642.488, 1110.751 632.195, 1107.604 616.590 C 1104.115 599.292, 1104.084 585.771, 1107.496 569.020 C 1109.814 557.640, 1113.429 545.823, 1116.168 540.672 C 1118.568 536.161, 1132.055 519.298, 1137.172 514.412 C 1140.102 511.614, 1146.100 506.586, 1150.500 503.240 C 1162.143 494.385, 1177.260 479.162, 1187.479 466 C 1192.390 459.675, 1199.017 449.832, 1202.204 444.127 C 1205.392 438.422, 1208 433.570, 1208 433.345 C 1208 433.120, 1210.200 427.663, 1212.890 421.218 C 1223.058 396.850, 1222.955 397.267, 1225.620 369.762 C 1227.251 352.931, 1227.249 351.039, 1225.585 332.762 C 1223.481 309.660, 1222.411 302.791, 1220.092 297.500 C 1219.127 295.300, 1218.005 292.150, 1217.597 290.500 C 1217.189 288.850, 1214.863 282.913, 1212.428 277.306 C 1209.993 271.699, 1208 266.686, 1208 266.164 C 1208 265.642, 1205.975 261.615, 1203.500 257.214 C 1201.025 252.813, 1199 248.962, 1199 248.656 C 1199 247.056, 1180.712 221.787, 1174.585 214.923 C 1166.775 206.172, 1146.449 188.332, 1138 182.813 C 1133.325 179.759, 1128.150 176.521, 1126.500 175.617 C 1124.850 174.714, 1122.825 173.556, 1122 173.044 C 1117.346 170.157, 1088.771 156.949, 1085.442 156.145 C 1083.274 155.622, 1077.900 154.211, 1073.500 153.010 C 1065.536 150.835, 1061.824 150.106, 1048.500 148.096 C 1042.067 147.125, 1013.845 146.798, 1008 147.627"/>
	</g>
	<g fill="#10212B">
		<circle cx="174" cy="305" r="38"/>
		<circle cx="338" cy="305" r="38"/>
	</g>
	<path d="M 218 349 Q 256 375 294 349" fill="none" stroke="#10212B" stroke-width="24" stroke-linecap="round"/>
	</g>
	<path fill="#65E6B8" stroke="#10212B" stroke-width="2.702" stroke-linejoin="round" stroke-linecap="round" paint-order="stroke fill" d="M 13.216 0.896 Q 8.288 0.896 6.16 -0.56 Q 4.032 -2.016 3.584 -4.368 Q 3.136 -6.72 3.136 -9.408 L 3.136 -67.2 Q 3.136 -69.664 3.584 -71.96 Q 4.032 -74.256 6.16 -75.768 Q 8.288 -77.28 13.44 -77.28 Q 16.912 -77.28 18.536 -76.832 Q 20.16 -76.384 20.888 -75.712 Q 21.616 -75.04 22.4 -74.144 L 45.584 -44.352 L 44.912 -44.352 L 67.984 -74.032 Q 69.104 -75.264 70.056 -75.936 Q 71.008 -76.608 72.632 -76.944 Q 74.256 -77.28 77.28 -77.28 Q 82.32 -77.28 84.448 -75.768 Q 86.576 -74.256 87.024 -71.904 Q 87.472 -69.552 87.472 -66.976 L 87.472 -9.184 Q 87.472 -6.72 87.024 -4.368 Q 86.576 -2.016 84.448 -0.56 Q 82.32 0.896 77.168 0.896 Q 72.128 0.896 70 -0.616 Q 67.872 -2.128 67.424 -4.536 Q 66.976 -6.944 66.976 -9.408 L 66.976 -41.216 L 53.872 -23.408 Q 53.424 -22.848 52.528 -21.728 Q 51.632 -20.608 49.952 -19.712 Q 48.272 -18.816 45.248 -18.816 Q 42.224 -18.816 40.488 -19.712 Q 38.752 -20.608 37.856 -21.672 Q 36.96 -22.736 36.512 -23.408 L 23.52 -41.104 L 23.52 -9.184 Q 23.52 -6.72 23.072 -4.368 Q 22.624 -2.016 20.496 -0.56 Q 18.368 0.896 13.216 0.896 Z M 104.936 1.008 Q 99.896 1.008 97.768 -0.504 Q 95.64 -2.016 95.192 -4.424 Q 94.744 -6.832 94.744 -9.296 L 94.744 -67.2 Q 94.744 -69.664 95.192 -72.016 Q 95.64 -74.368 97.768 -75.88 Q 99.896 -77.392 105.048 -77.392 Q 110.2 -77.392 112.272 -75.88 Q 114.344 -74.368 114.792 -72.016 Q 115.24 -69.664 115.24 -67.088 L 115.24 -9.184 Q 115.24 -6.72 114.792 -4.368 Q 114.344 -2.016 112.216 -0.504 Q 110.088 1.008 104.936 1.008 Z M 132.592 0.896 Q 127.664 0.896 125.536 -0.56 Q 123.408 -2.016 122.96 -4.368 Q 122.512 -6.72 122.512 -9.408 L 122.512 -67.2 Q 122.512 -69.664 122.96 -71.96 Q 123.408 -74.256 125.536 -75.768 Q 127.664 -77.28 132.816 -77.28 Q 136.288 -77.28 137.912 -76.832 Q 139.536 -76.384 140.264 -75.712 Q 140.992 -75.04 141.776 -74.144 L 164.96 -44.352 L 164.288 -44.352 L 187.36 -74.032 Q 188.48 -75.264 189.432 -75.936 Q 190.384 -76.608 192.008 -76.944 Q 193.632 -77.28 196.656 -77.28 Q 201.696 -77.28 203.824 -75.768 Q 205.952 -74.256 206.4 -71.904 Q 206.848 -69.552 206.848 -66.976 L 206.848 -9.184 Q 206.848 -6.72 206.4 -4.368 Q 205.952 -2.016 203.824 -0.56 Q 201.696 0.896 196.544 0.896 Q 191.504 0.896 189.376 -0.616 Q 187.248 -2.128 186.8 -4.536 Q 186.352 -6.944 186.352 -9.408 L 186.352 -41.216 L 173.248 -23.408 Q 172.8 -22.848 171.904 -21.728 Q 171.008 -20.608 169.328 -19.712 Q 167.648 -18.816 164.624 -18.816 Q 161.6 -18.816 159.864 -19.712 Q 158.128 -20.608 157.232 -21.672 Q 156.336 -22.736 155.888 -23.408 L 142.896 -41.104 L 142.896 -9.184 Q 142.896 -6.72 142.448 -4.368 Q 142 -2.016 139.872 -0.56 Q 137.744 0.896 132.592 0.896 Z M 224.312 1.008 Q 219.272 1.008 217.144 -0.504 Q 215.016 -2.016 214.568 -4.424 Q 214.12 -6.832 214.12 -9.296 L 214.12 -67.2 Q 214.12 -69.664 214.568 -72.016 Q 215.016 -74.368 217.144 -75.88 Q 219.272 -77.392 224.424 -77.392 Q 229.576 -77.392 231.648 -75.88 Q 233.72 -74.368 234.168 -72.016 Q 234.616 -69.664 234.616 -67.088 L 234.616 -9.184 Q 234.616 -6.72 234.168 -4.368 Q 233.72 -2.016 231.592 -0.504 Q 229.464 1.008 224.312 1.008 Z M 280.864 2.128 Q 276.496 2.128 271.12 0.728 Q 265.744 -0.672 260.312 -3.696 Q 254.88 -6.72 250.344 -11.536 Q 245.808 -16.352 243.064 -23.072 Q 240.32 -29.792 240.32 -38.64 Q 240.32 -47.152 243.064 -53.648 Q 245.808 -60.144 250.288 -64.848 Q 254.768 -69.552 260.2 -72.464 Q 265.632 -75.376 271.12 -76.776 Q 276.608 -78.176 281.2 -78.176 Q 286.912 -78.176 291.28 -76.776 Q 295.648 -75.376 298.392 -73.864 Q 301.136 -72.352 301.808 -71.904 Q 304.048 -70.448 306.008 -68.712 Q 307.968 -66.976 307.968 -64.064 Q 307.968 -62.608 307.352 -61.04 Q 306.736 -59.472 305.504 -57.792 Q 303.264 -54.656 301.304 -53.2 Q 299.344 -51.744 297.44 -51.744 Q 295.984 -51.744 294.64 -52.416 Q 293.296 -53.088 291.392 -54.32 Q 290.608 -54.88 289.376 -55.608 Q 288.144 -56.336 286.016 -56.952 Q 283.888 -57.568 280.416 -57.568 Q 277.504 -57.568 274.088 -56.504 Q 270.672 -55.44 267.648 -53.144 Q 264.624 -50.848 262.72 -47.096 Q 260.816 -43.344 260.816 -38.08 Q 260.816 -32.704 262.776 -29.008 Q 264.736 -25.312 267.76 -23.016 Q 270.784 -20.72 274.2 -19.656 Q 277.616 -18.592 280.416 -18.592 Q 283.328 -18.592 285.344 -19.096 Q 287.36 -19.6 288.984 -20.496 Q 290.608 -21.392 291.952 -22.288 Q 293.184 -23.184 294.64 -23.856 Q 296.096 -24.528 297.552 -24.528 Q 299.456 -24.528 301.36 -22.96 Q 303.264 -21.392 305.392 -18.144 Q 306.624 -16.24 307.24 -14.616 Q 307.856 -12.992 307.856 -11.648 Q 307.856 -8.848 305.896 -7.168 Q 303.936 -5.488 301.696 -4.144 Q 300.912 -3.696 298.336 -2.128 Q 295.76 -0.56 291.392 0.784 Q 287.024 2.128 280.864 2.128 Z" transform="translate(156.864 110.024)"/>
</svg>
