<svg xmlns="http://www.w3.org/2000/svg" viewBox="0 0 512 512" role="img" aria-labelledby="title desc">
	<title id="title">M-shaped Mimo</title>
	<desc id="desc">Two-color M-shaped Mimic Multiplayer mascot icon.</desc>
	<g transform="scale(0.25)">
		<path fill="#10212B" d="M 496 169.089 C 484.175 169.487, 470.900 170.273, 466.500 170.836 C 458.079 171.914, 445.108 174.365, 438.688 176.092 C 436.591 176.656, 430.684 177.747, 425.562 178.516 C 420.440 179.285, 414.730 180.564, 412.874 181.360 C 407.729 183.565, 385.202 190.942, 379 192.454 C 373.844 193.710, 369.167 195.537, 359.434 200.096 C 357.198 201.143, 354.719 202, 353.925 202 C 353.132 202, 348.514 204.025, 343.664 206.500 C 338.815 208.975, 334.319 211.018, 333.673 211.039 C 333.028 211.060, 330.025 212.635, 327 214.538 C 323.975 216.441, 320.150 218.676, 318.500 219.504 C 316.850 220.332, 311.450 223.465, 306.500 226.467 C 301.550 229.468, 295.475 233.021, 293 234.361 C 290.525 235.702, 286.842 238.081, 284.815 239.649 C 282.788 241.217, 277.849 244.750, 273.838 247.500 C 269.827 250.250, 264.735 254.124, 262.523 256.108 C 260.310 258.092, 257.375 260.301, 256 261.017 C 254.625 261.732, 252.905 263.156, 252.178 264.180 C 251.451 265.205, 248.483 267.796, 245.582 269.940 C 240.101 273.988, 222.642 290.174, 215.313 298 C 207.016 306.860, 192.374 323.624, 186.927 330.500 C 176.365 343.834, 171.287 350.596, 170 353.042 C 169.289 354.394, 167.358 357.052, 165.709 358.949 C 164.060 360.846, 161.863 364.315, 160.827 366.658 C 159.791 369, 158.543 371.164, 158.054 371.466 C 156.281 372.563, 142.921 395.920, 134.013 413.500 C 128.996 423.400, 123.297 435.550, 121.348 440.500 C 119.399 445.450, 117.438 449.950, 116.989 450.500 C 116.540 451.050, 114.324 457.091, 112.065 463.924 C 109.805 470.757, 107.568 476.832, 107.094 477.424 C 106.619 478.016, 105.751 480.525, 105.164 483 C 102.074 496.037, 98.920 507.728, 98.014 509.500 C 97.452 510.600, 96.546 513.916, 95.999 516.870 C 95.453 519.823, 94.105 525.158, 93.003 528.725 C 91.901 532.292, 91 536.457, 91 537.980 C 91 539.503, 90.351 542.587, 89.558 544.834 C 88.766 547.082, 87.637 553.551, 87.050 559.210 C 86.463 564.870, 85.296 573.775, 84.455 579 C 83.614 584.225, 82.517 593.450, 82.017 599.500 C 81.517 605.550, 80.688 611.883, 80.174 613.573 C 79.661 615.263, 78.931 621.338, 78.553 627.073 C 77.585 641.735, 75.109 666.483, 73.964 672.934 C 73.434 675.922, 72.985 681.772, 72.967 685.934 C 72.949 690.095, 72.529 696.425, 72.033 700 C 70.082 714.061, 69.090 723.070, 68.012 736.500 C 67.395 744.200, 66.239 756.176, 65.445 763.112 C 64.650 770.049, 63.980 780.399, 63.956 786.112 C 63.914 795.954, 63.531 800.332, 61.163 818 C 60.610 822.125, 59.649 831.800, 59.026 839.500 C 58.403 847.200, 57.264 858.675, 56.496 865 C 55.727 871.325, 54.864 882.350, 54.578 889.500 C 54.292 896.650, 53.627 904.975, 53.101 908 C 52.575 911.025, 51.418 921.375, 50.530 931 C 49.641 940.625, 48.257 953, 47.454 958.500 C 46.651 964, 45.995 971.496, 45.997 975.158 C 45.999 978.820, 45.343 987.145, 44.541 993.658 C 43.738 1000.171, 42.388 1011.144, 41.541 1018.043 C 40.693 1024.941, 40 1033.317, 40 1036.656 C 40 1039.995, 39.521 1045.151, 38.936 1048.114 C 38.350 1051.076, 37.234 1059.800, 36.456 1067.500 C 35.677 1075.200, 34.376 1087.350, 33.565 1094.500 C 32.754 1101.650, 31.830 1112.675, 31.513 1119 C 31.196 1125.325, 30.282 1135.450, 29.482 1141.500 C 28.681 1147.550, 27.560 1157.225, 26.991 1163 C 26.421 1168.775, 25.301 1179.711, 24.502 1187.302 C 23.704 1194.893, 22.783 1206.593, 22.456 1213.302 C 22.129 1220.011, 21.412 1227.750, 20.863 1230.500 C 19.892 1235.360, 18.034 1251.600, 16 1273 C 15.451 1278.775, 14.555 1287.325, 14.009 1292 C 13.462 1296.675, 13.001 1303.875, 12.984 1308 C 12.966 1312.125, 12.513 1317.300, 11.976 1319.500 C 11.439 1321.700, 10.567 1327.775, 10.038 1333 C 5.971 1373.196, 4.933 1384.321, 4.020 1397.500 C 3.449 1405.750, 2.476 1414.525, 1.859 1417 C 1.242 1419.475, 0.544 1428.025, 0.308 1436 C -0.023 1447.181, 0.244 1451.873, 1.473 1456.500 C 2.350 1459.800, 3.513 1468.800, 4.058 1476.500 C 5.609 1498.398, 8.638 1520.146, 11.510 1530 C 12.231 1532.475, 13.087 1537.200, 13.412 1540.500 C 13.737 1543.800, 15.604 1551.900, 17.561 1558.500 C 19.519 1565.100, 21.552 1572.750, 22.081 1575.500 C 23.041 1580.498, 27.096 1592.283, 29.479 1597 C 30.174 1598.375, 31.042 1601.171, 31.409 1603.213 C 32.098 1607.045, 33.595 1610.693, 42.810 1631 C 44.433 1634.575, 46.078 1638.542, 46.468 1639.815 C 46.857 1641.088, 48.936 1645.183, 51.088 1648.915 C 53.240 1652.647, 55.003 1656.330, 55.007 1657.100 C 55.010 1657.870, 57.035 1661.636, 59.507 1665.470 C 61.978 1669.303, 64 1672.870, 64 1673.396 C 64 1673.923, 65.951 1677.311, 68.335 1680.927 C 77.241 1694.433, 75.525 1691.869, 85.527 1706.615 C 92.477 1716.859, 100.728 1727.261, 115.877 1744.875 C 121.458 1751.364, 146.118 1775.900, 152.746 1781.559 C 161.881 1789.358, 185.546 1807.601, 191 1811.048 C 194.025 1812.960, 197.208 1814.968, 198.073 1815.512 C 198.938 1816.055, 201.863 1817.928, 204.573 1819.673 C 216.891 1827.605, 231.184 1835.820, 234.956 1837.134 C 236.851 1837.795, 240.967 1839.786, 244.102 1841.558 C 247.237 1843.330, 251.534 1845.310, 253.651 1845.957 C 257.258 1847.061, 266.044 1850.862, 270.458 1853.228 C 271.536 1853.805, 274.686 1854.872, 277.458 1855.599 C 283.795 1857.261, 306.396 1864.722, 310.813 1866.611 C 312.636 1867.390, 317.361 1868.493, 321.313 1869.062 C 325.266 1869.631, 331.425 1870.719, 335 1871.480 C 338.575 1872.240, 343.750 1873.146, 346.500 1873.491 C 349.250 1873.837, 355.100 1874.880, 359.500 1875.809 C 366.266 1877.238, 373.748 1877.495, 408 1877.477 C 445.316 1877.457, 449.561 1877.278, 462 1875.199 C 487.405 1870.954, 502.136 1867.954, 509.500 1865.525 C 512.250 1864.618, 518.550 1862.524, 523.500 1860.872 C 528.450 1859.220, 535.200 1857.053, 538.500 1856.057 C 541.800 1855.061, 548.609 1852.390, 553.632 1850.123 C 558.655 1847.855, 563.286 1846, 563.924 1846 C 565.552 1846, 577.749 1840.215, 578.424 1839.122 C 578.731 1838.627, 580.218 1837.911, 581.730 1837.532 C 583.243 1837.152, 588.875 1834.290, 594.248 1831.171 C 599.620 1828.052, 605.399 1824.751, 607.090 1823.836 C 608.781 1822.921, 612.940 1820.394, 616.333 1818.221 C 619.725 1816.048, 623.625 1813.699, 625 1813.001 C 626.375 1812.303, 630.650 1809.206, 634.500 1806.119 C 638.350 1803.033, 643.358 1799.156, 645.629 1797.504 C 658.826 1787.904, 666.188 1781.499, 681 1766.735 C 698.644 1749.147, 716.151 1729.491, 725.742 1716.500 C 728.991 1712.100, 732.440 1707.851, 733.408 1707.058 C 735.728 1705.157, 737.449 1706.291, 741.958 1712.693 C 746.966 1719.803, 757.196 1733.069, 766.165 1744.085 C 776.266 1756.492, 800.018 1779.605, 812.322 1789 C 817.725 1793.125, 824.475 1798.319, 827.322 1800.542 C 836.862 1807.988, 855.933 1819.850, 868 1825.843 C 872.675 1828.164, 879.351 1831.624, 882.835 1833.532 C 886.319 1835.439, 889.834 1837, 890.646 1837 C 891.458 1837, 895.987 1838.819, 900.711 1841.043 C 905.435 1843.266, 911.595 1845.541, 914.400 1846.097 C 917.205 1846.654, 921.075 1847.767, 923 1848.570 C 928.492 1850.862, 939.796 1853.995, 948 1855.499 C 952.125 1856.255, 959.775 1857.768, 965 1858.862 C 970.225 1859.955, 980.575 1861.607, 988 1862.533 C 998.663 1863.863, 1006.963 1864.121, 1027.500 1863.759 C 1053.978 1863.293, 1072.859 1861.509, 1084.455 1858.379 C 1087.780 1857.481, 1093.875 1856.168, 1098 1855.460 C 1107.049 1853.908, 1120.416 1850.347, 1123.938 1848.550 C 1125.347 1847.831, 1128.929 1846.729, 1131.898 1846.100 C 1134.866 1845.472, 1141.116 1843.167, 1145.786 1840.979 C 1150.456 1838.790, 1154.904 1837, 1155.670 1837 C 1157.306 1837, 1178.781 1826.163, 1179.523 1824.963 C 1179.801 1824.514, 1181.709 1823.595, 1183.764 1822.921 C 1185.819 1822.247, 1190.249 1819.964, 1193.608 1817.848 C 1196.967 1815.731, 1199.975 1814, 1200.292 1814 C 1201.509 1814, 1226.725 1795.990, 1233.104 1790.565 C 1235.086 1788.879, 1238.415 1786.150, 1240.502 1784.500 C 1248.423 1778.237, 1251.859 1775.025, 1264.089 1762.447 C 1275.387 1750.829, 1284.849 1739.940, 1293.513 1728.586 C 1295.156 1726.434, 1298.075 1722.608, 1300 1720.086 C 1301.925 1717.563, 1304.759 1713.564, 1306.297 1711.200 C 1307.835 1708.836, 1309.753 1706.648, 1310.560 1706.339 C 1311.366 1706.029, 1312.766 1706.389, 1313.672 1707.138 C 1314.577 1707.887, 1318.190 1712.325, 1321.700 1717 C 1325.210 1721.675, 1330.726 1728.425, 1333.957 1732 C 1337.189 1735.575, 1344.687 1743.900, 1350.621 1750.500 C 1356.554 1757.100, 1363.279 1764.075, 1365.565 1766 C 1367.851 1767.925, 1374.240 1773.550, 1379.762 1778.500 C 1392.228 1789.673, 1397.124 1793.696, 1403.500 1798.005 C 1406.250 1799.864, 1409.088 1802.198, 1409.807 1803.192 C 1410.525 1804.186, 1411.575 1805, 1412.138 1805 C 1412.702 1805, 1415.039 1806.519, 1417.332 1808.375 C 1419.624 1810.232, 1423.042 1812.535, 1424.927 1813.493 C 1426.812 1814.451, 1430.412 1816.666, 1432.927 1818.415 C 1435.442 1820.164, 1442.450 1824.406, 1448.500 1827.841 C 1454.550 1831.276, 1460.175 1834.479, 1461 1834.959 C 1464.696 1837.110, 1483.748 1845.942, 1486 1846.547 C 1487.375 1846.917, 1492.550 1848.926, 1497.500 1851.011 C 1502.450 1853.096, 1509.200 1855.683, 1512.500 1856.761 C 1515.800 1857.838, 1522.325 1859.960, 1527 1861.475 C 1531.675 1862.991, 1537.525 1864.898, 1540 1865.714 C 1542.475 1866.530, 1547.875 1867.859, 1552 1868.667 C 1556.125 1869.475, 1562.650 1870.769, 1566.500 1871.543 C 1570.350 1872.316, 1575.750 1873.213, 1578.500 1873.534 C 1581.250 1873.856, 1587.100 1874.880, 1591.500 1875.810 C 1598.281 1877.243, 1605.746 1877.495, 1640.500 1877.470 C 1674.705 1877.444, 1682.826 1877.165, 1689.500 1875.782 C 1693.900 1874.870, 1700.200 1873.811, 1703.500 1873.428 C 1706.800 1873.045, 1710.470 1872.370, 1711.656 1871.927 C 1712.841 1871.484, 1717.550 1870.609, 1722.120 1869.984 C 1726.689 1869.358, 1733.594 1867.805, 1737.464 1866.532 C 1741.334 1865.259, 1747.650 1863.244, 1751.500 1862.055 C 1755.350 1860.866, 1761.277 1858.792, 1764.671 1857.446 C 1768.064 1856.101, 1771.795 1855, 1772.962 1855 C 1774.128 1855, 1778.696 1853.229, 1783.113 1851.064 C 1787.530 1848.899, 1792.441 1846.842, 1794.025 1846.494 C 1797.210 1845.795, 1820.091 1834.305, 1829.500 1828.680 C 1832.800 1826.707, 1837.281 1824.115, 1839.458 1822.920 C 1843.315 1820.803, 1846.855 1818.513, 1859.802 1809.760 C 1865.797 1805.708, 1875.322 1798.222, 1892.376 1784.159 C 1908.147 1771.154, 1931.193 1746.622, 1950.301 1722.500 C 1958.478 1712.178, 1972.742 1691.235, 1977.231 1682.962 C 1982.149 1673.897, 1985.148 1668.748, 1986.527 1667 C 1990.064 1662.516, 2004.335 1631.777, 2013.918 1608 C 2017.296 1599.620, 2023.283 1581.532, 2024.676 1575.500 C 2026.781 1566.382, 2027.550 1563.414, 2030.834 1551.710 C 2032.500 1545.775, 2034.351 1536.895, 2034.949 1531.977 C 2035.548 1527.058, 2036.479 1521.872, 2037.018 1520.452 C 2037.558 1519.032, 2039.222 1508.787, 2040.716 1497.685 C 2043.310 1478.412, 2043.432 1475.602, 2043.422 1435.500 C 2043.412 1395.239, 2043.278 1392.221, 2040.180 1362.612 C 2038.402 1345.624, 2036.704 1331.330, 2036.406 1330.848 C 2036.108 1330.366, 2035.452 1323.115, 2034.949 1314.736 C 2034.046 1299.699, 2028.445 1246.779, 2027.477 1244.141 C 2027.203 1243.393, 2026.527 1235.068, 2025.974 1225.641 C 2024.819 1205.948, 2020.694 1164.739, 2018.553 1151.500 C 2017.753 1146.550, 2016.826 1137.550, 2016.495 1131.500 C 2015.691 1116.818, 2011.791 1076.878, 2009.074 1055.500 C 2006.703 1036.837, 2003.703 1006.440, 2002.857 992.500 C 2002.356 984.250, 2001.293 972.550, 2000.493 966.500 C 1999.694 960.450, 1998.323 947.625, 1997.447 938 C 1996.571 928.375, 1995.215 916.225, 1994.433 911 C 1993.651 905.775, 1993.017 898.125, 1993.023 894 C 1993.029 889.875, 1992.359 880.425, 1991.534 873 C 1990.708 865.575, 1989.105 850.050, 1987.969 838.500 C 1986.834 826.950, 1985.500 814.350, 1985.004 810.500 C 1984.508 806.650, 1984.069 799.900, 1984.027 795.500 C 1983.986 791.100, 1983.515 785.700, 1982.980 783.500 C 1981.956 779.283, 1979.613 752.728, 1978.482 732.500 C 1978.113 725.900, 1977.380 718.492, 1976.854 716.038 C 1976.327 713.584, 1975.482 705.259, 1974.976 697.538 C 1974.470 689.817, 1973.408 679.450, 1972.618 674.500 C 1971.827 669.550, 1970.667 660.100, 1970.040 653.500 C 1969.412 646.900, 1968.247 637.963, 1967.450 633.640 C 1966.652 629.316, 1966 623.373, 1966 620.433 C 1966 617.493, 1964.915 608.205, 1963.588 599.794 C 1962.261 591.382, 1960.878 581.350, 1960.515 577.500 C 1960.152 573.650, 1959.212 567.960, 1958.427 564.856 C 1957.642 561.751, 1956.999 557.701, 1956.999 555.856 C 1956.998 554.010, 1955.924 548, 1954.613 542.500 C 1953.301 537, 1951.908 530.250, 1951.515 527.500 C 1951.123 524.750, 1950.350 521.654, 1949.797 520.621 C 1948.841 518.834, 1944.933 503.109, 1942.835 492.606 C 1942.297 489.914, 1941.265 486.764, 1940.541 485.606 C 1939.817 484.448, 1938.664 481.025, 1937.978 478 C 1937.293 474.975, 1936.117 471.285, 1935.366 469.800 C 1934.615 468.314, 1934 466.272, 1934 465.261 C 1934 464.250, 1933.100 461.658, 1932 459.500 C 1930.900 457.342, 1930 455.213, 1930 454.767 C 1930 453.350, 1922.959 435.876, 1918.823 427.030 C 1907.050 401.847, 1897.311 383.606, 1889.865 372.790 C 1888.839 371.300, 1888 369.694, 1888 369.220 C 1888 368.333, 1879.479 355.144, 1874.925 348.984 C 1873.509 347.068, 1869.705 341.900, 1866.471 337.500 C 1855.568 322.661, 1840.692 305.585, 1825.053 289.957 C 1816.499 281.409, 1806.965 272.546, 1803.867 270.262 C 1800.769 267.978, 1796.944 264.913, 1795.367 263.451 C 1792.038 260.363, 1782.713 253.231, 1774.512 247.500 C 1771.364 245.300, 1766.249 241.686, 1763.144 239.468 C 1760.040 237.251, 1755.700 234.377, 1753.500 233.082 C 1745.758 228.526, 1742.466 226.644, 1739 224.794 C 1737.075 223.766, 1733.475 221.613, 1731 220.009 C 1728.525 218.405, 1723.575 215.672, 1720 213.936 C 1716.425 212.200, 1709.623 208.805, 1704.885 206.390 C 1700.147 203.976, 1695.422 201.997, 1694.385 201.994 C 1693.348 201.990, 1691.150 201.260, 1689.500 200.370 C 1684.828 197.851, 1675.007 193.962, 1669.500 192.450 C 1666.750 191.694, 1656.625 188.416, 1647 185.163 C 1637.375 181.911, 1627.475 178.958, 1625 178.602 C 1620.564 177.963, 1606.180 175.229, 1592.500 172.423 C 1579.556 169.768, 1565.114 169, 1528.211 169.002 C 1502.644 169.003, 1487.197 169.458, 1477.325 170.498 C 1469.528 171.320, 1461.961 172.444, 1460.510 172.996 C 1459.058 173.548, 1456.709 174, 1455.289 174 C 1453.870 174, 1448.837 174.876, 1444.104 175.947 C 1439.372 177.018, 1431.900 178.555, 1427.500 179.363 C 1423.100 180.171, 1417.475 181.515, 1415 182.351 C 1400.819 187.137, 1387.820 191.222, 1383 192.408 C 1377.734 193.704, 1370.327 196.596, 1365 199.436 C 1363.625 200.169, 1360.925 201.106, 1359 201.517 C 1355.639 202.236, 1343.138 207.861, 1330.500 214.343 C 1323.658 217.853, 1320.667 219.510, 1308.566 226.500 C 1303.805 229.250, 1298.243 232.400, 1296.205 233.500 C 1292.542 235.478, 1291.345 236.267, 1278.877 244.932 C 1268.572 252.095, 1255.695 261.723, 1253 264.281 C 1251.625 265.586, 1248.250 268.406, 1245.500 270.547 C 1238.465 276.024, 1232.933 280.955, 1222 291.497 C 1209.478 303.570, 1193.675 320.128, 1186.017 329.200 C 1182.628 333.215, 1179.042 337.407, 1178.048 338.516 C 1175.424 341.443, 1162.080 358.169, 1158.050 363.582 C 1156.153 366.131, 1153.437 369.461, 1152.016 370.983 C 1150.594 372.505, 1148.225 375.493, 1146.750 377.625 C 1142.772 383.373, 1135.222 392.894, 1129 400.007 C 1120.346 409.900, 1103.301 424.666, 1094 430.327 C 1085.201 435.682, 1074.468 440.923, 1072.200 440.972 C 1071.486 440.987, 1069.542 441.703, 1067.881 442.562 C 1063.176 444.994, 1042.919 448.839, 1031.151 449.533 C 1025.263 449.880, 1016.922 449.688, 1012.500 449.102 C 1001.272 447.617, 987.096 444.293, 984.370 442.507 C 983.105 441.678, 981.548 441, 980.910 441 C 979.162 441, 967.824 435.854, 965.194 433.867 C 963.926 432.908, 961.001 431.210, 958.694 430.093 C 953.557 427.606, 939.655 416.582, 932.092 409 C 924.231 401.118, 911.493 386.500, 905 377.909 C 896.646 366.855, 886.667 354.073, 882.040 348.500 C 879.757 345.750, 873.494 338.100, 868.123 331.500 C 844.664 302.677, 806.637 267.031, 781 249.833 C 777.975 247.804, 772.350 243.863, 768.500 241.075 C 764.650 238.287, 759.637 235.142, 757.360 234.086 C 755.083 233.030, 752.920 231.680, 752.553 231.086 C 752.186 230.491, 748.874 228.558, 745.193 226.789 C 741.512 225.020, 737.094 222.625, 735.376 221.467 C 732.365 219.437, 722.926 214.691, 705 206.193 C 700.325 203.977, 694.925 201.850, 693 201.467 C 691.075 201.083, 689.023 200.387, 688.440 199.920 C 687.070 198.822, 672.811 193.006, 671.500 193.010 C 670.126 193.015, 639.285 183.147, 635.187 181.391 C 633.364 180.611, 628.639 179.488, 624.687 178.898 C 620.734 178.307, 614.575 177.199, 611 176.435 C 607.425 175.672, 602.475 174.765, 600 174.420 C 597.525 174.075, 593.025 173.201, 590 172.478 C 577.121 169.402, 533.482 167.829, 496 169.089"/>
		<path fill="#65E6B8" d="M 506.500 276.636 C 504.850 276.820, 499.225 277.637, 494 278.449 C 488.775 279.262, 480 280.400, 474.500 280.978 C 460.020 282.500, 443.889 285.397, 441 286.994 C 439.625 287.754, 435.800 288.944, 432.500 289.638 C 422.753 291.687, 411.952 295.058, 408.613 297.094 C 406.901 298.138, 404.928 298.994, 404.230 298.996 C 403.531 298.998, 399.153 300.800, 394.500 303 C 389.847 305.200, 385.694 307.004, 385.270 307.009 C 384.343 307.019, 362.539 317.929, 359 320.154 C 355.266 322.500, 339.393 332.991, 333.346 337.108 C 328.470 340.428, 324.140 343.799, 312 353.722 C 304.406 359.930, 280.897 384.179, 273.500 393.434 C 269.650 398.251, 265.784 402.977, 264.909 403.937 C 264.034 404.897, 261.655 408.187, 259.623 411.248 C 257.591 414.309, 255.270 417.361, 254.464 418.029 C 253.659 418.698, 253 419.823, 253 420.530 C 253 421.237, 249.738 426.710, 245.750 432.694 C 239.199 442.524, 236.360 447.518, 233.071 455 C 232.467 456.375, 230.704 459.532, 229.154 462.015 C 227.603 464.498, 226.031 467.741, 225.659 469.221 C 225.288 470.702, 222.040 478.065, 218.442 485.584 C 214.844 493.103, 211.504 501.335, 211.021 503.877 C 210.538 506.420, 208.520 513.058, 206.537 518.629 C 204.555 524.201, 202.292 532.751, 201.508 537.629 C 200.725 542.508, 198.730 551.450, 197.074 557.500 C 195.086 564.766, 193.715 572.913, 193.034 581.500 C 192.022 594.253, 191.101 602.394, 187.038 634.500 C 185.924 643.300, 184.551 657.070, 183.986 665.101 C 183.420 673.132, 182.283 682.807, 181.458 686.601 C 180.632 690.395, 179.505 702.050, 178.952 712.500 C 178.400 722.950, 177.308 736.450, 176.527 742.500 C 175.745 748.550, 174.819 757.775, 174.468 763 C 174.117 768.225, 173.199 775.650, 172.429 779.500 C 171.658 783.350, 170.565 795.275, 169.999 806 C 169.434 816.725, 168.324 830.900, 167.533 837.500 C 166.741 844.100, 165.807 852.875, 165.456 857 C 165.105 861.125, 163.997 869.675, 162.994 876 C 161.991 882.325, 160.885 895.150, 160.535 904.500 C 160.185 913.850, 159.469 924.274, 158.944 927.664 C 158.419 931.054, 157.300 940.698, 156.458 949.096 C 155.616 957.493, 154.519 966.195, 154.020 968.432 C 153.520 970.669, 152.624 980.150, 152.028 989.500 C 151.004 1005.550, 149.710 1016.042, 148.516 1017.974 C 148.224 1018.446, 147.312 1029.042, 146.488 1041.520 C 145.664 1053.998, 144.810 1064.498, 144.591 1064.853 C 144.371 1065.209, 143.691 1072.475, 143.079 1081 C 142.468 1089.525, 141.106 1101.900, 140.054 1108.500 C 139.002 1115.100, 137.637 1128.924, 137.020 1139.220 C 136.403 1149.516, 135.486 1160.541, 134.981 1163.720 C 134.477 1166.899, 133.592 1175.575, 133.015 1183 C 132.438 1190.425, 131.327 1199.650, 130.546 1203.500 C 129.765 1207.350, 128.866 1215.675, 128.549 1222 C 128.233 1228.325, 127.113 1238.900, 126.061 1245.500 C 125.009 1252.100, 123.678 1263.575, 123.103 1271 C 122.527 1278.425, 121.618 1289, 121.082 1294.500 C 120.546 1300, 119.604 1310.661, 118.989 1318.191 C 118.374 1325.722, 117.461 1333.372, 116.960 1335.191 C 116.459 1337.011, 115.374 1346.600, 114.548 1356.500 C 113.723 1366.400, 112.489 1379.900, 111.806 1386.500 C 111.045 1393.865, 110.580 1412.984, 110.603 1436 C 110.636 1468.886, 110.912 1475.530, 112.848 1490 C 114.062 1499.075, 115.936 1509.200, 117.011 1512.500 C 118.086 1515.800, 119.382 1521.425, 119.891 1525 C 120.400 1528.575, 121.308 1532.767, 121.908 1534.315 C 122.509 1535.863, 123 1538.057, 123 1539.190 C 123 1540.323, 124.053 1543.781, 125.341 1546.875 C 126.628 1549.969, 128.383 1554.525, 129.241 1557 C 133.153 1568.290, 137.259 1578.916, 139.480 1583.500 C 140.812 1586.250, 143.150 1591.425, 144.676 1595 C 147.446 1601.492, 150.504 1607.046, 156.529 1616.526 C 158.286 1619.290, 160.060 1622.614, 160.472 1623.912 C 160.884 1625.211, 162.772 1628.304, 164.667 1630.787 C 166.562 1633.270, 169.006 1636.921, 170.097 1638.901 C 172.206 1642.728, 173.620 1644.738, 181.432 1655.013 C 187.412 1662.877, 192.970 1669.535, 196.712 1673.317 C 200.276 1676.917, 201.609 1678.346, 206.500 1683.812 C 211.639 1689.554, 229.539 1705.155, 236.287 1709.773 C 239.154 1711.735, 243.805 1715.176, 246.622 1717.420 C 252.930 1722.445, 262.053 1728.294, 271.350 1733.274 C 275.225 1735.350, 279.094 1737.677, 279.948 1738.446 C 280.802 1739.215, 282.850 1740.166, 284.500 1740.560 C 286.150 1740.954, 287.950 1741.603, 288.500 1742.004 C 289.050 1742.404, 293.325 1744.398, 298 1746.433 C 302.675 1748.469, 308.075 1750.946, 310 1751.938 C 313.905 1753.950, 325.371 1757.484, 331.500 1758.565 C 333.700 1758.953, 337.167 1760.108, 339.205 1761.132 C 341.242 1762.156, 346.192 1763.453, 350.205 1764.013 C 354.217 1764.573, 359.975 1765.478, 363 1766.023 C 366.025 1766.569, 377.275 1767.693, 388 1768.520 C 403.628 1769.726, 410.578 1769.810, 423 1768.944 C 450.037 1767.058, 469.182 1764.309, 480.596 1760.674 C 484.943 1759.289, 491.425 1757.376, 495 1756.421 C 502.185 1754.502, 511.292 1750.862, 523.627 1744.977 C 528.096 1742.845, 533.046 1740.781, 534.627 1740.391 C 536.207 1740.002, 538.850 1738.681, 540.500 1737.456 C 542.150 1736.231, 545.406 1734.271, 547.735 1733.101 C 551.636 1731.142, 565.471 1722.233, 571.962 1717.500 C 580.948 1710.947, 589.783 1703.922, 591.619 1701.869 C 592.785 1700.566, 596.356 1697.250, 599.557 1694.500 C 607.881 1687.347, 609.940 1685.290, 616.052 1678.019 C 619.048 1674.455, 622.850 1670.209, 624.500 1668.584 C 627.728 1665.405, 635.294 1655.238, 639.751 1648.091 C 641.263 1645.665, 643.737 1642.231, 645.250 1640.459 C 646.763 1638.686, 648.015 1636.845, 648.034 1636.368 C 648.053 1635.891, 650.736 1631.225, 653.997 1626 C 662.459 1612.440, 664.965 1607.988, 665.634 1605.321 C 665.958 1604.031, 668.198 1599.138, 670.611 1594.447 C 673.025 1589.756, 675 1585.272, 675 1584.481 C 675 1583.691, 676.096 1580.672, 677.437 1577.772 C 683.238 1565.219, 687.341 1553.998, 688.589 1547.273 C 690.410 1537.464, 692.843 1529.127, 694.968 1525.419 C 695.939 1523.724, 697.289 1520.656, 697.967 1518.601 C 698.708 1516.356, 701.861 1512.197, 705.867 1508.182 C 709.534 1504.507, 713.863 1500.617, 715.486 1499.538 C 717.110 1498.459, 721.602 1496.453, 725.469 1495.081 C 731.212 1493.042, 734.424 1492.577, 743 1492.543 C 751.977 1492.506, 754.851 1492.933, 762.819 1495.483 C 769.981 1497.776, 773.373 1499.511, 777.479 1502.983 C 780.417 1505.467, 783.688 1508.625, 784.749 1510 C 785.811 1511.375, 788.507 1516.550, 790.741 1521.500 C 795.002 1530.938, 795.120 1531.588, 798.093 1561.951 C 798.720 1568.346, 800.271 1576.639, 801.607 1580.732 C 802.923 1584.763, 804 1588.970, 804 1590.081 C 804 1591.191, 804.718 1593.488, 805.596 1595.186 C 807.235 1598.355, 810.320 1606.791, 812.110 1613 C 812.665 1614.925, 814.701 1619.804, 816.635 1623.843 C 818.569 1627.881, 821.010 1633.056, 822.060 1635.343 C 826.119 1644.178, 841.220 1667, 843.008 1667 C 843.468 1667, 844.330 1668.462, 844.922 1670.250 C 845.514 1672.037, 847.352 1674.400, 849.005 1675.500 C 850.659 1676.600, 852.279 1678.333, 852.606 1679.352 C 853.346 1681.661, 869.572 1697.616, 873.102 1699.505 C 874.532 1700.271, 876.449 1702.036, 877.361 1703.428 C 878.273 1704.820, 880.477 1706.712, 882.259 1707.633 C 884.042 1708.554, 885.950 1709.864, 886.500 1710.545 C 888.171 1712.612, 901.519 1721.718, 907.693 1725.003 C 910.887 1726.702, 914.625 1728.754, 916 1729.562 C 917.375 1730.370, 919.625 1731.474, 921 1732.013 C 922.375 1732.553, 924.175 1733.435, 925 1733.973 C 925.825 1734.511, 928.075 1735.628, 930 1736.456 C 931.925 1737.283, 934.175 1738.390, 935 1738.915 C 935.825 1739.441, 940.951 1741.271, 946.390 1742.982 C 951.830 1744.694, 957.455 1746.688, 958.890 1747.413 C 960.326 1748.139, 963.300 1749.037, 965.500 1749.408 C 967.700 1749.780, 971.750 1750.937, 974.500 1751.979 C 977.250 1753.022, 984.675 1754.406, 991 1755.055 C 1011.412 1757.150, 1028.496 1757.309, 1047.665 1755.585 C 1061.195 1754.367, 1067.576 1753.328, 1072.872 1751.477 C 1076.772 1750.115, 1081.118 1749, 1082.531 1749 C 1083.944 1749, 1086.539 1748.255, 1088.300 1747.344 C 1090.060 1746.434, 1093.525 1745.113, 1096 1744.409 C 1103.416 1742.301, 1109.098 1740.113, 1116.843 1736.385 C 1120.881 1734.440, 1126.056 1731.964, 1128.343 1730.881 C 1135.130 1727.668, 1138.066 1725.957, 1146.866 1720.084 C 1151.468 1717.013, 1156.305 1713.786, 1157.616 1712.914 C 1161.232 1710.507, 1173.757 1700.067, 1179.106 1695 C 1190.446 1684.259, 1192.261 1682.353, 1193.603 1679.780 C 1194.383 1678.283, 1195.864 1676.608, 1196.896 1676.056 C 1197.927 1675.504, 1200.405 1672.678, 1202.403 1669.776 C 1204.401 1666.874, 1207.490 1662.390, 1209.268 1659.812 C 1218.503 1646.417, 1224.373 1636.181, 1229.891 1623.846 C 1233.251 1616.336, 1236 1609.429, 1236 1608.497 C 1236 1607.565, 1236.627 1605.384, 1237.394 1603.651 C 1239.606 1598.652, 1243.772 1585.010, 1244.922 1579 C 1245.501 1575.975, 1246.598 1571.250, 1247.359 1568.500 C 1248.121 1565.750, 1249.259 1556.249, 1249.887 1547.386 C 1250.542 1538.138, 1251.728 1529.190, 1252.671 1526.386 C 1253.574 1523.699, 1255.367 1520.228, 1256.656 1518.673 C 1257.945 1517.119, 1259 1515.451, 1259 1514.968 C 1259 1514.484, 1260.081 1512.496, 1261.402 1510.550 C 1265.099 1505.101, 1274.373 1498.068, 1280.003 1496.443 C 1282.751 1495.649, 1287.348 1494.325, 1290.218 1493.500 C 1296.784 1491.612, 1309.038 1491.568, 1315.532 1493.407 C 1323.984 1495.802, 1327.287 1497.347, 1333.498 1501.811 C 1339.197 1505.907, 1345.268 1512.534, 1348.329 1518 C 1350.867 1522.533, 1359 1549.016, 1359 1552.748 C 1359 1555.581, 1362.230 1564.198, 1369.069 1579.614 C 1371.781 1585.726, 1374 1591.313, 1374 1592.028 C 1374 1592.744, 1375.800 1596.609, 1378 1600.618 C 1380.200 1604.626, 1382 1608.542, 1382 1609.320 C 1382 1610.099, 1384.025 1613.755, 1386.500 1617.446 C 1388.975 1621.137, 1391 1624.416, 1391 1624.734 C 1391 1625.051, 1392.043 1626.704, 1393.319 1628.406 C 1394.594 1630.108, 1397.088 1633.975, 1398.860 1637 C 1400.633 1640.025, 1404.090 1645.200, 1406.541 1648.500 C 1408.993 1651.800, 1412.434 1656.525, 1414.187 1659 C 1415.940 1661.475, 1420.622 1666.875, 1424.591 1671 C 1428.561 1675.125, 1433.700 1680.722, 1436.013 1683.437 C 1438.326 1686.152, 1441.709 1689.527, 1443.530 1690.937 C 1448.158 1694.518, 1464.655 1708.117, 1469.687 1712.498 C 1473.550 1715.862, 1476.721 1718.053, 1487.500 1724.807 C 1489.700 1726.185, 1492.652 1728.093, 1494.061 1729.047 C 1495.470 1730, 1499.295 1732.167, 1502.561 1733.862 C 1505.827 1735.557, 1509.625 1737.613, 1511 1738.431 C 1512.375 1739.249, 1516.875 1741.339, 1521 1743.076 C 1525.125 1744.812, 1529.175 1746.805, 1530 1747.505 C 1530.825 1748.205, 1533.068 1749.112, 1534.985 1749.520 C 1536.902 1749.928, 1539.504 1750.940, 1540.768 1751.767 C 1542.963 1753.206, 1550.107 1755.466, 1562 1758.484 C 1565.025 1759.252, 1568.850 1760.538, 1570.500 1761.342 C 1574.987 1763.529, 1598.699 1766.854, 1625.259 1769.019 C 1635.468 1769.852, 1643.079 1769.849, 1654.759 1769.007 C 1663.417 1768.383, 1674.325 1767.479, 1679 1766.999 C 1691.397 1765.726, 1708.849 1762.328, 1711.342 1760.702 C 1712.529 1759.927, 1715.642 1758.974, 1718.259 1758.584 C 1723.235 1757.842, 1735.355 1754.017, 1740.500 1751.564 C 1742.150 1750.777, 1748.675 1747.758, 1755 1744.854 C 1770.158 1737.895, 1782.964 1730.927, 1791.165 1725.175 C 1794.831 1722.604, 1800.006 1718.980, 1802.665 1717.122 C 1817.175 1706.983, 1837.626 1688.438, 1850.263 1673.958 C 1863.027 1659.333, 1872.547 1646.781, 1880.189 1634.500 C 1881.900 1631.750, 1884.358 1627.901, 1885.650 1625.946 C 1886.943 1623.992, 1888 1622.103, 1888 1621.750 C 1888 1621.396, 1889.675 1618.271, 1891.723 1614.804 C 1898.738 1602.926, 1899.330 1601.805, 1902.965 1593.500 C 1903.447 1592.400, 1905.064 1588.800, 1906.560 1585.500 C 1908.055 1582.200, 1910.970 1574.775, 1913.037 1569 C 1915.104 1563.225, 1917.998 1555.350, 1919.468 1551.500 C 1923.990 1539.660, 1926.457 1530.084, 1928.555 1516.222 C 1929.327 1511.119, 1930.454 1506.020, 1931.058 1504.891 C 1932.148 1502.855, 1934.202 1487.724, 1935.998 1468.500 C 1937.441 1453.056, 1937.171 1410.870, 1935.504 1391.173 C 1934.681 1381.453, 1933.545 1368.100, 1932.980 1361.500 C 1932.415 1354.900, 1931.312 1345.900, 1930.530 1341.500 C 1929.747 1337.100, 1928.614 1325.625, 1928.012 1316 C 1927.411 1306.375, 1926.522 1295.800, 1926.038 1292.500 C 1925.554 1289.200, 1924.853 1281.100, 1924.481 1274.500 C 1924.108 1267.900, 1922.987 1258, 1921.988 1252.500 C 1920.990 1247, 1919.875 1236.650, 1919.510 1229.500 C 1919.146 1222.350, 1918.009 1212, 1916.983 1206.500 C 1915.956 1201, 1914.842 1191.775, 1914.507 1186 C 1914.172 1180.225, 1913.454 1172.350, 1912.913 1168.500 C 1912.371 1164.650, 1911.285 1152.050, 1910.501 1140.500 C 1909.716 1128.950, 1908.414 1116.350, 1907.607 1112.500 C 1906.800 1108.650, 1905.644 1098.122, 1905.038 1089.104 C 1904.433 1080.086, 1903.728 1072.370, 1903.473 1071.956 C 1903.218 1071.543, 1902.355 1061.371, 1901.556 1049.353 C 1900.756 1037.334, 1899.436 1024.350, 1898.620 1020.500 C 1897.805 1016.650, 1896.638 1006.075, 1896.027 997 C 1895.415 987.925, 1894.287 976.675, 1893.520 972 C 1892.752 967.325, 1891.845 959.450, 1891.503 954.500 C 1891.162 949.550, 1890.248 940.775, 1889.472 935 C 1888.697 929.225, 1887.591 915.500, 1887.016 904.500 C 1886.440 893.500, 1885.547 882.700, 1885.032 880.500 C 1884.516 878.300, 1883.609 871.325, 1883.015 865 C 1882.421 858.675, 1881.272 847.650, 1880.462 840.500 C 1879.651 833.350, 1878.552 818.244, 1878.018 806.931 C 1877.485 795.619, 1876.388 783.220, 1875.580 779.378 C 1874.772 775.537, 1873.629 766.568, 1873.040 759.447 C 1872.452 752.326, 1871.527 743.350, 1870.984 739.500 C 1870.442 735.650, 1869.556 724.625, 1869.015 715 C 1868.473 705.375, 1867.615 696.073, 1867.108 694.329 C 1866.600 692.585, 1865.671 686.060, 1865.043 679.829 C 1862.584 655.438, 1860.741 639.826, 1858.453 624 C 1857.141 614.925, 1855.596 601.057, 1855.019 593.183 C 1854.443 585.309, 1853.331 576.309, 1852.548 573.183 C 1848.156 555.650, 1846.889 549.775, 1846.040 543 C 1845.523 538.875, 1843.515 531.249, 1841.580 526.052 C 1839.644 520.856, 1837.577 514.106, 1836.986 511.052 C 1835.959 505.741, 1832.050 495.635, 1825.870 482.313 C 1824.292 478.910, 1823 475.624, 1823 475.011 C 1823 474.398, 1821.149 470.207, 1818.887 465.698 C 1816.625 461.189, 1814.166 455.799, 1813.421 453.721 C 1812.206 450.327, 1809.668 446.024, 1802.348 434.946 C 1801.057 432.992, 1800 431.057, 1800 430.646 C 1800 429.612, 1787.568 410.892, 1781.641 403 C 1772.467 390.787, 1750.452 367.225, 1738.321 356.638 C 1721.510 341.967, 1719.834 340.690, 1700 327.443 C 1695.325 324.321, 1690.375 320.997, 1689 320.056 C 1685.890 317.928, 1662.399 306.471, 1651 301.522 C 1646.325 299.492, 1640.700 296.958, 1638.500 295.889 C 1636.300 294.821, 1629.184 292.609, 1622.686 290.974 C 1616.188 289.339, 1609.913 287.489, 1608.741 286.861 C 1604.873 284.791, 1583.948 281.581, 1543.500 276.851 C 1533.681 275.703, 1507.106 276.411, 1500.311 278.002 C 1498.007 278.541, 1490.132 279.646, 1482.811 280.456 C 1465.199 282.405, 1453.248 284.538, 1443.500 287.473 C 1439.100 288.798, 1431.158 291.058, 1425.852 292.496 C 1420.546 293.935, 1414.488 295.986, 1412.391 297.056 C 1410.293 298.125, 1407.872 299, 1407.011 299 C 1406.150 299, 1404.557 299.618, 1403.473 300.374 C 1402.388 301.130, 1398.350 302.957, 1394.500 304.434 C 1390.650 305.911, 1383 309.345, 1377.500 312.065 C 1372 314.785, 1367.018 317.008, 1366.428 317.005 C 1365.839 317.002, 1363.589 318.337, 1361.428 319.972 C 1359.268 321.607, 1356.989 322.957, 1356.364 322.972 C 1355.118 323.003, 1345.071 329.503, 1338.033 334.832 C 1335.576 336.693, 1332.515 338.614, 1331.230 339.102 C 1329.946 339.591, 1326.556 341.816, 1323.698 344.048 C 1304.204 359.265, 1299.117 363.543, 1287.645 374.369 C 1270.662 390.395, 1251.578 411.803, 1231.368 437.500 C 1228.340 441.350, 1224.881 445.700, 1223.681 447.168 C 1222.482 448.635, 1219.250 452.643, 1216.500 456.075 C 1200.765 475.709, 1184.003 492.545, 1168 504.786 C 1164.975 507.100, 1159.622 511.245, 1156.105 513.997 C 1152.588 516.749, 1149.367 519, 1148.948 519 C 1148.529 519, 1145.107 521.024, 1141.343 523.498 C 1137.579 525.972, 1134 527.997, 1133.390 527.998 C 1132.779 527.999, 1126.586 530.939, 1119.627 534.532 C 1111.504 538.725, 1103.667 541.929, 1097.737 543.482 C 1092.657 544.812, 1085.800 546.839, 1082.500 547.986 C 1075.787 550.321, 1050.988 553.538, 1032 554.537 C 1024.228 554.946, 1016.285 554.755, 1011 554.031 C 1006.325 553.390, 996.650 552.278, 989.500 551.559 C 979.638 550.567, 974.086 549.410, 966.500 546.766 C 961 544.849, 954.700 542.970, 952.500 542.591 C 947.954 541.808, 915.519 526.105, 909.600 521.822 C 907.455 520.270, 905.147 519, 904.470 519 C 902.972 519, 885.618 506.011, 877.516 498.825 C 860.588 483.811, 855.667 479.100, 850.500 472.960 C 847.200 469.038, 842.700 463.896, 840.500 461.533 C 836.223 456.937, 824.440 442.281, 819.500 435.410 C 813.170 426.607, 807.490 419.384, 804.629 416.500 C 802.992 414.850, 799.878 411.250, 797.708 408.500 C 795.539 405.750, 790.554 399.954, 786.632 395.620 C 782.709 391.285, 778.761 386.624, 777.859 385.261 C 776.956 383.898, 775.115 382.044, 773.768 381.141 C 772.421 380.239, 766.860 375.145, 761.409 369.822 C 755.959 364.500, 748.800 358.127, 745.500 355.660 C 742.200 353.193, 737.250 349.332, 734.500 347.080 C 731.750 344.828, 728.231 342.201, 726.680 341.242 C 725.128 340.284, 721.198 337.587, 717.945 335.250 C 714.693 332.913, 711.590 331, 711.050 331 C 710.511 331, 708.688 329.650, 707 328 C 705.312 326.350, 703.229 325, 702.370 325 C 701.511 325, 699.612 324.212, 698.150 323.250 C 696.688 322.288, 694.593 320.936, 693.496 320.248 C 690.872 318.601, 677.263 312, 676.493 312 C 676.164 312, 674.238 310.875, 672.215 309.500 C 670.191 308.125, 667.921 307, 667.169 307 C 666.417 307, 664.159 306.270, 662.151 305.379 C 660.143 304.487, 656.250 302.749, 653.500 301.518 C 640.950 295.896, 626.595 291.084, 617.500 289.451 C 615.300 289.056, 612.150 288.030, 610.500 287.171 C 607.478 285.599, 601.925 284.617, 579 281.602 C 563.667 279.586, 552.256 278.032, 545 276.972 C 539.667 276.193, 512.567 275.956, 506.500 276.636"/>
	</g>
	<g fill="#10212B">
		<circle cx="160.5" cy="280" r="38"/>
		<circle cx="351.5" cy="280" r="38"/>
	</g>
	<path d="M 218 324 Q 256 350 294 324" fill="none" stroke="#10212B" stroke-width="24" stroke-linecap="round"/>
</svg>
