<svg xmlns="http://www.w3.org/2000/svg" viewBox="0 0 512 512" role="img" aria-labelledby="title desc">
	<title id="title">Network Mimo</title>
	<desc id="desc">Two-color network-shaped Mimic Multiplayer mascot icon.</desc>
	<path fill="#10212B" d="M 11.13 160.928 C 7.523 166.338 4.174 173.527 2.319 179.787 C 0.464 186.048 -0.438 191.768 0 198.493 C 0.438 205.217 2.319 213.694 4.947 220.135 C 7.575 226.576 11.749 232.451 15.768 237.14 C 19.787 241.829 23.833 245.179 29.063 248.271 C 34.293 251.362 41.61 254.248 47.15 255.691 C 52.689 257.134 56.399 257.314 62.3 256.928 C 68.2 256.541 77.862 253.887 82.551 253.372 C 87.24 252.857 87.729 252.908 90.435 253.836 C 93.14 254.763 96.567 256.567 98.783 258.937 C 100.998 261.308 103.729 260.509 103.729 268.058 C 103.729 275.607 99.581 295.833 98.783 304.232 C 97.984 312.631 97.958 311.163 98.937 318.454 C 99.916 325.746 104.09 341.385 104.657 347.981 C 105.224 354.576 103.472 355.452 102.338 358.029 C 101.205 360.605 99.865 361.919 97.855 363.44 C 95.845 364.96 95.639 366.454 90.28 367.15 C 84.921 367.845 73.172 366.325 65.7 367.614 C 58.229 368.902 51.684 371.118 45.449 374.879 C 39.214 378.641 32.773 384.283 28.29 390.184 C 23.807 396.084 20.509 403.787 18.551 410.28 C 16.593 416.773 16.309 422.776 16.541 429.14 C 16.773 435.504 17.623 442.203 19.942 448.464 C 22.261 454.725 26.383 461.655 30.454 466.705 C 34.525 471.755 39.807 475.723 44.367 478.763 C 48.928 481.804 53.359 483.478 57.816 484.947 C 62.274 486.415 65.546 487.42 71.111 487.575 C 76.676 487.729 85.308 487.24 91.208 485.874 C 97.108 484.509 101.977 482.01 106.512 479.382 C 111.047 476.754 115.143 473.275 118.415 470.106 C 121.688 466.937 124.11 463.459 126.145 460.367 C 128.18 457.275 128.618 457.275 130.628 451.556 C 132.638 445.836 134.879 431.588 138.203 426.048 C 141.527 420.509 146.963 419.427 150.57 418.319 C 154.177 417.211 153.868 416.618 159.845 419.401 C 165.823 422.184 178.705 430.969 186.435 435.014 C 194.164 439.06 200.013 441.378 206.222 443.671 C 212.432 445.965 216.477 447.33 223.691 448.773 C 230.905 450.216 241.159 451.916 249.507 452.329 C 257.855 452.741 265.791 452.251 273.778 451.246 C 281.765 450.242 289.726 448.567 297.43 446.3 C 305.134 444.032 310.957 442.126 320 437.643 C 329.043 433.159 344.837 422.622 351.691 419.401 C 358.544 416.18 358.055 417.804 361.121 418.319 C 364.187 418.834 367.871 420.947 370.087 422.493 C 372.303 424.039 372.612 422.853 374.415 427.594 C 376.219 432.335 377.971 444.084 380.908 450.937 C 383.845 457.791 387.066 463.459 392.039 468.715 C 397.011 473.971 404.483 479.33 410.744 482.473 C 417.005 485.617 424.271 486.75 429.604 487.575 C 434.937 488.399 437.746 488.167 442.744 487.42 C 447.742 486.673 454.39 485.256 459.594 483.092 C 464.799 480.928 469.539 478.196 473.971 474.435 C 478.403 470.673 482.963 465.52 486.184 460.522 C 489.404 455.523 491.749 450.345 493.295 444.444 C 494.841 438.544 495.691 431.691 495.459 425.121 C 495.227 418.551 493.862 410.873 491.903 405.024 C 489.945 399.176 486.725 394.229 483.71 390.029 C 480.696 385.829 477.913 382.995 473.816 379.826 C 469.72 376.657 463.717 373.05 459.13 371.014 C 454.544 368.979 452.174 368.206 446.3 367.614 C 440.425 367.021 428.882 367.871 423.884 367.459 C 418.886 367.047 418.499 366.3 416.309 365.14 C 414.119 363.981 412.316 362.847 410.744 360.502 C 409.172 358.158 406.519 358.209 406.879 351.072 C 407.24 343.936 411.903 326.312 412.908 317.681 C 413.913 309.05 413.681 306.654 412.908 299.285 C 412.135 291.916 408.399 279.961 408.271 273.469 C 408.142 266.976 409.713 263.652 412.135 260.329 C 414.557 257.005 415.871 254.093 422.802 253.527 C 429.733 252.96 446.712 256.567 453.72 256.928 C 460.728 257.288 461.037 256.593 464.85 255.691 C 468.663 254.789 471.498 254.48 476.599 251.517 C 481.7 248.554 490.409 243.221 495.459 237.913 C 500.509 232.605 504.322 225.804 506.899 219.671 C 509.475 213.539 510.48 207.691 510.918 201.121 C 511.356 194.551 511.227 186.95 509.527 180.251 C 507.826 173.552 504.966 166.853 500.715 160.928 C 496.464 155.002 488.348 148.225 484.019 144.696 C 479.691 141.166 478.789 141.243 474.744 139.749 C 470.699 138.254 465.34 136.374 459.749 135.729 C 454.158 135.085 446.634 135.188 441.198 135.884 C 435.762 136.58 432.077 137.61 427.13 139.903 C 422.184 142.196 415.717 146.267 411.517 149.643 C 407.317 153.018 405.643 153.894 401.932 160.155 C 398.222 166.415 392.064 181.849 389.256 187.208 C 386.448 192.567 387.556 190.428 385.082 192.309 C 382.609 194.19 378.667 197.643 374.415 198.493 C 370.164 199.343 366.48 200.528 359.575 197.411 C 352.67 194.293 342.957 185.121 332.986 179.787 C 323.014 174.454 306.783 169.043 299.749 165.411 C 292.715 161.778 292.715 160.335 290.783 157.99 C 288.85 155.646 288.386 154.151 288.155 151.343 C 287.923 148.535 286.042 146.138 289.391 141.14 C 292.741 136.142 303.742 127.485 308.251 121.353 C 312.76 115.221 314.744 109.398 316.444 104.348 C 318.145 99.298 318.454 96.644 318.454 91.053 C 318.454 85.462 318.171 77.192 316.444 70.802 C 314.718 64.412 311.936 58.332 308.097 52.715 C 304.258 47.098 298.615 41.198 293.411 37.101 C 288.206 33.005 283.517 30.196 276.87 28.135 C 270.222 26.074 260.509 24.683 253.527 24.734 C 246.544 24.786 241.005 26.151 234.976 28.444 C 228.947 30.738 222.48 34.448 217.353 38.493 C 212.225 42.538 207.871 47.047 204.213 52.715 C 200.554 58.383 197.127 65.984 195.401 72.502 C 193.675 79.021 193.623 85.977 193.855 91.826 C 194.087 97.675 195.092 102.622 196.792 107.594 C 198.493 112.567 200.039 116.483 204.058 121.662 C 208.077 126.841 217.636 134.982 220.908 138.667 C 224.18 142.351 223.433 140.908 223.691 143.768 C 223.948 146.628 223.794 152.554 222.454 155.826 C 221.114 159.098 222.918 159.433 215.652 163.401 C 208.386 167.369 189.552 173.913 178.86 179.633 C 168.167 185.353 157.527 194.473 151.498 197.72 C 145.469 200.966 145.597 199.163 142.686 199.111 C 139.775 199.06 137.043 198.957 134.029 197.411 C 131.014 195.865 128.206 195.427 124.599 189.836 C 120.992 184.245 115.968 170.126 112.386 163.865 C 108.805 157.604 106.512 155.62 103.111 152.271 C 99.71 148.921 96.232 146.242 91.981 143.768 C 87.729 141.295 83.246 138.847 77.604 137.43 C 71.961 136.013 64.876 134.879 58.126 135.266 C 51.375 135.652 42.795 137.739 37.101 139.749 C 31.407 141.758 28.29 143.794 23.961 147.324 C 19.633 150.853 14.738 155.517 11.13 160.928 Z"/>
	<path fill="#65E6B8" d="M 488.039 172.522 C 485.514 167.987 483.452 165.333 479.227 162.164 C 475.002 158.995 467.865 155.156 462.686 153.507 C 457.507 151.858 453.205 151.858 448.155 152.271 C 443.105 152.683 436.818 154.126 432.386 155.981 C 427.955 157.836 424.502 160.902 421.565 163.401 C 418.628 165.9 417.623 165.771 414.763 170.976 C 411.903 176.18 407.652 188.805 404.406 194.628 C 401.159 200.451 398.557 202.95 395.285 205.913 C 392.013 208.876 388.947 210.731 384.773 212.406 C 380.599 214.081 375.575 215.961 370.242 215.961 C 364.908 215.961 360.709 216.245 352.773 212.406 C 344.837 208.567 333.114 198.493 322.628 192.928 C 312.142 187.362 296.76 182.467 289.855 179.014 C 282.95 175.562 283.775 174.995 281.198 172.213 C 278.622 169.43 275.968 165.411 274.396 162.319 C 272.824 159.227 272.18 157.192 271.768 153.662 C 271.356 150.132 270.892 145.34 271.923 141.14 C 272.953 136.94 274.525 132.947 277.952 128.464 C 281.378 123.981 289.211 118.003 292.483 114.242 C 295.755 110.48 296.116 109.14 297.585 105.894 C 299.053 102.647 300.676 99.066 301.295 94.763 C 301.913 90.461 302.351 85.282 301.295 80.077 C 300.238 74.873 297.636 68.148 294.957 63.536 C 292.277 58.924 289.391 55.678 285.217 52.406 C 281.043 49.134 274.525 45.655 269.913 43.903 C 265.301 42.151 262.029 41.919 257.546 41.894 C 253.063 41.868 248.116 41.971 243.014 43.749 C 237.913 45.527 231.291 49.108 226.937 52.56 C 222.583 56.013 219.594 59.646 216.889 64.464 C 214.184 69.282 211.736 76.702 210.705 81.469 C 209.675 86.235 210.061 89.018 210.705 93.063 C 211.349 97.108 213.101 102.261 214.57 105.739 C 216.039 109.217 216.219 110.145 219.517 113.932 C 222.815 117.72 230.957 124.187 234.357 128.464 C 237.758 132.741 238.892 135.549 239.923 139.594 C 240.953 143.639 240.979 148.767 240.541 152.734 C 240.103 156.702 238.892 160.155 237.295 163.401 C 235.697 166.647 233.43 169.636 230.957 172.213 C 228.483 174.789 229.514 175.356 222.454 178.86 C 215.395 182.364 198.725 187.852 188.599 193.237 C 178.473 198.622 168.013 207.51 161.7 211.169 C 155.388 214.828 154.203 214.39 150.725 215.188 C 147.246 215.987 144.283 216.219 140.831 215.961 C 137.378 215.704 133.411 214.828 130.01 213.643 C 126.609 212.457 123.981 211.684 120.425 208.85 C 116.87 206.016 112.85 203.285 108.676 196.638 C 104.502 189.99 98.705 174.712 95.382 168.966 C 92.058 163.221 91.44 164.329 88.734 162.164 C 86.029 160 82.551 157.552 79.15 155.981 C 75.749 154.409 71.936 153.353 68.329 152.734 C 64.721 152.116 60.702 152.142 57.507 152.271 C 54.312 152.399 52.56 152.399 49.159 153.507 C 45.758 154.615 40.94 156.341 37.101 158.918 C 33.262 161.494 29.063 165.308 26.126 168.966 C 23.188 172.625 20.947 177.597 19.478 180.87 C 18.01 184.142 17.726 185.404 17.314 188.599 C 16.902 191.794 16.567 195.994 17.005 200.039 C 17.443 204.084 17.726 208.232 19.942 212.87 C 22.158 217.507 26.229 223.82 30.3 227.865 C 34.37 231.91 39.085 235.105 44.367 237.14 C 49.649 239.176 54.673 240.206 61.99 240.077 C 69.308 239.948 81.417 236.238 88.271 236.367 C 95.124 236.496 99.04 238.738 103.111 240.85 C 107.182 242.963 109.887 244.973 112.696 249.043 C 115.504 253.114 118.75 260.457 119.961 265.275 C 121.172 270.093 120.554 273.469 119.961 277.952 C 119.369 282.435 117.179 286.377 116.406 292.174 C 115.633 297.971 114.576 303.639 115.324 312.734 C 116.071 321.829 120.116 339.118 120.889 346.744 C 121.662 354.37 120.528 355.452 119.961 358.493 C 119.395 361.533 118.725 362.667 117.488 364.986 C 116.251 367.304 114.499 370.19 112.541 372.406 C 110.583 374.622 108.728 376.477 105.739 378.28 C 102.75 380.084 100.432 382.351 94.609 383.227 C 88.786 384.103 76.444 383.072 70.802 383.536 C 65.159 384 64.386 384.464 60.754 386.01 C 57.121 387.556 52.277 390.312 49.005 392.812 C 45.733 395.311 43.44 397.733 41.121 401.005 C 38.802 404.277 36.483 408.554 35.092 412.444 C 33.7 416.335 32.824 419.633 32.773 424.348 C 32.721 429.063 33.649 436.329 34.783 440.734 C 35.916 445.14 37.23 447.33 39.575 450.783 C 41.919 454.235 44.548 458.28 48.85 461.449 C 53.153 464.618 60.29 468.225 65.391 469.797 C 70.493 471.369 74.847 471.266 79.459 470.879 C 84.071 470.493 89.095 469.076 93.063 467.478 C 97.031 465.881 100.045 464.103 103.266 461.295 C 106.486 458.486 110.068 454.312 112.386 450.628 C 114.705 446.944 115.916 443.44 117.179 439.188 C 118.441 434.937 118.39 429.32 119.961 425.121 C 121.533 420.921 123.826 417.237 126.609 413.99 C 129.391 410.744 133.05 407.678 136.657 405.643 C 140.264 403.607 144.747 402.422 148.251 401.778 C 151.755 401.134 154.512 401.34 157.681 401.778 C 160.85 402.216 161.134 401.34 167.266 404.406 C 173.398 407.472 186.486 416.129 194.473 420.174 C 202.461 424.219 208.026 426.409 215.188 428.676 C 222.351 430.944 229.977 432.696 237.449 433.778 C 244.921 434.86 253.578 435.195 260.019 435.169 C 266.461 435.143 269.681 434.834 276.097 433.623 C 282.512 432.412 290.911 430.531 298.512 427.903 C 306.113 425.275 314.332 421.668 321.7 417.855 C 329.069 414.042 336.335 407.755 342.725 405.024 C 349.114 402.293 354.86 401.469 360.039 401.469 C 365.217 401.469 369.52 402.834 373.797 405.024 C 378.074 407.214 382.712 411.233 385.7 414.609 C 388.689 417.984 390.261 421.127 391.729 425.275 C 393.198 429.424 393.224 435.246 394.512 439.498 C 395.8 443.749 396.651 446.789 399.459 450.783 C 402.267 454.776 407.085 460.29 411.362 463.459 C 415.639 466.628 420.535 468.56 425.121 469.797 C 429.707 471.034 434.422 471.188 438.879 470.879 C 443.337 470.57 448.258 469.205 451.865 467.942 C 455.472 466.68 457.481 465.623 460.522 463.304 C 463.562 460.986 467.324 457.842 470.106 454.029 C 472.889 450.216 475.723 445.398 477.217 440.425 C 478.712 435.452 479.098 428.754 479.072 424.193 C 479.047 419.633 478.428 416.902 477.063 413.063 C 475.697 409.224 473.919 405.024 470.879 401.159 C 467.839 397.295 463.691 392.812 458.821 389.874 C 453.952 386.937 447.923 384.567 441.662 383.536 C 435.401 382.506 425.971 383.923 421.256 383.691 C 416.541 383.459 416.593 383.51 413.372 382.145 C 410.151 380.779 405.101 378.177 401.932 375.498 C 398.763 372.818 396.341 369.881 394.357 366.068 C 392.374 362.254 389.668 361.662 390.029 352.618 C 390.39 343.575 395.62 321.932 396.522 311.807 C 397.424 301.681 396.187 297.585 395.44 291.865 C 394.692 286.145 392.605 281.816 392.039 277.488 C 391.472 273.159 390.853 270.531 392.039 265.894 C 393.224 261.256 396.908 253.424 399.15 249.662 C 401.391 245.9 403.04 245.153 405.488 243.324 C 407.936 241.494 410.28 239.871 413.836 238.686 C 417.391 237.501 421.694 236.032 426.821 236.213 C 431.948 236.393 439.395 239.176 444.599 239.768 C 449.804 240.361 453.771 240.438 458.048 239.768 C 462.325 239.098 466.267 237.836 470.261 235.749 C 474.254 233.662 478.66 230.622 482.01 227.246 C 485.359 223.871 488.296 219.568 490.357 215.498 C 492.419 211.427 493.707 207.176 494.377 202.821 C 495.047 198.467 495.433 194.422 494.377 189.372 C 493.32 184.322 490.564 177.056 488.039 172.522 Z"/>
	<g fill="#10212B">
		<circle cx="160.5" cy="280" r="38"/>
		<circle cx="351.5" cy="280" r="38"/>
	</g>
	<path d="M 218 324 Q 256 350 294 324" fill="none" stroke="#10212B" stroke-width="24" stroke-linecap="round"/>
</svg>
