<svg xmlns="http://www.w3.org/2000/svg" viewBox="0 0 416.764 204.678" role="img" aria-labelledby="title desc">
	<title id="title">M-shaped Mimo IMIC Multiplayer universal</title>
	<desc id="desc">M-shaped Mimo replaces the first M with a stroked mint IMIC wordmark and flat Mimo Slate MULTIPLAYER subtitle.</desc>
	<g transform="translate(8 8) scale(0.285)">
<g transform="scale(0.25)">
		<path fill="#10212B" d="M 496 169.089 C 484.175 169.487, 470.900 170.273, 466.500 170.836 C 458.079 171.914, 445.108 174.365, 438.688 176.092 C 436.591 176.656, 430.684 177.747, 425.562 178.516 C 420.440 179.285, 414.730 180.564, 412.874 181.360 C 407.729 183.565, 385.202 190.942, 379 192.454 C 373.844 193.710, 369.167 195.537, 359.434 200.096 C 357.198 201.143, 354.719 202, 353.925 202 C 353.132 202, 348.514 204.025, 343.664 206.500 C 338.815 208.975, 334.319 211.018, 333.673 211.039 C 333.028 211.060, 330.025 212.635, 327 214.538 C 323.975 216.441, 320.150 218.676, 318.500 219.504 C 316.850 220.332, 311.450 223.465, 306.500 226.467 C 301.550 229.468, 295.475 233.021, 293 234.361 C 290.525 235.702, 286.842 238.081, 284.815 239.649 C 282.788 241.217, 277.849 244.750, 273.838 247.500 C 269.827 250.250, 264.735 254.124, 262.523 256.108 C 260.310 258.092, 257.375 260.301, 256 261.017 C 254.625 261.732, 252.905 263.156, 252.178 264.180 C 251.451 265.205, 248.483 267.796, 245.582 269.940 C 240.101 273.988, 222.642 290.174, 215.313 298 C 207.016 306.860, 192.374 323.624, 186.927 330.500 C 176.365 343.834, 171.287 350.596, 170 353.042 C 169.289 354.394, 167.358 357.052, 165.709 358.949 C 164.060 360.846, 161.863 364.315, 160.827 366.658 C 159.791 369, 158.543 371.164, 158.054 371.466 C 156.281 372.563, 142.921 395.920, 134.013 413.500 C 128.996 423.400, 123.297 435.550, 121.348 440.500 C 119.399 445.450, 117.438 449.950, 116.989 450.500 C 116.540 451.050, 114.324 457.091, 112.065 463.924 C 109.805 470.757, 107.568 476.832, 107.094 477.424 C 106.619 478.016, 105.751 480.525, 105.164 483 C 102.074 496.037, 98.920 507.728, 98.014 509.500 C 97.452 510.600, 96.546 513.916, 95.999 516.870 C 95.453 519.823, 94.105 525.158, 93.003 528.725 C 91.901 532.292, 91 536.457, 91 537.980 C 91 539.503, 90.351 542.587, 89.558 544.834 C 88.766 547.082, 87.637 553.551, 87.050 559.210 C 86.463 564.870, 85.296 573.775, 84.455 579 C 83.614 584.225, 82.517 593.450, 82.017 599.500 C 81.517 605.550, 80.688 611.883, 80.174 613.573 C 79.661 615.263, 78.931 621.338, 78.553 627.073 C 77.585 641.735, 75.109 666.483, 73.964 672.934 C 73.434 675.922, 72.985 681.772, 72.967 685.934 C 72.949 690.095, 72.529 696.425, 72.033 700 C 70.082 714.061, 69.090 723.070, 68.012 736.500 C 67.395 744.200, 66.239 756.176, 65.445 763.112 C 64.650 770.049, 63.980 780.399, 63.956 786.112 C 63.914 795.954, 63.531 800.332, 61.163 818 C 60.610 822.125, 59.649 831.800, 59.026 839.500 C 58.403 847.200, 57.264 858.675, 56.496 865 C 55.727 871.325, 54.864 882.350, 54.578 889.500 C 54.292 896.650, 53.627 904.975, 53.101 908 C 52.575 911.025, 51.418 921.375, 50.530 931 C 49.641 940.625, 48.257 953, 47.454 958.500 C 46.651 964, 45.995 971.496, 45.997 975.158 C 45.999 978.820, 45.343 987.145, 44.541 993.658 C 43.738 1000.171, 42.388 1011.144, 41.541 1018.043 C 40.693 1024.941, 40 1033.317, 40 1036.656 C 40 1039.995, 39.521 1045.151, 38.936 1048.114 C 38.350 1051.076, 37.234 1059.800, 36.456 1067.500 C 35.677 1075.200, 34.376 1087.350, 33.565 1094.500 C 32.754 1101.650, 31.830 1112.675, 31.513 1119 C 31.196 1125.325, 30.282 1135.450, 29.482 1141.500 C 28.681 1147.550, 27.560 1157.225, 26.991 1163 C 26.421 1168.775, 25.301 1179.711, 24.502 1187.302 C 23.704 1194.893, 22.783 1206.593, 22.456 1213.302 C 22.129 1220.011, 21.412 1227.750, 20.863 1230.500 C 19.892 1235.360, 18.034 1251.600, 16 1273 C 15.451 1278.775, 14.555 1287.325, 14.009 1292 C 13.462 1296.675, 13.001 1303.875, 12.984 1308 C 12.966 1312.125, 12.513 1317.300, 11.976 1319.500 C 11.439 1321.700, 10.567 1327.775, 10.038 1333 C 5.971 1373.196, 4.933 1384.321, 4.020 1397.500 C 3.449 1405.750, 2.476 1414.525, 1.859 1417 C 1.242 1419.475, 0.544 1428.025, 0.308 1436 C -0.023 1447.181, 0.244 1451.873, 1.473 1456.500 C 2.350 1459.800, 3.513 1468.800, 4.058 1476.500 C 5.609 1498.398, 8.638 1520.146, 11.510 1530 C 12.231 1532.475, 13.087 1537.200, 13.412 1540.500 C 13.737 1543.800, 15.604 1551.900, 17.561 1558.500 C 19.519 1565.100, 21.552 1572.750, 22.081 1575.500 C 23.041 1580.498, 27.096 1592.283, 29.479 1597 C 30.174 1598.375, 31.042 1601.171, 31.409 1603.213 C 32.098 1607.045, 33.595 1610.693, 42.810 1631 C 44.433 1634.575, 46.078 1638.542, 46.468 1639.815 C 46.857 1641.088, 48.936 1645.183, 51.088 1648.915 C 53.240 1652.647, 55.003 1656.330, 55.007 1657.100 C 55.010 1657.870, 57.035 1661.636, 59.507 1665.470 C 61.978 1669.303, 64 1672.870, 64 1673.396 C 64 1673.923, 65.951 1677.311, 68.335 1680.927 C 77.241 1694.433, 75.525 1691.869, 85.527 1706.615 C 92.477 1716.859, 100.728 1727.261, 115.877 1744.875 C 121.458 1751.364, 146.118 1775.900, 152.746 1781.559 C 161.881 1789.358, 185.546 1807.601, 191 1811.048 C 194.025 1812.960, 197.208 1814.968, 198.073 1815.512 C 198.938 1816.055, 201.863 1817.928, 204.573 1819.673 C 216.891 1827.605, 231.184 1835.820, 234.956 1837.134 C 236.851 1837.795, 240.967 1839.786, 244.102 1841.558 C 247.237 1843.330, 251.534 1845.310, 253.651 1845.957 C 257.258 1847.061, 266.044 1850.862, 270.458 1853.228 C 271.536 1853.805, 274.686 1854.872, 277.458 1855.599 C 283.795 1857.261, 306.396 1864.722, 310.813 1866.611 C 312.636 1867.390, 317.361 1868.493, 321.313 1869.062 C 325.266 1869.631, 331.425 1870.719, 335 1871.480 C 338.575 1872.240, 343.750 1873.146, 346.500 1873.491 C 349.250 1873.837, 355.100 1874.880, 359.500 1875.809 C 366.266 1877.238, 373.748 1877.495, 408 1877.477 C 445.316 1877.457, 449.561 1877.278, 462 1875.199 C 487.405 1870.954, 502.136 1867.954, 509.500 1865.525 C 512.250 1864.618, 518.550 1862.524, 523.500 1860.872 C 528.450 1859.220, 535.200 1857.053, 538.500 1856.057 C 541.800 1855.061, 548.609 1852.390, 553.632 1850.123 C 558.655 1847.855, 563.286 1846, 563.924 1846 C 565.552 1846, 577.749 1840.215, 578.424 1839.122 C 578.731 1838.627, 580.218 1837.911, 581.730 1837.532 C 583.243 1837.152, 588.875 1834.290, 594.248 1831.171 C 599.620 1828.052, 605.399 1824.751, 607.090 1823.836 C 608.781 1822.921, 612.940 1820.394, 616.333 1818.221 C 619.725 1816.048, 623.625 1813.699, 625 1813.001 C 626.375 1812.303, 630.650 1809.206, 634.500 1806.119 C 638.350 1803.033, 643.358 1799.156, 645.629 1797.504 C 658.826 1787.904, 666.188 1781.499, 681 1766.735 C 698.644 1749.147, 716.151 1729.491, 725.742 1716.500 C 728.991 1712.100, 732.440 1707.851, 733.408 1707.058 C 735.728 1705.157, 737.449 1706.291, 741.958 1712.693 C 746.966 1719.803, 757.196 1733.069, 766.165 1744.085 C 776.266 1756.492, 800.018 1779.605, 812.322 1789 C 817.725 1793.125, 824.475 1798.319, 827.322 1800.542 C 836.862 1807.988, 855.933 1819.850, 868 1825.843 C 872.675 1828.164, 879.351 1831.624, 882.835 1833.532 C 886.319 1835.439, 889.834 1837, 890.646 1837 C 891.458 1837, 895.987 1838.819, 900.711 1841.043 C 905.435 1843.266, 911.595 1845.541, 914.400 1846.097 C 917.205 1846.654, 921.075 1847.767, 923 1848.570 C 928.492 1850.862, 939.796 1853.995, 948 1855.499 C 952.125 1856.255, 959.775 1857.768, 965 1858.862 C 970.225 1859.955, 980.575 1861.607, 988 1862.533 C 998.663 1863.863, 1006.963 1864.121, 1027.500 1863.759 C 1053.978 1863.293, 1072.859 1861.509, 1084.455 1858.379 C 1087.780 1857.481, 1093.875 1856.168, 1098 1855.460 C 1107.049 1853.908, 1120.416 1850.347, 1123.938 1848.550 C 1125.347 1847.831, 1128.929 1846.729, 1131.898 1846.100 C 1134.866 1845.472, 1141.116 1843.167, 1145.786 1840.979 C 1150.456 1838.790, 1154.904 1837, 1155.670 1837 C 1157.306 1837, 1178.781 1826.163, 1179.523 1824.963 C 1179.801 1824.514, 1181.709 1823.595, 1183.764 1822.921 C 1185.819 1822.247, 1190.249 1819.964, 1193.608 1817.848 C 1196.967 1815.731, 1199.975 1814, 1200.292 1814 C 1201.509 1814, 1226.725 1795.990, 1233.104 1790.565 C 1235.086 1788.879, 1238.415 1786.150, 1240.502 1784.500 C 1248.423 1778.237, 1251.859 1775.025, 1264.089 1762.447 C 1275.387 1750.829, 1284.849 1739.940, 1293.513 1728.586 C 1295.156 1726.434, 1298.075 1722.608, 1300 1720.086 C 1301.925 1717.563, 1304.759 1713.564, 1306.297 1711.200 C 1307.835 1708.836, 1309.753 1706.648, 1310.560 1706.339 C 1311.366 1706.029, 1312.766 1706.389, 1313.672 1707.138 C 1314.577 1707.887, 1318.190 1712.325, 1321.700 1717 C 1325.210 1721.675, 1330.726 1728.425, 1333.957 1732 C 1337.189 1735.575, 1344.687 1743.900, 1350.621 1750.500 C 1356.554 1757.100, 1363.279 1764.075, 1365.565 1766 C 1367.851 1767.925, 1374.240 1773.550, 1379.762 1778.500 C 1392.228 1789.673, 1397.124 1793.696, 1403.500 1798.005 C 1406.250 1799.864, 1409.088 1802.198, 1409.807 1803.192 C 1410.525 1804.186, 1411.575 1805, 1412.138 1805 C 1412.702 1805, 1415.039 1806.519, 1417.332 1808.375 C 1419.624 1810.232, 1423.042 1812.535, 1424.927 1813.493 C 1426.812 1814.451, 1430.412 1816.666, 1432.927 1818.415 C 1435.442 1820.164, 1442.450 1824.406, 1448.500 1827.841 C 1454.550 1831.276, 1460.175 1834.479, 1461 1834.959 C 1464.696 1837.110, 1483.748 1845.942, 1486 1846.547 C 1487.375 1846.917, 1492.550 1848.926, 1497.500 1851.011 C 1502.450 1853.096, 1509.200 1855.683, 1512.500 1856.761 C 1515.800 1857.838, 1522.325 1859.960, 1527 1861.475 C 1531.675 1862.991, 1537.525 1864.898, 1540 1865.714 C 1542.475 1866.530, 1547.875 1867.859, 1552 1868.667 C 1556.125 1869.475, 1562.650 1870.769, 1566.500 1871.543 C 1570.350 1872.316, 1575.750 1873.213, 1578.500 1873.534 C 1581.250 1873.856, 1587.100 1874.880, 1591.500 1875.810 C 1598.281 1877.243, 1605.746 1877.495, 1640.500 1877.470 C 1674.705 1877.444, 1682.826 1877.165, 1689.500 1875.782 C 1693.900 1874.870, 1700.200 1873.811, 1703.500 1873.428 C 1706.800 1873.045, 1710.470 1872.370, 1711.656 1871.927 C 1712.841 1871.484, 1717.550 1870.609, 1722.120 1869.984 C 1726.689 1869.358, 1733.594 1867.805, 1737.464 1866.532 C 1741.334 1865.259, 1747.650 1863.244, 1751.500 1862.055 C 1755.350 1860.866, 1761.277 1858.792, 1764.671 1857.446 C 1768.064 1856.101, 1771.795 1855, 1772.962 1855 C 1774.128 1855, 1778.696 1853.229, 1783.113 1851.064 C 1787.530 1848.899, 1792.441 1846.842, 1794.025 1846.494 C 1797.210 1845.795, 1820.091 1834.305, 1829.500 1828.680 C 1832.800 1826.707, 1837.281 1824.115, 1839.458 1822.920 C 1843.315 1820.803, 1846.855 1818.513, 1859.802 1809.760 C 1865.797 1805.708, 1875.322 1798.222, 1892.376 1784.159 C 1908.147 1771.154, 1931.193 1746.622, 1950.301 1722.500 C 1958.478 1712.178, 1972.742 1691.235, 1977.231 1682.962 C 1982.149 1673.897, 1985.148 1668.748, 1986.527 1667 C 1990.064 1662.516, 2004.335 1631.777, 2013.918 1608 C 2017.296 1599.620, 2023.283 1581.532, 2024.676 1575.500 C 2026.781 1566.382, 2027.550 1563.414, 2030.834 1551.710 C 2032.500 1545.775, 2034.351 1536.895, 2034.949 1531.977 C 2035.548 1527.058, 2036.479 1521.872, 2037.018 1520.452 C 2037.558 1519.032, 2039.222 1508.787, 2040.716 1497.685 C 2043.310 1478.412, 2043.432 1475.602, 2043.422 1435.500 C 2043.412 1395.239, 2043.278 1392.221, 2040.180 1362.612 C 2038.402 1345.624, 2036.704 1331.330, 2036.406 1330.848 C 2036.108 1330.366, 2035.452 1323.115, 2034.949 1314.736 C 2034.046 1299.699, 2028.445 1246.779, 2027.477 1244.141 C 2027.203 1243.393, 2026.527 1235.068, 2025.974 1225.641 C 2024.819 1205.948, 2020.694 1164.739, 2018.553 1151.500 C 2017.753 1146.550, 2016.826 1137.550, 2016.495 1131.500 C 2015.691 1116.818, 2011.791 1076.878, 2009.074 1055.500 C 2006.703 1036.837, 2003.703 1006.440, 2002.857 992.500 C 2002.356 984.250, 2001.293 972.550, 2000.493 966.500 C 1999.694 960.450, 1998.323 947.625, 1997.447 938 C 1996.571 928.375, 1995.215 916.225, 1994.433 911 C 1993.651 905.775, 1993.017 898.125, 1993.023 894 C 1993.029 889.875, 1992.359 880.425, 1991.534 873 C 1990.708 865.575, 1989.105 850.050, 1987.969 838.500 C 1986.834 826.950, 1985.500 814.350, 1985.004 810.500 C 1984.508 806.650, 1984.069 799.900, 1984.027 795.500 C 1983.986 791.100, 1983.515 785.700, 1982.980 783.500 C 1981.956 779.283, 1979.613 752.728, 1978.482 732.500 C 1978.113 725.900, 1977.380 718.492, 1976.854 716.038 C 1976.327 713.584, 1975.482 705.259, 1974.976 697.538 C 1974.470 689.817, 1973.408 679.450, 1972.618 674.500 C 1971.827 669.550, 1970.667 660.100, 1970.040 653.500 C 1969.412 646.900, 1968.247 637.963, 1967.450 633.640 C 1966.652 629.316, 1966 623.373, 1966 620.433 C 1966 617.493, 1964.915 608.205, 1963.588 599.794 C 1962.261 591.382, 1960.878 581.350, 1960.515 577.500 C 1960.152 573.650, 1959.212 567.960, 1958.427 564.856 C 1957.642 561.751, 1956.999 557.701, 1956.999 555.856 C 1956.998 554.010, 1955.924 548, 1954.613 542.500 C 1953.301 537, 1951.908 530.250, 1951.515 527.500 C 1951.123 524.750, 1950.350 521.654, 1949.797 520.621 C 1948.841 518.834, 1944.933 503.109, 1942.835 492.606 C 1942.297 489.914, 1941.265 486.764, 1940.541 485.606 C 1939.817 484.448, 1938.664 481.025, 1937.978 478 C 1937.293 474.975, 1936.117 471.285, 1935.366 469.800 C 1934.615 468.314, 1934 466.272, 1934 465.261 C 1934 464.250, 1933.100 461.658, 1932 459.500 C 1930.900 457.342, 1930 455.213, 1930 454.767 C 1930 453.350, 1922.959 435.876, 1918.823 427.030 C 1907.050 401.847, 1897.311 383.606, 1889.865 372.790 C 1888.839 371.300, 1888 369.694, 1888 369.220 C 1888 368.333, 1879.479 355.144, 1874.925 348.984 C 1873.509 347.068, 1869.705 341.900, 1866.471 337.500 C 1855.568 322.661, 1840.692 305.585, 1825.053 289.957 C 1816.499 281.409, 1806.965 272.546, 1803.867 270.262 C 1800.769 267.978, 1796.944 264.913, 1795.367 263.451 C 1792.038 260.363, 1782.713 253.231, 1774.512 247.500 C 1771.364 245.300, 1766.249 241.686, 1763.144 239.468 C 1760.040 237.251, 1755.700 234.377, 1753.500 233.082 C 1745.758 228.526, 1742.466 226.644, 1739 224.794 C 1737.075 223.766, 1733.475 221.613, 1731 220.009 C 1728.525 218.405, 1723.575 215.672, 1720 213.936 C 1716.425 212.200, 1709.623 208.805, 1704.885 206.390 C 1700.147 203.976, 1695.422 201.997, 1694.385 201.994 C 1693.348 201.990, 1691.150 201.260, 1689.500 200.370 C 1684.828 197.851, 1675.007 193.962, 1669.500 192.450 C 1666.750 191.694, 1656.625 188.416, 1647 185.163 C 1637.375 181.911, 1627.475 178.958, 1625 178.602 C 1620.564 177.963, 1606.180 175.229, 1592.500 172.423 C 1579.556 169.768, 1565.114 169, 1528.211 169.002 C 1502.644 169.003, 1487.197 169.458, 1477.325 170.498 C 1469.528 171.320, 1461.961 172.444, 1460.510 172.996 C 1459.058 173.548, 1456.709 174, 1455.289 174 C 1453.870 174, 1448.837 174.876, 1444.104 175.947 C 1439.372 177.018, 1431.900 178.555, 1427.500 179.363 C 1423.100 180.171, 1417.475 181.515, 1415 182.351 C 1400.819 187.137, 1387.820 191.222, 1383 192.408 C 1377.734 193.704, 1370.327 196.596, 1365 199.436 C 1363.625 200.169, 1360.925 201.106, 1359 201.517 C 1355.639 202.236, 1343.138 207.861, 1330.500 214.343 C 1323.658 217.853, 1320.667 219.510, 1308.566 226.500 C 1303.805 229.250, 1298.243 232.400, 1296.205 233.500 C 1292.542 235.478, 1291.345 236.267, 1278.877 244.932 C 1268.572 252.095, 1255.695 261.723, 1253 264.281 C 1251.625 265.586, 1248.250 268.406, 1245.500 270.547 C 1238.465 276.024, 1232.933 280.955, 1222 291.497 C 1209.478 303.570, 1193.675 320.128, 1186.017 329.200 C 1182.628 333.215, 1179.042 337.407, 1178.048 338.516 C 1175.424 341.443, 1162.080 358.169, 1158.050 363.582 C 1156.153 366.131, 1153.437 369.461, 1152.016 370.983 C 1150.594 372.505, 1148.225 375.493, 1146.750 377.625 C 1142.772 383.373, 1135.222 392.894, 1129 400.007 C 1120.346 409.900, 1103.301 424.666, 1094 430.327 C 1085.201 435.682, 1074.468 440.923, 1072.200 440.972 C 1071.486 440.987, 1069.542 441.703, 1067.881 442.562 C 1063.176 444.994, 1042.919 448.839, 1031.151 449.533 C 1025.263 449.880, 1016.922 449.688, 1012.500 449.102 C 1001.272 447.617, 987.096 444.293, 984.370 442.507 C 983.105 441.678, 981.548 441, 980.910 441 C 979.162 441, 967.824 435.854, 965.194 433.867 C 963.926 432.908, 961.001 431.210, 958.694 430.093 C 953.557 427.606, 939.655 416.582, 932.092 409 C 924.231 401.118, 911.493 386.500, 905 377.909 C 896.646 366.855, 886.667 354.073, 882.040 348.500 C 879.757 345.750, 873.494 338.100, 868.123 331.500 C 844.664 302.677, 806.637 267.031, 781 249.833 C 777.975 247.804, 772.350 243.863, 768.500 241.075 C 764.650 238.287, 759.637 235.142, 757.360 234.086 C 755.083 233.030, 752.920 231.680, 752.553 231.086 C 752.186 230.491, 748.874 228.558, 745.193 226.789 C 741.512 225.020, 737.094 222.625, 735.376 221.467 C 732.365 219.437, 722.926 214.691, 705 206.193 C 700.325 203.977, 694.925 201.850, 693 201.467 C 691.075 201.083, 689.023 200.387, 688.440 199.920 C 687.070 198.822, 672.811 193.006, 671.500 193.010 C 670.126 193.015, 639.285 183.147, 635.187 181.391 C 633.364 180.611, 628.639 179.488, 624.687 178.898 C 620.734 178.307, 614.575 177.199, 611 176.435 C 607.425 175.672, 602.475 174.765, 600 174.420 C 597.525 174.075, 593.025 173.201, 590 172.478 C 577.121 169.402, 533.482 167.829, 496 169.089"/>
		<path fill="#65E6B8" d="M 496 217.072 C 484.175 217.451, 471.125 218.258, 467 218.865 C 458.465 220.120, 435.219 225.092, 427 227.421 C 423.975 228.278, 417.675 230.362, 413 232.053 C 408.325 233.744, 401.989 235.765, 398.919 236.544 C 395.850 237.324, 389.264 239.770, 384.284 241.981 C 379.304 244.191, 374.796 246, 374.266 246 C 372.282 246, 346.042 259.349, 334 266.483 C 327.125 270.557, 319.475 275.043, 317 276.453 C 311.554 279.556, 297.643 289.365, 292.825 293.500 C 290.903 295.150, 286.248 298.975, 282.481 302 C 258.230 321.474, 226.992 354.877, 211.115 378.311 C 208.577 382.058, 205.629 386.558, 204.565 388.311 C 203.500 390.065, 199.591 396.140, 195.877 401.810 C 188.401 413.225, 171.096 446.700, 164.244 463 C 159.611 474.022, 151.877 495.004, 149.315 503.500 C 147.623 509.113, 143.418 524.780, 138.981 542 C 137.351 548.325, 135.572 557.100, 135.028 561.500 C 134.483 565.900, 133.328 573.775, 132.462 579 C 131.595 584.225, 130.509 593.225, 130.048 599 C 129.588 604.775, 128.751 611.525, 128.187 614 C 127.624 616.475, 126.878 622.550, 126.530 627.500 C 125.480 642.411, 122.995 667.147, 121.966 672.934 C 121.435 675.922, 120.985 681.772, 120.967 685.934 C 120.949 690.095, 120.529 696.425, 120.033 700 C 118.082 714.061, 117.090 723.070, 116.012 736.500 C 115.395 744.200, 114.239 756.176, 113.445 763.112 C 112.650 770.049, 111.980 780.399, 111.956 786.112 C 111.914 795.954, 111.531 800.332, 109.163 818 C 108.610 822.125, 107.649 831.800, 107.026 839.500 C 106.403 847.200, 105.264 858.675, 104.496 865 C 103.727 871.325, 102.864 882.350, 102.578 889.500 C 102.292 896.650, 101.627 904.975, 101.101 908 C 100.575 911.025, 99.418 921.375, 98.530 931 C 97.641 940.625, 96.257 953, 95.454 958.500 C 94.651 964, 93.995 971.496, 93.997 975.158 C 93.999 978.820, 93.343 987.145, 92.541 993.658 C 91.738 1000.171, 90.388 1011.144, 89.541 1018.043 C 88.693 1024.941, 88 1033.317, 88 1036.656 C 88 1039.995, 87.521 1045.151, 86.936 1048.114 C 86.350 1051.076, 85.234 1059.800, 84.456 1067.500 C 83.677 1075.200, 82.376 1087.350, 81.565 1094.500 C 80.754 1101.650, 79.830 1112.675, 79.513 1119 C 79.196 1125.325, 78.282 1135.450, 77.482 1141.500 C 76.681 1147.550, 75.560 1157.225, 74.991 1163 C 74.421 1168.775, 73.301 1179.711, 72.502 1187.302 C 71.704 1194.893, 70.783 1206.593, 70.456 1213.302 C 70.129 1220.011, 69.412 1227.750, 68.863 1230.500 C 67.892 1235.360, 66.034 1251.600, 64 1273 C 63.451 1278.775, 62.555 1287.325, 62.009 1292 C 61.462 1296.675, 61.001 1303.875, 60.984 1308 C 60.966 1312.125, 60.513 1317.300, 59.976 1319.500 C 59.439 1321.700, 58.567 1327.775, 58.038 1333 C 53.910 1373.805, 52.941 1384.252, 52.106 1397 C 51.583 1404.975, 49.979 1417.463, 48.541 1424.752 L 45.927 1438.003 48.858 1453.252 C 50.470 1461.638, 52.075 1473.675, 52.426 1480 C 52.776 1486.325, 53.518 1494.650, 54.073 1498.500 C 55.827 1510.642, 62.077 1541.271, 63.970 1547 C 64.970 1550.025, 66.298 1554.975, 66.921 1558 C 67.544 1561.025, 69.575 1567.325, 71.433 1572 C 73.292 1576.675, 75.095 1581.850, 75.442 1583.500 C 76.009 1586.206, 80.988 1598.172, 87.716 1613 C 91.657 1621.685, 101.838 1641.837, 106.123 1649.433 C 111.274 1658.564, 125.811 1680.337, 133.876 1691 C 137.412 1695.675, 143.274 1702.805, 146.903 1706.845 C 150.531 1710.884, 154.625 1715.625, 156 1717.381 C 157.375 1719.136, 164.593 1726.416, 172.040 1733.560 C 186.095 1747.043, 208.830 1765.514, 217.502 1770.496 C 220.251 1772.076, 224.075 1774.575, 226 1776.051 C 227.925 1777.526, 231.300 1779.713, 233.500 1780.910 C 235.700 1782.107, 240.425 1784.877, 244 1787.066 C 247.575 1789.255, 252.075 1791.725, 254 1792.555 C 255.925 1793.385, 261.461 1796.075, 266.302 1798.532 C 271.144 1800.990, 275.693 1803, 276.412 1803 C 277.130 1803, 281.269 1804.643, 285.609 1806.651 C 289.949 1808.660, 295.525 1810.890, 298 1811.607 C 300.475 1812.324, 306.325 1814.289, 311 1815.973 C 328.706 1822.351, 352.717 1827.374, 374 1829.152 C 381.211 1829.755, 399.827 1829.982, 418 1829.689 C 445.942 1829.239, 451.251 1828.885, 465 1826.554 C 481.029 1823.837, 488.133 1822.054, 503.500 1816.892 C 508.450 1815.228, 515.200 1813.053, 518.500 1812.057 C 521.800 1811.061, 528.609 1808.390, 533.632 1806.123 C 538.655 1803.855, 543.341 1802, 544.047 1802 C 544.752 1802, 548.518 1800.259, 552.415 1798.131 C 556.312 1796.002, 560.545 1793.937, 561.821 1793.540 C 563.098 1793.144, 567.823 1790.644, 572.321 1787.983 C 576.820 1785.323, 583.650 1781.308, 587.500 1779.060 C 591.350 1776.812, 597.052 1773.291, 600.172 1771.236 C 612.167 1763.335, 630.975 1748.204, 642 1737.586 C 656.330 1723.785, 678.503 1699.200, 688.364 1686.180 C 692.472 1680.755, 697.867 1674.527, 700.352 1672.339 C 709.484 1664.301, 712.384 1662.858, 724.245 1660.450 L 735.500 1658.166 746.704 1660.438 C 752.867 1661.688, 758.942 1663.390, 760.204 1664.221 C 768.182 1669.471, 774.098 1675.530, 783.672 1688.255 C 800.161 1710.172, 806.306 1717.515, 818.886 1730.339 C 832.201 1743.911, 858.355 1764.529, 874 1773.786 C 881.865 1778.439, 910.160 1793, 911.338 1793 C 912.035 1793, 916.372 1794.821, 920.976 1797.048 C 925.579 1799.274, 931.630 1801.553, 934.423 1802.113 C 937.215 1802.672, 941.525 1803.959, 944 1804.971 C 949.935 1807.400, 968.243 1811.423, 984.896 1813.960 C 995.677 1815.602, 1003.095 1815.996, 1022.896 1815.979 C 1041.861 1815.963, 1050.479 1815.519, 1060.500 1814.043 C 1077.705 1811.508, 1097.414 1807.286, 1103 1804.940 C 1105.475 1803.900, 1109.734 1802.565, 1112.464 1801.972 C 1115.194 1801.380, 1121.219 1799.119, 1125.852 1796.948 C 1130.486 1794.777, 1134.972 1793, 1135.821 1793 C 1136.671 1793, 1143.082 1789.850, 1150.069 1786 C 1157.055 1782.150, 1163.122 1779, 1163.549 1779 C 1165.039 1779, 1183.556 1767.546, 1191.189 1761.903 C 1205.276 1751.489, 1213.393 1744.604, 1225.854 1732.500 C 1237.894 1720.804, 1254.516 1701.040, 1266.543 1684.119 C 1269.819 1679.510, 1274.383 1674.078, 1276.686 1672.050 C 1285.444 1664.332, 1288.475 1662.839, 1300.245 1660.450 L 1311.500 1658.166 1322.751 1660.447 C 1334.616 1662.854, 1337.508 1664.294, 1346.677 1672.364 C 1349.178 1674.566, 1354.123 1680.222, 1357.667 1684.934 C 1361.210 1689.645, 1366.898 1696.456, 1370.305 1700.068 C 1373.712 1703.681, 1379.644 1710.382, 1383.487 1714.960 C 1393.238 1726.576, 1415.792 1746.901, 1433.737 1760.242 C 1449.695 1772.106, 1456.138 1776.388, 1470 1784.343 C 1480.380 1790.299, 1502.577 1801.488, 1506 1802.489 C 1507.375 1802.891, 1512.550 1804.926, 1517.500 1807.011 C 1522.450 1809.096, 1529.200 1811.683, 1532.500 1812.761 C 1547.667 1817.713, 1554.888 1820.022, 1559.685 1821.452 C 1566.892 1823.601, 1591.404 1827.856, 1604 1829.145 C 1610.496 1829.809, 1627.465 1830.019, 1648.500 1829.694 C 1672.766 1829.320, 1684.647 1828.743, 1690 1827.677 C 1694.125 1826.856, 1700.875 1825.638, 1705 1824.969 C 1714.814 1823.379, 1732.776 1818.161, 1744.671 1813.446 C 1748.064 1812.101, 1751.688 1811, 1752.723 1811 C 1753.759 1811, 1758.182 1809.274, 1762.553 1807.165 C 1766.924 1805.055, 1771.850 1802.995, 1773.500 1802.586 C 1778.134 1801.439, 1802.634 1788.915, 1812.720 1782.536 C 1814.492 1781.416, 1818.894 1778.700, 1822.503 1776.500 C 1850.948 1759.161, 1884.002 1728.551, 1911.107 1694.445 C 1918.534 1685.100, 1931.191 1666.526, 1934.306 1660.400 C 1935.677 1657.705, 1938.623 1652.575, 1940.854 1649 C 1948.027 1637.502, 1960.613 1611.087, 1969.918 1588 C 1973.971 1577.945, 1979.346 1560.984, 1981.100 1552.718 C 1982.125 1547.888, 1983.397 1543.128, 1983.925 1542.140 C 1985.427 1539.334, 1990.819 1511.173, 1993.238 1493.500 C 1995.204 1479.136, 1995.427 1473.206, 1995.420 1435.500 C 1995.412 1395.231, 1995.279 1392.227, 1992.180 1362.612 C 1990.402 1345.624, 1988.704 1331.330, 1988.406 1330.848 C 1988.108 1330.366, 1987.452 1323.115, 1986.949 1314.736 C 1986.046 1299.699, 1980.445 1246.779, 1979.477 1244.141 C 1979.203 1243.393, 1978.527 1235.068, 1977.974 1225.641 C 1976.819 1205.948, 1972.694 1164.739, 1970.553 1151.500 C 1969.753 1146.550, 1968.826 1137.550, 1968.495 1131.500 C 1967.691 1116.818, 1963.791 1076.878, 1961.074 1055.500 C 1958.703 1036.837, 1955.703 1006.440, 1954.857 992.500 C 1954.356 984.250, 1953.293 972.550, 1952.493 966.500 C 1951.694 960.450, 1950.323 947.625, 1949.447 938 C 1948.571 928.375, 1947.215 916.225, 1946.433 911 C 1945.651 905.775, 1945.017 898.125, 1945.023 894 C 1945.029 889.875, 1944.359 880.425, 1943.534 873 C 1942.708 865.575, 1941.105 850.050, 1939.969 838.500 C 1938.834 826.950, 1937.500 814.350, 1937.004 810.500 C 1936.508 806.650, 1936.069 799.900, 1936.027 795.500 C 1935.986 791.100, 1935.515 785.700, 1934.980 783.500 C 1933.956 779.283, 1931.613 752.728, 1930.482 732.500 C 1930.113 725.900, 1929.380 718.492, 1928.854 716.038 C 1928.327 713.584, 1927.482 705.259, 1926.976 697.538 C 1926.470 689.817, 1925.408 679.450, 1924.618 674.500 C 1923.827 669.550, 1922.667 660.100, 1922.040 653.500 C 1921.412 646.900, 1920.247 637.963, 1919.450 633.640 C 1918.652 629.316, 1918 623.386, 1918 620.461 C 1918 617.536, 1916.915 608.023, 1915.589 599.321 C 1914.263 590.620, 1912.694 580.125, 1912.101 576 C 1910.266 563.220, 1907.021 545.737, 1905.513 540.500 C 1904.721 537.750, 1902.693 529.650, 1901.008 522.500 C 1899.322 515.350, 1897.295 507.925, 1896.504 506 C 1895.713 504.075, 1894.415 500.025, 1893.619 497 C 1891.847 490.260, 1890.323 485.811, 1887.874 480.223 C 1886.843 477.871, 1886 475.499, 1886 474.952 C 1886 474.405, 1884.461 470.020, 1882.581 465.207 C 1876.678 450.101, 1859.570 414.942, 1853.528 405.500 C 1851.768 402.750, 1848.905 398.285, 1847.164 395.579 C 1845.424 392.872, 1844 390.282, 1844 389.824 C 1844 387.830, 1826.475 363.853, 1814.162 349 C 1803.090 335.645, 1780.899 313.326, 1771.799 306.394 C 1768.334 303.755, 1763.025 299.511, 1760 296.963 C 1751.076 289.448, 1733.663 277.450, 1722.188 270.911 C 1716.310 267.561, 1707.749 262.611, 1703.165 259.910 C 1698.581 257.210, 1694.352 255, 1693.767 255 C 1693.182 255, 1688.988 252.975, 1684.448 250.500 C 1679.907 248.025, 1675.337 246, 1674.292 246 C 1673.248 246, 1670.167 244.910, 1667.446 243.578 C 1659.903 239.884, 1654.991 237.927, 1649.500 236.429 C 1646.750 235.679, 1637.816 232.807, 1629.647 230.047 C 1614.652 224.982, 1591.684 219.979, 1574.500 218.035 C 1569.550 217.475, 1548.625 217.017, 1528 217.017 C 1486.838 217.017, 1476.738 217.798, 1452 222.888 C 1436.936 225.987, 1414.546 232.160, 1410.076 234.446 C 1408.659 235.171, 1405.522 236.092, 1403.105 236.494 C 1400.688 236.896, 1395.014 238.925, 1390.495 241.002 C 1385.977 243.080, 1380.849 245.094, 1379.098 245.478 C 1372.762 246.870, 1342.193 262.388, 1323.154 273.877 C 1311.662 280.812, 1295.139 292.434, 1282 302.823 C 1272.647 310.218, 1260.085 321.761, 1246.613 335.340 C 1235.125 346.918, 1222.300 360.587, 1218.113 365.716 C 1204.989 381.790, 1195.333 393.931, 1181.698 411.500 C 1167.235 430.136, 1147.463 450.714, 1134 461.140 C 1129.325 464.761, 1121.450 470.205, 1116.500 473.240 C 1108.160 478.351, 1094.428 485, 1092.210 485 C 1091.684 485, 1089.285 485.861, 1086.877 486.913 C 1084.470 487.965, 1073.050 490.746, 1061.500 493.093 C 1041.848 497.086, 1039.473 497.357, 1024.500 497.319 C 1007.983 497.276, 1005.556 496.913, 976 490.066 C 964.445 487.389, 949.243 480.980, 936.500 473.414 C 923.127 465.473, 901.149 447.493, 892.268 437.227 C 889.096 433.560, 883.983 427.846, 880.908 424.530 C 877.832 421.213, 871.244 413.100, 866.269 406.500 C 861.294 399.900, 854.462 391.125, 851.087 387 C 847.712 382.875, 841.406 374.961, 837.073 369.414 C 832.740 363.867, 824.482 354.167, 818.722 347.860 C 806.157 334.099, 782.511 311.570, 771.625 302.987 C 761.328 294.867, 738.455 278.784, 734 276.530 C 732.075 275.556, 729.823 274.168, 728.995 273.446 C 728.168 272.725, 724.343 270.509, 720.495 268.523 C 716.648 266.537, 710.125 262.922, 706 260.488 C 701.875 258.055, 696.925 255.537, 695 254.893 C 693.075 254.249, 688.125 252.041, 684 249.987 C 679.875 247.932, 674.925 245.915, 673 245.505 C 671.075 245.095, 668.150 244.045, 666.500 243.173 C 662.073 240.832, 652.676 237.010, 651.334 237.005 C 650.692 237.002, 644.167 235.024, 636.834 232.610 C 629.500 230.195, 621.250 227.527, 618.500 226.682 C 609.967 224.058, 582.065 219.106, 570 218.073 C 553.912 216.696, 521.405 216.256, 496 217.072"/>
	</g>
	<g fill="#10212B">
		<circle cx="174" cy="241.5" r="38"/>
		<circle cx="338" cy="241.5" r="38"/>
	</g>
	<path d="M 218 285.5 Q 256 311.5 294 285.5" fill="none" stroke="#10212B" stroke-width="24" stroke-linecap="round"/>
	</g>
	<path fill="#65E6B8" stroke="#10212B" stroke-width="2.382" stroke-linejoin="round" stroke-linecap="round" paint-order="stroke fill" d="M 15.708 1.188 Q 9.768 1.188 7.26 -0.594 Q 4.752 -2.376 4.224 -5.214 Q 3.696 -8.052 3.696 -10.956 L 3.696 -79.2 Q 3.696 -82.104 4.224 -84.876 Q 4.752 -87.648 7.26 -89.43 Q 9.768 -91.212 15.84 -91.212 Q 21.912 -91.212 24.354 -89.43 Q 26.796 -87.648 27.324 -84.876 Q 27.852 -82.104 27.852 -79.068 L 27.852 -10.824 Q 27.852 -7.92 27.324 -5.148 Q 26.796 -2.376 24.288 -0.594 Q 21.78 1.188 15.708 1.188 Z M 48.124 1.056 Q 42.316 1.056 39.808 -0.66 Q 37.3 -2.376 36.772 -5.148 Q 36.244 -7.92 36.244 -11.088 L 36.244 -79.2 Q 36.244 -82.104 36.772 -84.81 Q 37.3 -87.516 39.808 -89.298 Q 42.316 -91.08 48.388 -91.08 Q 52.48 -91.08 54.394 -90.552 Q 56.308 -90.024 57.166 -89.232 Q 58.024 -88.44 58.948 -87.384 L 86.272 -52.272 L 85.48 -52.272 L 112.672 -87.252 Q 113.992 -88.704 115.114 -89.496 Q 116.236 -90.288 118.15 -90.684 Q 120.064 -91.08 123.628 -91.08 Q 129.568 -91.08 132.076 -89.298 Q 134.584 -87.516 135.112 -84.744 Q 135.64 -81.972 135.64 -78.936 L 135.64 -10.824 Q 135.64 -7.92 135.112 -5.148 Q 134.584 -2.376 132.076 -0.66 Q 129.568 1.056 123.496 1.056 Q 117.556 1.056 115.048 -0.726 Q 112.54 -2.508 112.012 -5.346 Q 111.484 -8.184 111.484 -11.088 L 111.484 -48.576 L 96.04 -27.588 Q 95.512 -26.928 94.456 -25.608 Q 93.4 -24.288 91.42 -23.232 Q 89.44 -22.176 85.876 -22.176 Q 82.312 -22.176 80.266 -23.232 Q 78.22 -24.288 77.164 -25.542 Q 76.108 -26.796 75.58 -27.588 L 60.268 -48.444 L 60.268 -10.824 Q 60.268 -7.92 59.74 -5.148 Q 59.212 -2.376 56.704 -0.66 Q 54.196 1.056 48.124 1.056 Z M 156.044 1.188 Q 150.104 1.188 147.596 -0.594 Q 145.088 -2.376 144.56 -5.214 Q 144.032 -8.052 144.032 -10.956 L 144.032 -79.2 Q 144.032 -82.104 144.56 -84.876 Q 145.088 -87.648 147.596 -89.43 Q 150.104 -91.212 156.176 -91.212 Q 162.248 -91.212 164.69 -89.43 Q 167.132 -87.648 167.66 -84.876 Q 168.188 -82.104 168.188 -79.068 L 168.188 -10.824 Q 168.188 -7.92 167.66 -5.148 Q 167.132 -2.376 164.624 -0.594 Q 162.116 1.188 156.044 1.188 Z M 222.516 2.508 Q 217.368 2.508 211.032 0.858 Q 204.696 -0.792 198.294 -4.356 Q 191.892 -7.92 186.546 -13.596 Q 181.2 -19.272 177.966 -27.192 Q 174.732 -35.112 174.732 -45.54 Q 174.732 -55.572 177.966 -63.228 Q 181.2 -70.884 186.48 -76.428 Q 191.76 -81.972 198.162 -85.404 Q 204.564 -88.836 211.032 -90.486 Q 217.5 -92.136 222.912 -92.136 Q 229.644 -92.136 234.792 -90.486 Q 239.94 -88.836 243.174 -87.054 Q 246.408 -85.272 247.2 -84.744 Q 249.84 -83.028 252.15 -80.982 Q 254.46 -78.936 254.46 -75.504 Q 254.46 -73.788 253.734 -71.94 Q 253.008 -70.092 251.556 -68.112 Q 248.916 -64.416 246.606 -62.7 Q 244.296 -60.984 242.052 -60.984 Q 240.336 -60.984 238.752 -61.776 Q 237.168 -62.568 234.924 -64.02 Q 234 -64.68 232.548 -65.538 Q 231.096 -66.396 228.588 -67.122 Q 226.08 -67.848 221.988 -67.848 Q 218.556 -67.848 214.53 -66.594 Q 210.504 -65.34 206.94 -62.634 Q 203.376 -59.928 201.132 -55.506 Q 198.888 -51.084 198.888 -44.88 Q 198.888 -38.544 201.198 -34.188 Q 203.508 -29.832 207.072 -27.126 Q 210.636 -24.42 214.662 -23.166 Q 218.688 -21.912 221.988 -21.912 Q 225.42 -21.912 227.796 -22.506 Q 230.172 -23.1 232.086 -24.156 Q 234 -25.212 235.584 -26.268 Q 237.036 -27.324 238.752 -28.116 Q 240.468 -28.908 242.184 -28.908 Q 244.428 -28.908 246.672 -27.06 Q 248.916 -25.212 251.424 -21.384 Q 252.876 -19.14 253.602 -17.226 Q 254.328 -15.312 254.328 -13.728 Q 254.328 -10.428 252.018 -8.448 Q 249.708 -6.468 247.068 -4.884 Q 246.144 -4.356 243.108 -2.508 Q 240.072 -0.66 234.924 0.924 Q 229.776 2.508 222.516 2.508 Z" transform="translate(154.304 125.814)"/>
	<path fill="#537D78" d="M 6.746 0.457 Q 4.231 0.457 3.144 -0.286 Q 2.058 -1.029 1.829 -2.23 Q 1.601 -3.43 1.601 -4.802 L 1.601 -34.303 Q 1.601 -35.561 1.829 -36.733 Q 2.058 -37.905 3.144 -38.677 Q 4.231 -39.448 6.861 -39.448 Q 8.633 -39.448 9.462 -39.22 Q 10.291 -38.991 10.662 -38.648 Q 11.034 -38.305 11.434 -37.848 L 23.269 -22.64 L 22.926 -22.64 L 34.703 -37.79 Q 35.275 -38.419 35.761 -38.762 Q 36.247 -39.105 37.076 -39.277 Q 37.905 -39.448 39.448 -39.448 Q 42.021 -39.448 43.107 -38.677 Q 44.194 -37.905 44.422 -36.704 Q 44.651 -35.503 44.651 -34.189 L 44.651 -4.688 Q 44.651 -3.43 44.422 -2.23 Q 44.194 -1.029 43.107 -0.286 Q 42.021 0.457 39.391 0.457 Q 36.818 0.457 35.732 -0.314 Q 34.646 -1.086 34.417 -2.315 Q 34.189 -3.545 34.189 -4.802 L 34.189 -21.039 L 27.499 -11.949 Q 27.271 -11.663 26.813 -11.091 Q 26.356 -10.52 25.498 -10.062 Q 24.641 -9.605 23.097 -9.605 Q 21.554 -9.605 20.667 -10.062 Q 19.781 -10.52 19.324 -11.063 Q 18.867 -11.606 18.638 -11.949 L 12.006 -20.982 L 12.006 -4.688 Q 12.006 -3.43 11.777 -2.23 Q 11.549 -1.029 10.462 -0.286 Q 9.376 0.457 6.746 0.457 Z M 67.661 1.143 Q 63.316 1.143 60.029 -0.6 Q 56.742 -2.344 54.512 -5.203 Q 52.282 -8.061 51.167 -11.491 Q 50.053 -14.922 50.053 -18.295 L 50.053 -34.303 Q 50.053 -35.618 50.281 -36.818 Q 50.51 -38.019 51.596 -38.791 Q 52.682 -39.563 55.312 -39.563 Q 57.942 -39.563 59.028 -38.791 Q 60.115 -38.019 60.343 -36.818 Q 60.572 -35.618 60.572 -34.246 L 60.572 -18.295 Q 60.572 -16.408 61.201 -14.35 Q 61.83 -12.292 63.402 -10.834 Q 64.974 -9.376 67.833 -9.376 Q 70.005 -9.376 71.606 -10.491 Q 73.207 -11.606 74.093 -13.635 Q 74.979 -15.665 74.979 -18.352 L 74.979 -34.589 Q 74.979 -35.847 75.237 -36.961 Q 75.494 -38.076 76.58 -38.819 Q 77.666 -39.563 80.239 -39.563 Q 82.869 -39.563 83.927 -38.762 Q 84.984 -37.962 85.213 -36.761 Q 85.442 -35.561 85.442 -34.246 L 85.442 -18.181 Q 85.442 -14.75 84.298 -11.349 Q 83.155 -7.947 80.897 -5.117 Q 78.638 -2.287 75.322 -0.572 Q 72.006 1.143 67.661 1.143 Z M 97.304 0.515 Q 94.731 0.515 93.645 -0.257 Q 92.558 -1.029 92.33 -2.258 Q 92.101 -3.487 92.101 -4.745 L 92.101 -34.303 Q 92.101 -35.561 92.33 -36.761 Q 92.558 -37.962 93.645 -38.734 Q 94.731 -39.506 97.361 -39.506 Q 99.991 -39.506 101.048 -38.734 Q 102.106 -37.962 102.335 -36.761 Q 102.563 -35.561 102.563 -34.246 L 102.563 -8.404 L 116.513 -8.404 Q 117.6 -8.404 118.6 -8.233 Q 119.601 -8.061 120.258 -7.118 Q 120.916 -6.175 120.916 -3.945 Q 120.916 -1.772 120.229 -0.829 Q 119.543 0.114 118.543 0.314 Q 117.542 0.515 116.456 0.515 Z M 155.36 -39.563 Q 156.446 -39.563 157.418 -39.391 Q 158.39 -39.22 159.048 -38.305 Q 159.705 -37.39 159.705 -35.16 Q 159.705 -32.988 159.048 -32.045 Q 158.39 -31.101 157.39 -30.93 Q 156.389 -30.758 155.303 -30.758 L 147.413 -30.758 L 147.413 -4.574 Q 147.413 -3.316 147.185 -2.144 Q 146.956 -0.972 145.898 -0.229 Q 144.841 0.515 142.211 0.515 Q 139.695 0.515 138.609 -0.257 Q 137.523 -1.029 137.323 -2.201 Q 137.123 -3.373 137.123 -4.631 L 137.123 -30.758 L 129.176 -30.758 Q 128.147 -30.758 127.146 -30.958 Q 126.146 -31.158 125.488 -32.073 Q 124.831 -32.988 124.831 -35.218 Q 124.831 -37.39 125.488 -38.305 Q 126.146 -39.22 127.175 -39.391 Q 128.204 -39.563 129.233 -39.563 Z M 169.566 0.515 Q 166.994 0.515 165.907 -0.257 Q 164.821 -1.029 164.592 -2.258 Q 164.364 -3.487 164.364 -4.745 L 164.364 -34.303 Q 164.364 -35.561 164.592 -36.761 Q 164.821 -37.962 165.907 -38.734 Q 166.994 -39.506 169.623 -39.506 Q 172.253 -39.506 173.311 -38.734 Q 174.369 -37.962 174.597 -36.761 Q 174.826 -35.561 174.826 -34.246 L 174.826 -4.688 Q 174.826 -3.43 174.597 -2.23 Q 174.369 -1.029 173.282 -0.257 Q 172.196 0.515 169.566 0.515 Z M 185.83 0.457 Q 183.258 0.457 182.171 -0.314 Q 181.085 -1.086 180.857 -2.315 Q 180.628 -3.545 180.628 -4.802 L 180.628 -34.303 Q 180.628 -35.561 180.857 -36.761 Q 181.085 -37.962 182.171 -38.734 Q 183.258 -39.506 185.888 -39.506 L 197.265 -39.506 Q 199.437 -39.506 201.953 -38.619 Q 204.468 -37.733 206.727 -35.904 Q 208.985 -34.074 210.414 -31.33 Q 211.843 -28.586 211.843 -24.812 Q 211.843 -21.096 210.414 -18.352 Q 208.985 -15.608 206.727 -13.807 Q 204.468 -12.006 201.953 -11.12 Q 199.437 -10.234 197.208 -10.234 L 191.09 -10.234 L 191.09 -4.745 Q 191.09 -3.487 190.862 -2.287 Q 190.633 -1.086 189.547 -0.314 Q 188.46 0.457 185.83 0.457 Z M 191.09 -20.696 L 197.265 -20.696 Q 198.008 -20.696 198.98 -21.068 Q 199.952 -21.439 200.695 -22.354 Q 201.438 -23.269 201.438 -24.87 Q 201.438 -26.07 200.867 -27.014 Q 200.295 -27.957 199.351 -28.5 Q 198.408 -29.043 197.208 -29.043 L 191.09 -29.043 Z M 222.905 0.515 Q 220.332 0.515 219.246 -0.257 Q 218.16 -1.029 217.931 -2.258 Q 217.702 -3.487 217.702 -4.745 L 217.702 -34.303 Q 217.702 -35.561 217.931 -36.761 Q 218.16 -37.962 219.246 -38.734 Q 220.332 -39.506 222.962 -39.506 Q 225.592 -39.506 226.65 -38.734 Q 227.707 -37.962 227.936 -36.761 Q 228.165 -35.561 228.165 -34.246 L 228.165 -8.404 L 242.115 -8.404 Q 243.201 -8.404 244.201 -8.233 Q 245.202 -8.061 245.859 -7.118 Q 246.517 -6.175 246.517 -3.945 Q 246.517 -1.772 245.831 -0.829 Q 245.145 0.114 244.144 0.314 Q 243.144 0.515 242.057 0.515 Z M 289.023 -6.746 Q 289.88 -5.031 289.938 -3.83 Q 289.995 -2.63 289.194 -1.715 Q 288.394 -0.8 286.622 0.114 Q 283.877 1.429 282.391 0.943 Q 280.904 0.457 279.589 -2.344 L 269.87 -22.24 L 260.266 -2.287 Q 258.893 0.4 257.407 0.886 Q 255.92 1.372 253.233 0.057 Q 251.461 -0.8 250.632 -1.715 Q 249.803 -2.63 249.86 -3.83 Q 249.917 -5.031 250.775 -6.746 L 265.125 -36.475 Q 265.811 -37.848 267.155 -38.677 Q 268.498 -39.506 269.927 -39.506 Q 270.957 -39.506 271.843 -39.134 Q 272.729 -38.762 273.472 -38.076 Q 274.215 -37.39 274.673 -36.418 Z M 260.837 -7.775 L 265.182 -16.694 L 274.616 -16.694 L 278.961 -7.775 Z M 325.812 -38.648 Q 328.327 -36.933 328.556 -35.361 Q 328.784 -33.788 327.298 -31.616 L 315.921 -14.579 L 315.921 -4.574 Q 315.921 -3.316 315.692 -2.115 Q 315.463 -0.915 314.377 -0.143 Q 313.291 0.629 310.661 0.629 Q 308.031 0.629 306.945 -0.143 Q 305.859 -0.915 305.63 -2.144 Q 305.401 -3.373 305.401 -4.688 L 305.401 -14.579 L 294.024 -31.616 Q 292.423 -33.846 292.766 -35.446 Q 293.109 -37.047 295.568 -38.648 Q 297.34 -39.849 298.598 -40.049 Q 299.856 -40.249 300.885 -39.534 Q 301.914 -38.819 302.886 -37.219 L 310.49 -24.984 L 318.436 -37.219 Q 319.523 -38.877 320.523 -39.563 Q 321.524 -40.249 322.781 -40.02 Q 324.039 -39.791 325.812 -38.648 Z M 338.474 0.515 Q 335.901 0.515 334.815 -0.257 Q 333.729 -1.029 333.5 -2.258 Q 333.271 -3.487 333.271 -4.745 L 333.271 -34.303 Q 333.271 -37.276 334.443 -38.391 Q 335.615 -39.506 338.645 -39.506 L 359.57 -39.506 Q 360.885 -39.506 362.057 -39.277 Q 363.229 -39.048 364.001 -37.962 Q 364.773 -36.876 364.773 -34.246 Q 364.773 -31.673 364.001 -30.587 Q 363.229 -29.5 362.029 -29.272 Q 360.828 -29.043 359.513 -29.043 L 343.734 -29.043 L 343.734 -23.955 L 354.31 -23.955 Q 355.625 -23.955 356.654 -23.755 Q 357.684 -23.555 358.312 -22.64 Q 358.941 -21.725 358.941 -19.438 Q 358.941 -17.266 358.312 -16.322 Q 357.684 -15.379 356.597 -15.208 Q 355.511 -15.036 354.196 -15.036 L 343.734 -15.036 L 343.734 -9.948 L 359.57 -9.948 Q 360.885 -9.948 362.057 -9.719 Q 363.229 -9.49 364.001 -8.404 Q 364.773 -7.318 364.773 -4.688 Q 364.773 -2.115 364.001 -1.029 Q 363.229 0.057 362.029 0.286 Q 360.828 0.515 359.513 0.515 Z M 374.977 0.457 Q 372.404 0.457 371.318 -0.314 Q 370.232 -1.086 370.003 -2.315 Q 369.774 -3.545 369.774 -4.802 L 369.774 -34.303 Q 369.774 -35.561 370.003 -36.761 Q 370.232 -37.962 371.318 -38.734 Q 372.404 -39.506 375.034 -39.506 L 386.525 -39.506 Q 388.698 -39.506 391.214 -38.619 Q 393.729 -37.733 395.959 -35.904 Q 398.188 -34.074 399.618 -31.33 Q 401.047 -28.586 401.047 -24.812 Q 401.047 -22.183 400.275 -19.896 Q 399.503 -17.609 397.988 -15.751 Q 396.473 -13.893 394.329 -12.492 Q 392.185 -11.091 389.441 -10.291 L 380.237 -10.291 L 380.237 -4.745 Q 380.237 -3.487 380.008 -2.287 Q 379.779 -1.086 378.693 -0.314 Q 377.607 0.457 374.977 0.457 Z M 398.932 -0.915 Q 396.359 1.029 394.872 0.657 Q 393.386 0.286 391.671 -2.001 L 381.151 -16.294 L 393.043 -17.78 L 400.132 -8.233 Q 401.276 -6.575 401.59 -5.431 Q 401.905 -4.288 401.276 -3.259 Q 400.647 -2.23 398.932 -0.915 Z M 380.237 -20.696 L 386.525 -20.696 Q 387.04 -20.696 387.755 -20.896 Q 388.469 -21.096 389.098 -21.582 Q 389.727 -22.068 390.156 -22.869 Q 390.585 -23.669 390.585 -24.87 Q 390.585 -26.07 390.013 -27.014 Q 389.441 -27.957 388.498 -28.5 Q 387.555 -29.043 386.411 -29.043 L 380.237 -29.043 Z" transform="translate(6.629 195.249)"/>
</svg>
